<svg width="32" height="32" fill="none" xmlns="http://www.w3.org/2000/svg"><g clip-path="url(#clip0)"><path d="M21.334.914l-1.867 5.177c1.724 5.688 1.724 14.13 0 19.818l1.867 5.176C27.548 28.888 32 22.965 32 16 32 9.035 27.548 3.112 21.334.914z" fill="#E61E25"/><path d="M21.334 6.091V.914A15.967 15.967 0 0016 0c2.467 0-.954 8.362 5.334 6.091zM16 32c1.871 0 3.666-.324 5.334-.914v-5.177C15.11 25.288 16 32 16 32z" fill="#E4E4E4"/><path d="M0 16c0 6.989 4.483 12.927 10.728 15.107V.894C4.483 3.074 0 9.01 0 16z" fill="#3757A6"/><path d="M21.334 6.091V25.91c1.724-5.688 1.724-14.13 0-19.818z" fill="#EF4F4E"/><path d="M21.334 25.91V6.09C20.244 2.495 18.467.001 16 .001c-1.848 0-3.62.316-5.272.893v30.213c1.651.576 3.424.893 5.272.893 2.467 0 4.245-2.495 5.334-6.09z" fill="#F3F4F5"/></g><defs><clipPath id="clip0"><path fill="#fff" d="M0 0h32v32H0z"/></clipPath></defs></svg>