<svg width="30" height="30" fill="none" xmlns="http://www.w3.org/2000/svg"><g clip-path="url(#clip0)"><path d="M29.934 16.403H.068h29.866zm-1.557-8.189H1.623h26.754zm1.063 2.73H.56h28.88zM6.447 27.32h17.106l.001-.001H6.446h.001zM15 0c-.295 0-.587.01-.877.027h1.754C15.587.011 15.295 0 15 0zm14.937 13.673H.062h29.875z" fill="#C42126"/><path d="M19.433 5.485h7.163a15.072 15.072 0 00-2.935-2.728h-5.379c.445.783.828 1.707 1.151 2.728z" fill="#E7E7E7"/><path d="M18.282 2.757h5.379a14.917 14.917 0 00-7.784-2.73h-.462c1.361.172 1.986 1.179 2.867 2.73z" fill="#DC3027"/><path d="M29.44 10.944a14.903 14.903 0 00-1.063-2.729h-8.24c.166.876.298 1.791.396 2.729h8.908z" fill="#E7E7E7"/><path d="M19.673 8.215h8.704a15.003 15.003 0 00-1.781-2.73h-7.603c.268.85.496 1.765.68 2.73z" fill="#DC3027"/><path d="M20.848 16.402h9.084c.044-.461.068-.93.068-1.402 0-.447-.024-.889-.062-1.327H20.85c.03.908.03 1.822-.002 2.73z" fill="#E7E7E7"/><path d="M29.938 13.673a14.942 14.942 0 00-.497-2.729H20.15c.093.894.155 1.808.185 2.729h9.603z" fill="#DC3027"/><path d="M19.98 21.86h8.357c.446-.863.81-1.776 1.082-2.728h-9.035a32.75 32.75 0 01-.404 2.729z" fill="#E7E7E7"/><path d="M29.42 19.131c.251-.879.426-1.79.513-2.728h-9.368a38.361 38.361 0 01-.19 2.729h9.044z" fill="#DC3027"/><path d="M23.554 27.319a15.082 15.082 0 002.978-2.729h-7.037c-.33 1.026-.72 1.949-1.173 2.729h5.232z" fill="#E7E7E7"/><path d="M19.23 24.59h7.302a15.024 15.024 0 001.805-2.73h-8.419a23.756 23.756 0 01-.688 2.73zm-4.774 5.4l-.09-.004.09.003zM15 30c3.18 0 6.127-.993 8.553-2.68h-5.428C17.16 28.98 16.524 30 15 30z" fill="#DC3027"/><path d="M18.78 2.757H6.34a15.077 15.077 0 00-2.936 2.728H19.93c-.323-1.021-.706-1.945-1.15-2.728z" fill="#F3F4F5"/><path d="M6.34 2.757h12.44c-.883-1.551-2.004-2.558-3.365-2.73h-1.292a14.915 14.915 0 00-7.784 2.73z" fill="#E73625"/><path d="M.56 10.944h20.446a32.737 32.737 0 00-.396-2.729H1.623C1.183 9.08.826 9.993.56 10.944z" fill="#F3F4F5"/><path d="M3.404 5.485a15.019 15.019 0 00-1.78 2.73H20.61a24.053 24.053 0 00-.68-2.73H3.404z" fill="#E73625"/><path d="M0 15c0 .473.025.94.068 1.402h21.121c.031-.907.032-1.82.002-2.728H.061c-.037.437-.06.879-.06 1.326z" fill="#F3F4F5"/><path d="M.062 13.673h21.129a38.538 38.538 0 00-.185-2.729H.559a14.92 14.92 0 00-.497 2.729z" fill="#E73625"/><path d="M20.998 19.131H.581c.272.953.636 1.866 1.081 2.73h18.932a31.9 31.9 0 00.404-2.73z" fill="#F3F4F5"/><path d="M.581 19.131h20.417c.095-.893.16-1.807.191-2.728H.068c.087.938.262 1.85.513 2.729z" fill="#E73625"/><path d="M6.446 27.319h12.288c.453-.78.843-1.703 1.172-2.729H3.468a15.077 15.077 0 002.978 2.729z" fill="#F3F4F5"/><path d="M1.663 21.86a15.026 15.026 0 001.805 2.73h16.438c.271-.847.502-1.763.688-2.73H1.663zm12.702 8.126l.091.003c.18.007.362.01.544.01 1.525 0 2.77-1.02 3.733-2.68H6.447a14.921 14.921 0 007.918 2.667z" fill="#E73625"/><path d="M14.69.008C7.003.164.738 6.099.064 13.648H14.69V.009z" fill="#283991"/><path d="M3.001 8.499l.229.703h.74l-.599.435.23.705-.6-.436-.598.436.228-.705-.599-.435h.74l.23-.703zm0 2.486l.229.704h.74l-.599.435.23.704-.6-.435-.598.435.228-.704-.599-.435h.74l.23-.704zm2.487-6.216l.228.704h.74l-.598.435.228.704-.598-.435-.599.435.229-.704-.6-.435h.741l.229-.704zm0 2.486l.228.704h.74l-.598.435.228.704-.598-.435-.599.435.229-.704-.6-.435h.741l.229-.704zm0 2.487l.228.704h.74l-.598.434.228.704-.598-.435-.599.436.229-.705-.6-.434h.741l.229-.704zm-4.374 1.843l-.229-.705.599-.435h-.74l-.017-.05c-.081.25-.154.505-.222.762l.01-.008.599.436zm1.289-3.73l.599-.435.598.435-.228-.704.598-.435h-.74L3 6.012l-.228.704H2.5c-.05.076-.1.154-.149.232l.28.203-.228.704zM5.488 3.69l.598.435-.228-.703.598-.436H6.03c-.363.272-.714.56-1.05.862l-.09.277.599-.434zm1.887-.808l.6-.435.598.435-.229-.704.599-.435h-.74l-.031-.094c-.251.128-.5.261-.742.403l.174.126-.229.704zm.599.644l.229.703h.74l-.599.436.229.704-.599-.436-.599.436.229-.704-.599-.436h.74l.23-.703zm0 2.486l.229.704h.74l-.599.435.229.704-.599-.435-.599.435.229-.704-.599-.435h.74l.23-.704zm0 2.487l.229.703h.74l-.599.435.229.705-.599-.436-.599.436.229-.705-.599-.435h.74l.23-.703zm0 2.486l.229.704h.74l-.599.435.229.704-.599-.435-.599.435.229-.704-.599-.435h.74l.23-.704zm2.486-8.703l.23.704h.74l-.6.436.23.703-.6-.435-.598.435.228-.703-.599-.436h.74l.23-.704zm0 2.487l.23.704h.74l-.6.435.23.704-.6-.435-.598.435.228-.704-.599-.435h.74l.23-.704zm0 2.486l.23.704h.74l-.6.435.23.704-.6-.435-.598.435.228-.704-.599-.435h.74l.23-.704zm0 2.487l.23.704h.74l-.6.434.23.704-.6-.435-.598.436.228-.705-.599-.434h.74l.23-.704zm2.487-8.702l.229.703h.74l-.6.435.23.704-.6-.435-.598.435.229-.704-.6-.435h.74l.23-.703zm0 2.486l.229.703h.74l-.6.436.23.704-.6-.436-.598.436.229-.704-.6-.436h.74l.23-.703zm0 2.486l.229.704h.74l-.6.435.23.704-.6-.435-.598.435.229-.704-.6-.435h.74l.23-.704zm0 2.487l.229.703h.74l-.6.435.23.705-.6-.436-.598.436.229-.705-.6-.435h.74l.23-.703zm0 2.486l.229.704h.74l-.6.435.23.704-.6-.435-.598.435.229-.704-.6-.435h.74l.23-.704z" fill="#EFEFEF"/></g><defs><clipPath id="clip0"><path fill="#fff" d="M0 0h30v30H0z"/></clipPath></defs></svg>