<svg width="21" height="24" fill="none" xmlns="http://www.w3.org/2000/svg"><path d="M10.5 18.186c4.467 0 8.375 1.909 10.5 4.758L18.753 24c-1.73-2.037-4.78-3.39-8.254-3.39-3.473 0-6.523 1.353-8.253 3.39L0 22.943c2.125-2.85 6.032-4.758 10.5-4.758zM10.5 0a6.12 6.12 0 014.313 1.775 6.043 6.043 0 011.786 4.287v3.637a6.042 6.042 0 01-1.694 4.192 6.117 6.117 0 01-4.14 1.864l-.266.006a6.12 6.12 0 01-4.313-1.776A6.043 6.043 0 014.399 9.7V6.062c0-1.562.607-3.064 1.695-4.192a6.117 6.117 0 014.14-1.864L10.5 0zm0 2.425c-.934 0-1.832.354-2.512.99a3.628 3.628 0 00-1.143 2.433l-.006.214v3.637c0 .947.37 1.857 1.033 2.536a3.674 3.674 0 005.1.149 3.628 3.628 0 001.181-2.472l.006-.213V6.062c0-.965-.385-1.89-1.072-2.572A3.672 3.672 0 0010.5 2.425z" fill="#333"/></svg>