<svg width="110" height="110" fill="none" xmlns="http://www.w3.org/2000/svg"><path d="M53.996 42.26a3.448 3.448 0 00-4.867-.006L37.813 53.577l-4.442-4.448a3.44 3.44 0 00-4.86 0 3.44 3.44 0 000 4.86l6.875 6.875a3.404 3.404 0 002.426 1.011c.88 0 1.76-.337 2.434-1.004l13.75-13.75a3.44 3.44 0 000-4.86zm0 27.5a3.448 3.448 0 00-4.867-.006L37.813 81.077l-4.442-4.441a3.44 3.44 0 00-4.86 0 3.44 3.44 0 000 4.86l6.875 6.875a3.426 3.426 0 002.426 1.004c.88 0 1.76-.337 2.434-1.004l13.75-13.75a3.44 3.44 0 000-4.86zm25.067-21.635h-13.75a3.439 3.439 0 00-3.438 3.438A3.439 3.439 0 0065.313 55h13.75a3.439 3.439 0 003.437-3.438 3.439 3.439 0 00-3.438-3.437zm0 27.5h-13.75a3.439 3.439 0 00-3.438 3.438 3.439 3.439 0 003.438 3.437h13.75a3.439 3.439 0 003.437-3.438 3.439 3.439 0 00-3.438-3.437z" fill="#AAE139"/><path d="M89.375 13.75h-13.75v-3.438a3.439 3.439 0 00-3.438-3.437h-7.459C63.305 2.874 59.483 0 55 0s-8.305 2.874-9.728 6.875h-7.46a3.439 3.439 0 00-3.437 3.438v3.437h-13.75c-3.788 0-6.875 3.087-6.875 6.875v82.5c0 3.788 3.087 6.875 6.875 6.875h68.75c3.788 0 6.875-3.087 6.875-6.875v-82.5c0-3.788-3.087-6.875-6.875-6.875zm-48.125 0h6.875a3.439 3.439 0 003.438-3.438A3.439 3.439 0 0155 6.876a3.439 3.439 0 013.438 3.438 3.439 3.439 0 003.437 3.437h6.875v6.875h-27.5V13.75zm48.125 89.375h-68.75v-82.5h13.75v3.438a3.439 3.439 0 003.438 3.437h34.374a3.439 3.439 0 003.438-3.438v-3.437h13.75v82.5z" fill="#AAE139"/></svg>