<svg width="25" height="25" fill="none" xmlns="http://www.w3.org/2000/svg"><g clip-path="url(#clip0)" fill="#000"><path d="M21.948 2.987H3.058A3.06 3.06 0 000 6.044v12.912a3.06 3.06 0 003.057 3.057h18.886A3.06 3.06 0 0025 18.956V6.05a3.056 3.056 0 00-3.052-3.063zm1.66 15.969c0 .915-.744 1.66-1.66 1.66H3.058a1.663 1.663 0 01-1.661-1.66V6.05c0-.916.745-1.66 1.66-1.66h18.886c.915 0 1.66.744 1.66 1.66v12.906h.005z"/><path d="M15.767 12.34l6.114-5.484a.702.702 0 00.052-.988.702.702 0 00-.988-.051l-8.432 7.567-1.645-1.469c-.005-.005-.01-.01-.01-.015a1.04 1.04 0 00-.114-.098L4.05 5.812a.697.697 0 00-.988.056.697.697 0 00.057.988l6.187 5.53-6.161 5.768a.701.701 0 00.957 1.024l6.254-5.85 1.697 1.515a.698.698 0 00.93-.005l1.744-1.562 6.218 5.907a.697.697 0 10.962-1.014l-6.14-5.83z"/></g><defs><clipPath id="clip0"><path fill="#fff" d="M0 0h25v25H0z"/></clipPath></defs></svg>