<svg width="55" height="55" fill="none" xmlns="http://www.w3.org/2000/svg"><path d="M25.347 24.392v20.551l2.148 8.98 2.158-8.617V24.392" fill="#D8D7DA"/><path d="M27.5 24.59c6.493 0 11.757-5.264 11.757-11.757 0-6.493-5.264-11.757-11.757-11.757-6.493 0-11.757 5.264-11.757 11.757 0 6.493 5.264 11.757 11.757 11.757z" fill="#AAE139"/><path d="M40.332 12.832C40.332 5.757 34.576 0 27.5 0c-7.076 0-12.833 5.757-12.833 12.832 0 5.962 4.086 10.986 9.604 12.421v19.69c0 .085.01.169.03.25l2.148 8.981c.115.482.545.823 1.04.826h.007c.493 0 .924-.336 1.044-.815l2.157-8.617c.021-.086.032-.174.032-.262V25.253c5.518-1.435 9.603-6.46 9.603-12.42zM28.576 45.174l-1.057 4.223-1.095-4.58V25.62a12.945 12.945 0 002.152 0v19.553zM27.5 23.513c-5.889 0-10.68-4.792-10.68-10.68 0-5.89 4.791-10.68 10.68-10.68 5.889 0 10.68 4.79 10.68 10.68 0 5.888-4.791 10.68-10.68 10.68z" fill="#000"/><path d="M27.5 4.251c-4.732 0-8.581 3.85-8.581 8.581a1.076 1.076 0 002.153 0A6.436 6.436 0 0127.5 6.404a1.076 1.076 0 100-2.153zm-7.494 10.441h-.021a1.076 1.076 0 000 2.152h.021a1.076 1.076 0 000-2.152z" fill="#000"/></svg>