<svg width="110" height="110" fill="none" xmlns="http://www.w3.org/2000/svg"><g clip-path="url(#clip0)" fill="#AAE139"><path d="M89.269 95.806L85.16 83.483a12.42 12.42 0 00-9.56-8.29l-11.858-2.158v-.92a17.857 17.857 0 005.29-4.696h3.581a5.33 5.33 0 005.323-5.322v-21.29c0-12.718-10.347-23.065-23.065-23.065-12.717 0-23.064 10.347-23.064 23.064v12.42c0 3.42 2.432 6.282 5.658 6.95.995 5.098 4.181 9.413 8.535 11.94v.919l-11.858 2.157a12.417 12.417 0 00-9.56 8.29l-.71 2.132-6.042-6.043a1.777 1.777 0 010-2.51l7.008-7.007L11.685 56.9l-7.92 7.92a12.338 12.338 0 00-3.637 8.782 12.33 12.33 0 003.637 8.78l23.978 23.979A12.338 12.338 0 0036.525 110c3.318 0 6.435-1.293 8.726-3.586l8.642-7.918-2.695-2.69h38.07zm-14.88-33.71c0 .98-.797 1.775-1.775 1.775h-1.492c.515-1.173.905-2.41 1.157-3.696.76-.158 1.458-.46 2.11-.839v2.76zm-1.775-5.815v-6.11a3.537 3.537 0 011.774 3.055c0 1.307-.718 2.44-1.774 3.055zm-35.484 0a3.537 3.537 0 01-1.774-3.055c0-1.308.719-2.44 1.774-3.055v6.11zm0-11.926v2.026a7.036 7.036 0 00-1.774.734v-6.309c0-10.76 8.756-19.516 19.516-19.516 10.76 0 19.516 8.756 19.516 19.517v6.308a6.973 6.973 0 00-1.774-.734v-2.026H70.84A19.52 19.52 0 0156.95 38.6l-2.078-2.077-2.077 2.077a19.52 19.52 0 01-13.89 5.754H37.13zm3.549 12.42v-8.94a23.003 23.003 0 0014.193-6.305 22.993 22.993 0 0014.194 6.306v8.938c0 2.587-.706 5.007-1.92 7.097H54.872v3.548h9.358c-2.502 2.202-5.772 3.549-9.358 3.549-7.826 0-14.193-6.368-14.193-14.194zm19.516 16.923v.084l-5.323 5.322-5.322-5.322v-.084a17.716 17.716 0 0010.645 0zM27.947 84.604a8.874 8.874 0 016.83-5.924l12.4-2.253 7.695 7.695 7.693-7.693 12.4 2.253a8.871 8.871 0 016.829 5.924l2.553 7.652H47.65l-6.91-6.91-7.68 6.946c-.668.672-1.838.672-2.508 0l-3.875-3.875 1.27-3.815zM11.683 61.918l8.137 8.136-1.927 1.927-8.137-8.137 1.927-1.926zm31.11 41.938a8.828 8.828 0 01-6.271 2.596 8.823 8.823 0 01-6.274-2.6L6.27 79.876a8.813 8.813 0 01-2.597-6.272c0-2.37.922-4.599 2.597-6.273l.976-.976 8.136 8.136-.063.064a5.332 5.332 0 000 7.528L28.04 94.806a5.295 5.295 0 003.765 1.56c1.423 0 2.759-.554 3.7-1.498l.132-.119 8.174 8.174-1.018.933zm3.638-3.336l-8.156-8.155 2.343-2.119 8.142 8.142-2.33 2.132zM104.551 0h-24.84a5.33 5.33 0 00-5.322 5.323v14.193a5.33 5.33 0 005.323 5.323h4.739l-1.835 10.7 17.121-10.7h4.814a5.329 5.329 0 005.322-5.323V5.323A5.329 5.329 0 00104.551 0zm1.774 19.516c0 .978-.797 1.774-1.774 1.774h-5.832L87.45 28.332l1.208-7.042h-8.947a1.777 1.777 0 01-1.774-1.774V5.323c0-.978.796-1.775 1.774-1.775h24.839c.977 0 1.774.797 1.774 1.775v14.193z"/><path d="M102.776 7.097h-21.29v3.548h21.29V7.097zm-7.096 7.097H81.486v3.548H95.68v-3.548zm7.096 0h-3.548v3.548h3.548v-3.548zM54.873 5.323c-23.181 0-43.15 16.035-48.341 38.402L3.17 38.12.127 39.947l6.236 10.392L16.755 44.1l-1.826-3.042-4.808 2.884c5.028-20.46 23.428-35.071 44.752-35.071 4.661 0 9.26.692 13.669 2.058l1.05-3.389a49.645 49.645 0 00-14.719-2.217zm54.138 33.961L98.62 33.048 92.385 43.44l3.043 1.826 3.105-5.176A45.93 45.93 0 01101.002 55c0 10.551-3.655 20.866-10.288 29.043l2.755 2.236c7.146-8.807 11.082-19.917 11.082-31.279 0-5.427-.875-10.727-2.58-15.801l5.214 3.128 1.826-3.043z"/></g><defs><clipPath id="clip0"><path fill="#fff" d="M0 0h110v110H0z"/></clipPath></defs></svg>