<svg width="548" height="365" fill="none" xmlns="http://www.w3.org/2000/svg"><path d="M500.771 363.583s11.413-123.38-105.513-123.38c-126.32 0-52.584-71.949-136.09-92.744-73.703-18.354-120.783 61.113-90.11 111.045 22.079 35.94-68.042 55.859-57.266 105.821l388.979-.742z" fill="#F5F6FA"/><path d="M501.271 180.259c0 17.642-12.931 28.787-30.086 35.528-3.913 1.539-8.048 2.847-12.299 3.952-9.073 2.357-18.678 3.782-27.805 4.517-5.421.437-10.677.63-15.55.63-10.493 0-19.573-1.866-27.359-5.147-27.916-11.771-39.181-41.779-39.181-69.435 0-35.368 32.364-45.72 66.54-49.518 69.182-7.688 85.74 44.105 85.74 79.473zm-203.152-54.375c-3.499-.193-7.179-.654-11.037-1.402-9.565-1.852-18.812-2.386-27.539-2.373-36.055.051-63.292 9.404-67.844-26.471-4.643-36.592 40.081-81.055 72.776-92.883 38.4-13.891 72.589 27.453 80.657 63.538 7.383 33.024-9.288 61.708-47.013 59.591zM150.621 261.27c0 25.646-22.989 39.515-51.018 42.538-.186.022-.375.042-.563.062a112.34 112.34 0 01-5.258.41h-.002c-2.056.11-4.13.165-6.22.165-.124 0-.246 0-.369-.002a92.453 92.453 0 01-10.765-.655c-39.989-4.816-60.664-35.397-60.664-62.253 0-29.245 38.824-50.024 71.798-42.997 32.426 6.91 63.061 33.487 63.061 62.732zm29.322-137.423c0 34.598-31.354 53.13-69.311 56.888a150.583 150.583 0 01-17.645.689l-.133-.002c-1.322-.031-2.63-.079-3.924-.149a116.41 116.41 0 01-15.382-1.829 104.497 104.497 0 01-12.266-3.077 94.195 94.195 0 01-3.278-1.105C19.7 161.626 0 127.796 0 97.515c0-39.022 51.801-66.747 95.8-57.371 43.265 9.22 84.143 44.68 84.143 83.703z" fill="#F5F6FA"/><path d="M277.143 185.267c-.592-1.06-7.383-12.265-25.593-3.91 0 0 9.333-3.369 12.813-.301 0 0-8.414-1.731-12.516 2.235-4.102 3.967-2.642 13.863-1.247 16.659 1.394 2.799 8.694 10.412 12.182 9.624 1.319-.298 2.633-1.051 3.753-1.875a46.509 46.509 0 00-.233 5.451c.277 18.086 14.894 28.577 20.141 23.983 3.363-2.949 7.808 3.051 7.808 3.051l22.242-49.047s-28.329-21.406-39.35-5.87z" fill="#2C3A64"/><path d="M329.204 287.154c-4.663 3.2-10.509 5.839-17.847 7.514-27.51 6.291-38.052-16.716-42.009-32.509 3.751-2.125 7.28-2.592 9.319-2.834a90.794 90.794 0 015.81-.472c3.09-2.34 7.693-11.922 8.709-26.799l1.296.343 21.68 5.872s-.994 6.821-1.48 13.266c-.377 5.044-.437 9.865.53 11.044 1.691.362 2.707.599 2.707.599s0 .009.011.022c.291.472 6.58 10.706 11.274 23.954z" fill="#FFB27D"/><path d="M316.193 238.2s-.996 6.814-1.48 13.266c-12.283-1.219-17.982-12.789-20.2-19.138l21.68 5.872z" fill="#ED985F"/><path d="M322.887 240.655s-28.355 6.897-32.424-10.643c-4.068-17.539-10.468-28.46 7.463-33.606 17.933-5.145 23.015.746 25.811 6.274 2.797 5.527 6.422 35.729-.85 37.975z" fill="#FFB27D"/><path d="M320.627 193.035c-5.617-4.282-8.674-2.373-10.171-.364-17.51-4.948-24.646 9.83-24.646 9.83 1 13.018-6.507 22.303-6.507 22.303s5.919 1.998 17.175-3.749c3.438-1.754 6.107-5.06 8.161-8.803-2.988 9.121-8.239 16.394-8.239 16.394 12.776-9.762 13.976-30.72 14.067-32.928 2.094 1.15 6.293 3.732 8.095 6.783 2.451 4.147 5.211 13.2 7.848 12.273 0 0 2.642-15.315-5.783-21.739z" fill="#2C3A64"/><path d="M329.205 265.392c-3.96-2.085-9.053-3.631-14.595-4.77 0 0-2.857 7.279-11.564 7.123-8.27-.151-16.454-9.204-17.25-10.106-9.479-.301-16.445-.005-16.445-.005s-19.961 30.909-17.49 38.067a124.921 124.921 0 013.909 13.911c4.643 21.085 3.175 39.45 1.992 48.049-.457 3.325-.869 5.191-.869 5.191l62.87 1.445s5.209-18.35 9.071-34.006c.118-.47.231-.94.344-1.403 2.618 5.339 10.047 13.367 13.408 13.997.202.037 1.145.059 2.502.07 5.034.042 14.772.107 14.772.107 1.873-14.751-22.478-74.16-30.655-77.67z" fill="#75A1DE"/><path d="M257.789 357.645c1.183-8.598 2.651-26.963-1.992-48.048.02-.244.029-.373.029-.373s17.199 16.259 20.172 33.261c2.027 11.606-10.356 14.631-18.209 15.16z" fill="#6791C9"/><path d="M306.346 342.486c-.355-1.122-6.063-6.878-9.153-7.585-3.09-.704-13.295 1.618-13.295 1.618-6.331-.834-20.77-3.075-37.681-7.935a240.256 240.256 0 01-9.137-2.819l25.757-22.979 22.783-45.162s-19.32-1.508-24.209 1.376c-17.596 10.377-50.193 70.942-49.574 83.486 0 0 8.257.45 23.339.639 11.587.149 27.209.14 46.207-.341 0 0 2.087-.013 4.281-.298h20.682z" fill="#FFB27D"/><path d="M262.837 302.786l-22.718 23.251c2.238.839 4.574 2.035 6.098 2.547 0 0-2.076 8.842-11.041 14.541-15.082-.189-23.339-.639-23.339-.639-.619-12.544 31.978-73.109 49.574-83.486 4.889-2.884 24.209-1.376 24.209-1.376l-22.783 45.162z" fill="#75A1DE"/><path d="M359.771 343.079c-1.358-.011-17.072-.14-17.274-.178-3.361-.63-10.791-8.658-13.408-13.996-.113.463.834-5.054 1.712-7.29 1.899-4.823 4.43-8.915 4.43-8.915 9.031-1.346 24.564 21.893 24.54 30.379z" fill="#6791C9"/><path d="M359.085 329.018c-2.003-15.008-6.278-41.006-14.688-70.929l-.051-.004c-.495-1.888-4.397-16.633-6.03-18.249-1.743-1.725-10.936-5.341-12.52-5.729 0 0-.26 1.043.692 1.868.277.239.81.61 1.453 1.029l-2.178 1.16s.818.706 2.036.529c.581-.084 1.371-.299 2.041-.501.45.274.896.536 1.3.771.685.641 1.497 1.451 1.568 1.74.082.343.38 1.853.564 2.808-.337-.296-.628-.597-.817-.887-.871-1.332-2.695-1.196-2.695-1.196s2.496 3.104 2.733 5.115c.36 3.062 2.085 4.667 2.085 4.667h.003c.634.739 1.528 1.402 2.282 2.954.555 1.135.77 3.308.923 4.56h.002c.373 4.522 1.655 21.192 1.305 33.465-.47 16.519-2.052 31.326-.175 40.513.483 2.379 1.2 4.381 2.227 5.94 4.093 6.21 18.474 4.397 18.474 4.397s.617-5.372-.534-14.021z" fill="#FFB27D"/><path d="M359.737 343.083s-14.382 1.814-18.475-4.397c-1.027-1.558-1.743-3.56-2.227-5.94 3.084.766 11.525 2.057 20.167-3.683 1.152 8.649.535 14.02.535 14.02z" fill="#75A1DE"/><path d="M98.11 99.05a93.152 93.152 0 00-5.912-.38 3.99 3.99 0 01-3.613-2.571c-.936-2.49-1.75-5.73-2.154-9.626l-.728.225-12.264 3.772s.703 3.872 1.108 7.543c.049.45.094.902.134 1.346a1.218 1.218 0 01-.883 1.272c-5.879 1.72-8.304 3.923-8.304 3.923s1.648 21.185 9.646 45.412c.77 2.334-10.982 16.305-10.982 16.305 2.862 9.074 41.894-3.896 41.894-3.896s-2.668-8.028.815-27.64c4.061-22.873-8.758-35.684-8.758-35.684z" fill="#FFB27D"/><path d="M98.2 99.06s12.287 1.481 19.248 36.111c0 0 1.892 10.04-1.891 11.231-3.784 1.191-23.362-21.338-17.356-47.341z" fill="#FFB27D"/><path d="M78.947 78.675s7.886 2.781 3.564 11.513c0 0 6.446-.098 7.804-2.111 0 0-.136.822-.366 1.243 0 0 6.047-1.596 7.945-4.188 1.9-2.593-9.038-32.393-24.592-23.988 0 0-14.395 3.204-8.109 18.917 6.286 15.714.974 17.32.974 17.32s1.7.274 2.414.059c0 0 .92-.71.95-1.341 0 0 .071.958-.108 1.323 0 0 5.9-1.196 8.102-4.204 2.201-3.007 3.266-11.466 1.422-14.543z" fill="#233862"/><path d="M73.56 90.462s.857 5.421 1.26 9.095c6.419-5.117 7.209-9.69 8.35-13.358l-9.61 4.263z" fill="#ED985F"/><path d="M83.024 86.557s3.057-6.13 3.411-11.134c.254-3.572 2.355-18.426-10.642-15.167 0 0-9.095 2.825-12.44 5.612-2.66 2.216-6.351 6.785-.51 17.64l1.613 3.705 18.568-.656z" fill="#233862"/><path d="M71.646 95.806s16.03-4.564 13.005-14.398c-3.026-9.835-2.994-17.047-13.357-14.55-10.363 2.498-11.188 6.847-10.985 10.372.203 3.526 7.089 19.509 11.337 18.576z" fill="#FFB27D"/><path d="M65.14 69.418s-2.466 3.561-2.488 6.305c-.022 2.744 1.212 8.006-.36 8.29 0 0-5.712-6.845-3.384-12.398 2.469-5.888 6.232-2.197 6.232-2.197z" fill="#233862"/><path d="M111.963 134.786s.044-12.628-2.316-14.143c-2.359-1.514-3.128 14.455 2.316 14.143z" fill="#F8A871"/><path d="M71.553 101.378s10.416 14.34 19.96 13.574c0 0 3.71-10.513.44-16.302 0 0 2.444.08 3.285.132.71.045 2.908.268 2.908.268l9.046 15.31a18.354 18.354 0 012.395 11.782l-3.497 26.035s-9.458 6.127-30.913-2.212l-6.042-20.591 2.418-27.996z" fill="#2B478B"/><path d="M107.299 119.057c.007.031-.033.169-.113.402-.018.055-.04.114-.062.178-.047.129-.102.279-.167.445-.004.018-.013.038-.02.055-1.867 4.854-10.639 24.569-19.475 29.971a5.79 5.79 0 01-1.488.968c-.062.027-.124.051-.184.075-.067.026-.136.053-.202.075a4.62 4.62 0 01-1.513.252 5.12 5.12 0 01-.368-.013c-4.58-.338-24.154-28.388-24.522-36.917-.238-5.444 6.522-10.014 6.522-10.014 6.895 3.587 13.574 14.859 18.261 24.601.97 2.016 1.853 3.969 2.634 5.774 8.91-8.373 16.005-18.205 16.005-18.205l4.692 2.353z" fill="#FFB27D"/><path d="M107.167 165.182a72.95 72.95 0 00-.867-2.781s-26.565 1.396-33.255-7.372c0-.002-.003-.004-.005-.007l-.004.005c-.08.072-1.263 1.176-2.995 3.058l-.016.017c-2.167 2.354-5.186 5.912-7.995 10.19-1.422 2.163-2.786 4.509-3.957 6.977 1.078.386 2.172.753 3.279 1.104a104.695 104.695 0 0012.265 3.078c4.89.922 10.018 1.543 15.382 1.828 1.293.07 5.925.182 6.87.182 5.018 0 9.979-.239 14.832-.72a130.447 130.447 0 00-3.534-15.559z" fill="#75A1DE"/><path d="M86.51 134.909c-4.395 6.063-12.667-5.712-12.95-6.149l2.127-1.787s4.762.585 8.19 2.162c.97 2.017 1.852 3.969 2.634 5.774z" fill="#ED985F"/><path d="M67.751 90.878s1.729-1.638 5.556-1.942c0 0-.056 1.618-2.222 2.395-2.147.77-3.334-.453-3.334-.453z" fill="#FFE8DC"/><path d="M73.187 61.445l-9.03 8.194s6.841 11.138 16.492 12.449c0 0-4.96-2.245-9.138-6.116 2.608 1.79 5.497 3.161 8.132 3.044 2.156.103 5.334 8.689-.681 10.846 0 0 8.008.835 10.834-2.111 0 0-.133.823-.364 1.244 0 0 6.046-1.597 7.944-4.19 1.899-2.59-8.637-31.765-24.19-23.36z" fill="#233862"/><path d="M71.747 101.387s-10.866 3.682-13.252 8.213c-2.386 4.531 1.708 16.209 6.626 22.08 0 0 12.184-.128 17.901-8.892 0 0-9.051-19.447-11.275-21.401zM98.17 99.06s7.279.46 12.017 10.67c0 0 .267 7.062-5.322 7.232-5.59.171-6.694-17.901-6.694-17.901z" fill="#2B478B"/><path d="M108.728 131.868a804.822 804.822 0 01-14.254-4.031c-12.358-3.617-20.866-6.412-20.866-6.412l-.027.035.027-.034s-2.997-2.813-3.176-4.153c-.16-1.21-3.32-1.839-5.455-2.469-.289-.085-.545.207-.417.477.238.503 1.096 1.314 1.956 1.595 1.51.493-1.527 1.467-3.896.185-1.466-.793-4.018-3.438-4.814-2.463-.795.974.111 6.032 2.136 8.169 1.348 1.423 8.045 1.447 10.49 2.809 19.492 8.934 33.597 25.063 45.202 20.847 0 0 2.533-11.982-6.906-14.555z" fill="#FFB27D"/><path d="M94.531 127.776l-4.377 4.02s-17.141-8.712-16.581-10.313a.26.26 0 01.092-.12s8.508 2.796 20.866 6.413z" fill="#F8A871"/><path d="M102.596 116.668s1.447-3.827 1.014-5.109c-.417-1.236 2.668-2.996 4.276-4.492.077-.071.203-.022.21.081.028.404-.036 1.24-.858 2.033-1.14 1.099.418 1.339 1.463.05 1.046-1.29-1.146-3.927 0-3.396 1.147.531 4.784 3.576 4.399 5.488-.385 1.912-4.217 5.414-5.812 7.699l-4.692-2.354z" fill="#FFB27D"/><path d="M69.964 158.097s13.033 12.485 37.142 7.08l-1.278-4.622s-20.721 5.616-31.974-6.901l-3.89 4.443z" fill="#6791C9"/><path d="M113.968 82.598s5.964-4.723 9.379-.705c3.414 4.017-11.701 9.683-11.701 9.683s-6.64-12.014-2.964-13.04c3.676-1.025 5.286 4.062 5.286 4.062zM49.967 55.524s.791-4.376 3.874-3.906c3.083.47-1.389 8.769-1.389 8.769s-7.64-2.773-6.414-4.636c1.226-1.861 3.929-.227 3.929-.227zm1.067 39.493s-1.107-4.917 2.324-5.76c3.43-.843 2.423 9.767 2.423 9.767s-9.21.408-8.753-2.069c.458-2.477 4.006-1.938 4.006-1.938z" fill="#75A1DE"/><path d="M107.305 119.037c.007.031-.033.169-.113.402-.018.055-.04.114-.062.178a28.29 28.29 0 01-.166.445c-.005.018-.014.038-.02.055-1.966 5.154-11.642 27.032-20.964 30.939-.062.027-.124.051-.184.075-.067.026-.135.053-.202.074-.029.014-.058.022-.086.031a4.62 4.62 0 01-1.427.222c-3.34-2.77 23.224-32.421 23.224-32.421z" fill="#ED985F"/><path d="M96.61 299.919c-1.296-2.309-2.192-4.317-1.917-5.606l.002-.007c.042-.202.098-.592.166-1.128.26-1.989.721-5.949 1.491-9.435.1-.463.209-.918.322-1.357v-.002c.07-.283.146-.557.224-.827.206-.72.333-1.423.386-2.11.375-4.52-2.263-8.302-4.943-10.486a12.85 12.85 0 00-1.056-.782c-1.018-.674-1.983-1.095-2.726-1.212-.697-.603-1.622-3.031-2.374-5.308a91.244 91.244 0 01-1.27-4.188v-.002l-.058-.211-.198.123-.814.509c0 .002-.002.002-.002.002l-2.001 1.254-3.104 1.945c0 .006.003.015.005.022a9.768 9.768 0 01.293 1.512c.068.532.11 1.083.133 1.629v.007c.017.406.024.81.024 1.198a1.516 1.516 0 01-1.595 1.506l-.055-.002h-.003c-1.73-.077-3.649-.099-4.647.002-1.886.191-3.924.474-6.185.674a.833.833 0 00-.046.004c-2.547.224-5.378.341-8.592.097l.41-18.821s1.958-1.908 2.075-2.931c.116-1.025.19-5.402-.64-5.852-.37-.2-.463 3.154-.74 3.332-.838.538-4.072.814-3.755 4.114-1.113 3.839-6.529 22.996-4.267 24.213l.006.002.007.004s.003 0 .003.002a20.363 20.363 0 002.449 1.458 18.751 18.751 0 001.027.496c.144.068.288.132.437.196.201.09.406.175.612.259.129.052.257.105.386.155.297.119.597.231.9.338.085.033.17.064.256.093.029.013.057.022.088.033a12.298 12.298 0 00.302.103c.175.059.35.116.526.173.175.057.353.112.528.167a34.717 34.717 0 001.464.421l.22.06a51.384 51.384 0 001.675.408c.133.031.266.059.397.088.017.004.033.009.05.011.171.037.342.072.51.107.183.038.362.075.544.11a42.4 42.4 0 001.283.237 72.327 72.327 0 001.783.283c.206.031.413.06.617.086.197.029.392.053.585.077.287.037.57.07.852.103h.002c.125.015.247.031.369.042.164.019.326.037.486.052l.326.033a8.073 8.073 0 00-.238.714 7.71 7.71 0 00-.168.696c-.002.004-.002.008-.002.013a6.279 6.279 0 00-.09 1.864c.626 5.744 5.247 13.1 6.64 17.915.178.608.302 1.176.36 1.694.11.986.113 2.239.044 3.598 3.445.417 7.035.641 10.766.654.122.003.244.003.368.003 2.09 0 4.164-.055 6.22-.165h.003c1.77-.097 3.522-.233 5.257-.411-.834-1.394-1.675-2.766-2.394-4.048z" fill="#FFB27D"/><path d="M81.756 252.207s4.782 1.686 2.162 6.981c0 0 3.908-.059 4.731-1.28 0 0-.082.498-.222.753 0 0 3.666-.968 4.818-2.54 1.15-1.572-5.48-19.64-14.911-14.543 0 0-8.728 1.943-4.916 11.47 3.81 9.527.59 10.502.59 10.502s1.03.164 1.463.035c0 0 .559-.43.577-.815 0 0 .043.582-.066.804 0 0 3.577-.727 4.912-2.549 1.335-1.824 1.98-6.952.862-8.818z" fill="#233862"/><path d="M78.537 259.383s.52 3.287.764 5.515c4.5-1.425 4.918-5.444 5.61-7.668l-6.374 2.153z" fill="#ED985F"/><path d="M84.088 257.038s1.853-3.717 2.068-6.75c.153-2.167 1.428-11.172-6.453-9.196 0 0-5.514 1.712-7.542 3.403-1.613 1.343-3.851 4.113-.31 10.695l.979 2.245 11.258-.397z" fill="#233862"/><path d="M77.406 262.633s9.719-2.768 7.885-8.73c-1.834-5.962-1.815-10.335-8.099-8.823-6.283 1.515-6.783 4.154-6.66 6.29.123 2.138 4.298 11.829 6.874 11.263z" fill="#FFB27D"/><path d="M75.245 245.669s-3.212 3.164-3.226 4.827c-.013 1.662.735 4.854-.218 5.025 0 0-3.463-4.149-2.051-7.516 1.497-3.569 5.495-2.336 5.495-2.336z" fill="#233862"/><path d="M78.513 241.578s-.093.02-.255.068c.298.656-4.976 5.28-4.976 5.28s4.148 6.752 10 7.549c0 0-3.008-1.363-5.542-3.712 1.582 1.086 3.334 1.918 4.932 1.848 1.307.064 3.233 5.269-.413 6.577 0 0 4.855.505 6.569-1.28 0 0-.081.498-.221.753 0 0 3.666-.968 4.817-2.54 1.15-1.572-5.481-19.64-14.91-14.543z" fill="#233862"/><path d="M72.399 277.538c-5.631-.377-13.483-1.479-19.237-4.579-1.143-.698-1.894-1.159-2-1.222 0-.003-.003-.003-.003-.003.002-.002.005 0 .01.003.113.043.71.274 1.65.586 3.666 1.214 12.536 3.648 18.08.904 3.934-1.947 3.064 1.142 1.5 4.311zm26.747 26.335a110.98 110.98 0 01-5.258.41h-.002c-2.056.11-4.13.165-6.22.165-.124 0-.246 0-.368-.002a57.457 57.457 0 01-2.84-6.711 38.603 38.603 0 01-.668-2.053c3.288-1.639 6.56-2.432 9.67-2.579a22.8 22.8 0 011.544-.02c-.068.536-.124.927-.166 1.129l-.002.006c-.275 1.289.62 3.297 1.916 5.607.72 1.282 1.56 2.654 2.394 4.048z" fill="#ED985F"/><path d="M97.727 274.206c-2.7-4.739-9.153-7.266-9.153-7.266-2.014 6.349-10.65 9.852-10.65 9.852-2.474-3.964-.365-9.85-.363-9.854 0 0-3.286-.825-6.614-.116-3.327.707-4.27.794-4.27.794s-.55 8.351 2.991 10.491a8.13 8.13 0 00-.34 1.186c-.938 4.768 4.711 19.214 4.711 19.214 12.191.661 20.67-4.221 20.67-4.221s3.009-8.074 3.63-14.317c.236-2.36.13-4.461-.612-5.763z" fill="#2B478B"/><path d="M64.986 244.127l9.999-28.45 6.306 7.864 10.486-19.946-10.038 30.208-6.67-8.094-10.083 18.418zm-19.451 10.954l-11.33-15.646 6.472-.362-6.663-12.765 12.244 16.313-6.728.465 6.005 11.995zm56.231 3.921l11.997-15.149 2.167 6.046 10.512-9.909-12.389 16.205-2.338-6.261-9.949 9.068z" fill="#75A1DE"/><path d="M98.331 279.99c-.621 6.243-3.63 14.317-3.63 14.317-4.587-1.453-.084-15.033-.084-15.033 1.974-.053 2.65-.006 3.714.716z" fill="#2C3A64"/><path d="M110.499 290.703h.001c-5.729-14.917-15.064-23.017-15.064-23.017-5.073-1.051-6.561 2.281-7.766 7.137-.313 1.264 10.602 10.28 15.156 15.228l-6.304 9.81-2.864 4.459c1.77-.097 3.522-.233 5.257-.411.189-.02.377-.039.563-.061 5.203-5.311 11.875-12.427 11.021-13.145z" fill="#FFB27D"/><path d="M88.463 266.926s4.45-.575 6.831.804c2.38 1.378 7.657 7.641 7.657 7.641s-3.393 8.116-9.606 7.411c0 0-9.561-9.507-7.26-11.792 2.3-2.283 2.378-4.064 2.378-4.064zM270.45 56.782s-11.546 1.657-15.011 5.567c-3.463 3.91-5.444 12.964-1.979 18.23 3.463 5.268 16.99-23.797 16.99-23.797z" fill="#2B478B"/><path d="M286.502 42.005s-1.546 6.523 4.553 19.132L273.998 78.43l-1.331-16.044s2.22-8.986 1.395-14.662l12.44-5.72z" fill="#ED985F"/><path d="M279.817 32.514s9.078 3.141 4.173 13.197c0 0 7.403-.155 8.949-2.476 0 0-.151.945-.413 1.43 0 0 6.933-1.873 9.095-4.863 2.163-2.99-10.601-37.14-28.406-27.382 0 0-16.509 3.776-9.182 21.78 7.328 18.002 1.238 19.883 1.238 19.883s1.952.303 2.771.05c0 0 1.054-.82 1.083-1.546 0 0 .088 1.1-.116 1.521 0 0 6.768-1.414 9.275-4.883 2.507-3.468 3.672-13.19 1.533-16.71z" fill="#233862"/><path d="M273.773 44.507s.165 6.3.074 10.543c8.804-1.589 10.581-9.036 12.431-13.045l-12.505 2.502z" fill="#DB8952"/><path d="M283.251 42.016s4.173-6.677 5.131-12.359c.686-4.056 4.732-20.81-10.486-18.492 0 0-10.71 2.243-14.843 5.067-3.285 2.245-8.013 7.07-2.536 20.112l1.433 4.41 21.301 1.262z" fill="#233862"/><path d="M272.669 52.773s17.982-6.532 13.701-17.551c-4.284-11.02-4.848-19.284-16.51-15.58-11.664 3.705-12.247 8.754-11.721 12.776.525 4.022 9.743 21.77 14.53 20.355z" fill="#ED985F"/><path d="M264.113 21.954s-2.809 4.107-2.815 7.258c-.007 3.152 1.446 9.186-.358 9.523 0 0-6.604-7.822-3.968-14.215 2.793-6.779 7.141-2.566 7.141-2.566z" fill="#233862"/><path d="M298.21 125.943c-3.498-.194-7.178-.654-11.036-1.402-9.566-1.852-18.812-2.386-27.539-2.373.033-.468.056-.912.062-1.335.076-4.201-1.872-10.359-3.9-16.983h42.631c-1.416 4.952-2.412 9.125-2.793 10.203-.89 2.502.508 6.86 2.575 11.89z" fill="#FFB27D"/><path d="M295.653 114.018s-.133.062-.392.167c-2.503 1.041-16.818 6.405-37.424 2.608 0 0-7.325-27.413-4.386-36.142 2.915-8.661 16.542-21.942 16.755-22.147-.124.242-5.377 10.641-1.754 18.592 0 0 15.433-8.467 20.781-19.903 0 0 11.962 9.353 16.454 18.51.217.445.422.89.601 1.333 3.898 9.555-10.635 36.982-10.635 36.982z" fill="#2B478B"/><path d="M295.606 113.979s-.133.062-.392.167c-5.564-7.466-.595-30.66-.595-30.66s5.843-6.805 11.021-7.822c.217.445.421.89.601 1.333 3.898 9.555-10.635 36.982-10.635 36.982z" fill="#2C3A64"/><path d="M268.238 51.698s-.02 1.313-.093 3.51v.005c-.006.197-.013.401-.022.612-.375 11.11-1.919 41.083-7.707 44.784-.474.303-.98.431-1.515.356l-.253-.04a10.88 10.88 0 01-2.083-.524l-.124-.046s-.002 0-.002-.003c-5.382-1.982-8.505-7.828-6.819-13.52l13.572-36.282c.244-.92.388-2.75-1.189-5.047-1.114-1.62-1.136-4.528-1.496-6.453-.359-1.928-.046-2.518.455-1.693.504.823 1.309 3.585 1.664 3.4.355-.184-.91-9.079.881-9.013 1.788.066 4.72 10.001 4.669 13.033-.051 3.031.062 6.921.062 6.921z" fill="#FFB27D"/><path d="M268.199 55.824c-.375 11.11-1.919 41.083-7.707 44.784-.474.303-.98.431-1.515.356a28.67 28.67 0 00-.253-.039 10.955 10.955 0 01-2.083-.525l-.124-.046s-.002 0-.002-.002c-5.75-5.662 9.769-40.32 11.684-44.528z" fill="#ED985F"/><path d="M295.985 60.116c-1.936-.252-10.217 12.32-17.498 22.12v.001l-3.576-32.736-.206-.333.031.003s.61-5.41 2.005-7.001c1.393-1.592.878-4.59 1.091-6.538.216-1.948-.264-2.525-.803-1.674s-1.222 3.657-1.701 3.49c-.481-.169 0-9.141-2.292-8.986-2.293.154-4.789 10.25-4.332 13.285.386 2.566.696 5.752.785 6.675-2.535 13.919-8.141 48.009-3.057 52.26.32.268.684.496.885.496 17.133.186 31.688-15.246 38.218-23.47 2.37-2.983 3.687-5.017 3.687-5.017.945-9.67-3.749-11.338-13.237-12.575z" fill="#FFB27D"/><path d="M305.355 77.754c-6.531 8.224-21.086 23.655-38.218 23.469a5.32 5.32 0 00.645-.049c3.255-.388 7.529-3.016 11.884-6.46 9.725-7.692 19.841-19.46 19.841-19.46l5.848 2.5z" fill="#ED985F"/><path d="M289.259 57.193s15.435.894 18.57 5.71c3.578 5.5 3.662 10.91.583 21.066 0 0-19.153-3.784-18.481-17.639l-.672-9.137z" fill="#2B478B"/><path d="M256.794 46.102c-.787.646-.967 1.78-.35 2.134.663.38 1.02-.472 1.226-1.535.171-.886.894-1.549.894-1.549s-.993.314-1.77.95zm-11.473 7.276c.628.437 1.058-.383 1.358-1.424.248-.867 1.027-1.466 1.027-1.466s-1.016.228-1.846.794c-.843.576-1.122 1.69-.539 2.096zm6.395 5.916c-.566.845-.406 1.982.289 2.143.747.174.838-.745.725-1.821-.095-.897.401-1.739.401-1.739s-.858.585-1.415 1.416zm-8.232 2.11c-.613.813-.515 1.957.17 2.156.737.213.879-.7.823-1.78-.044-.9.497-1.714.497-1.714s-.887.538-1.49 1.337zm49.102-12.474c-.881-.563-1.945-.768-1.945-.768s.827.599 1.115 1.493c.344 1.073.817 1.913 1.456 1.44.594-.44.27-1.592-.626-2.164zm11.675 4.072c-.927-.485-2.005-.598-2.005-.598s.878.525 1.242 1.392c.437 1.04.983 1.835 1.577 1.308.555-.49.129-1.608-.814-2.102zm-6.706 7.611s.617.81.63 1.749c.016 1.126.222 2.065.972 1.795.699-.25.723-1.445.035-2.25-.678-.792-1.637-1.294-1.637-1.294zm10.555 2.572c-.721-.754-1.706-1.203-1.706-1.203s.661.776.725 1.712c.078 1.124.337 2.05 1.072 1.74.683-.288.643-1.482-.091-2.249z" fill="#699DEE"/><path d="M273.307 12.42s-7.345 5.095-10.872 8.837c0 0 .363.428 1.009 1.121l.015.23s7.933 12.745 19.027 14.185c0 0-5.712-2.544-10.537-6.962 3.008 2.038 6.336 3.594 9.359 3.442 2.478.104 6.185 9.942-.707 12.46 0 0 9.204.905 12.427-2.498 0 0-.146.947-.408 1.432 0 0 6.932-1.875 9.093-4.866 2.163-2.988-10.604-37.138-28.406-27.381z" fill="#233862"/><path d="M417.909 187.895c-.916.345-4.055 6.052-7.432 11.955l1.984-24.027s1.311-2.649 1.306-3.859c-.004-1.21 1.62-10.755.801-11.045-.819-.291-5.082 4.252-5.508 6.309-.253 1.232.31 7.026.31 7.026-.911 2.127-11.988 28.12-13.478 39.83-.433 3.385-.063 5.58 1.588 5.654.417.018.834.014 1.258-.008 1.69-.099 3.394-.516 4.92-1.03.013-.007.029-.011.044-.015a23.763 23.763 0 004.666-2.064c.033-.02.068-.037.102-.057.423-.233.661-.38.661-.38l.002-.017c4.805-2.948 8.692-7.293 11.425-10.998 2.923-3.962 4.53-7.192 4.53-7.192 2.664-9.371-4.144-11.226-7.179-10.082z" fill="#FFB27D"/><path d="M426.933 167.016s7.389 1.299 4.878 9.653c0 0 5.685-1.033 6.584-3.012 0 0 .002.747-.138 1.153 0 0 5.107-2.3 6.396-4.871 1.289-2.571-12.851-27.309-25.341-17.592 0 0-12.245 4.947-4.33 17.915 7.915 12.967 3.461 15.168 3.461 15.168s1.544-.006 2.141-.303c0 0 .707-.762.641-1.325 0 0 .206.838.102 1.187 0 0 5.035-1.925 6.531-4.908 1.495-2.982 1.166-10.617-.925-13.065z" fill="#233862"/><path d="M442.436 182.851c.437 3.645.402 9.356-3.858 10.45-2.671.685-4.585 1.782-6.113 2.52-2.11 1.021-3.49 1.363-5.134-.975-2.833-4.035-1.748-9.679-1.748-9.679l.561-.186c-1.304-2.553-2.548-5.216-3.041-6.962l9.583-4.888.899-.458s.883 1.062 2.398 2.5c1.979 1.883 5.042 4.408 8.609 6.029l-2.156 1.649z" fill="#FFB27D"/><path d="M434.184 194.519l-1.719 1.253c-2.11 1.021-3.49 1.363-5.134-.974-2.833-4.035-1.748-9.679-1.748-9.679l.561-.187c-1.304-2.553-2.548-5.216-3.041-6.962l9.583-4.887a51.905 51.905 0 003.042 2.979c.918 4.363 1.786 12.086-1.544 18.457z" fill="#ED985F"/><path d="M431.426 173.307s1.783-5.868 1.344-10.344c-.31-3.195-.683-16.636-11.684-11.845 0 0-7.616 3.833-10.156 6.789-2.018 2.35-4.596 6.932 2.197 15.67l1.983 3.039 16.316-3.309z" fill="#233862"/><path d="M426.969 180.693c-2.159 1.564-4.06 2.466-4.06 2.466-3.616 1.447-12.101-11.668-12.811-14.757-.708-3.086-.63-7.053 8.157-10.784 6.187-2.627 8.541-.239 10.841 4.286.965 1.899 1.921 4.177 3.15 6.616 2.591 5.15-1.693 9.576-5.277 12.173z" fill="#FFB27D"/><path d="M427.537 180.17c.727-6.264-8.029-16.676-8.029-16.676s5.162-.889 9.51-1.631c.965 1.898 1.922 4.177 3.151 6.615 2.591 5.15-1.048 9.095-4.632 11.692z" fill="#ED985F"/><path d="M413.235 160.744s-1.646 3.511-1.254 5.94c.393 2.429 2.274 6.9.926 7.382 0 0-6.077-5.212-4.85-10.464 1.298-5.568 5.178-2.858 5.178-2.858z" fill="#233862"/><path d="M412.042 160.426s.334.285.92.74l.04.175s7.72 8.841 16.449 8.582c0 0-4.72-1.256-8.995-4.065 2.573 1.2 5.333 1.988 7.644 1.497 1.924-.225 6.021 6.898 1.025 9.688 0 0 7.205-.438 9.262-3.458 0 0 .006.748-.133 1.154 0 0 5.104-2.301 6.393-4.872 1.289-2.569-19.57-24.566-32.605-9.441z" fill="#233862"/><path d="M420.587 205.266c-2.733 3.705-6.619 8.049-11.424 10.997l-.002.018s-.238.147-.661.38c-.034.02-.069.037-.103.057a23.666 23.666 0 01-4.665 2.063c-.015.005-.031.009-.044.016-1.526.513-3.23.931-4.92 1.029 1.426-.259 2.799-.799 4.108-1.528 2.445-1.358 4.665-3.387 6.575-5.542 4.293-4.852 7.015-10.357 7.168-10.392l3.968 2.902z" fill="#ED985F"/><path d="M460.828 186.782c.003 0 0-.005 0-.005a47.76 47.76 0 00-1.206-2.173c-1.76-2.969-3.554-5.139-5.316-6.118-.002-.002-.006-.002-.009-.004-.002 0-.004 0-.004-.003-.972-.534-2.722-.583-4.945-.298h-.006c-2.114.269-4.659.837-7.381 1.574l-.007.002h.012s-1.711 6.059-4.384 10.157c-.763 1.175-1.608 2.189-2.518 2.85-.672.494-1.382.792-2.114.821-1.863.068-3.465-.398-4.678-1.252-1.851-1.295-2.798-3.494-2.39-6.071l.003-.011.306-1.267.002-.007v-.004l.007-.022v-.002l-.007.002c-.249.064-8.778 2.274-10.386 4.577-1.631 2.336-4.042 7.712-4.042 7.712s3.724 10.036 9.747 11.452l.002.031c.282 2.941 2.669 7.055 5.717 11.07a77.505 77.505 0 003.727 4.518c9.126-.736 18.732-2.16 27.805-4.518 4.25-1.104 8.385-2.412 12.299-3.951-2.605-10.315-6.285-21.522-10.234-29.06z" fill="#2B478B"/><path d="M450.637 178.643c-1.267.503-6.207 10.371-10.845 18.664l-9.349-29.853s-.044-5.385-.883-6.659c-.836-1.274-3.926-4.013-5.084-3.695-1.16.319.386 2.858.643 4.36.258 1.501.386 2.225.258 2.293-.129.068-.95-2.576-1.327-2.448-.379.127.264 3.375.521 4.013.244.602 2.134 1.708 2.394 2.881.18 7.742 1.524 53.804 8.159 51.677a.646.646 0 00.144-.07c.411-.2.817-.402 1.214-.61l.015-.007c.005-.004.011-.009.018-.011 14.233-7.459 19.837-20.433 21.66-25.984.539-1.651.745-2.646.745-2.646 2.975-11.131-4.822-13.284-8.283-11.905z" fill="#FFB27D"/><path d="M430.027 110.669c-1.832-1.536-4.119-2.304-6.852-2.304-1.748 0-3.412.398-4.992 1.193-1.579.797-2.806 1.919-3.678 3.37-.539.892-.805 1.785-.805 2.68 0 .696.218 1.275.657 1.736.435.461.994.69 1.67.69.79 0 1.48-.403 2.072-1.213l1.691-2.262c.818-.808 1.905-1.213 3.258-1.213 1.156 0 2.121.314 2.898.942.774.627 1.164 1.513 1.164 2.657 0 1.314-.41 2.331-1.229 3.056-.59.53-1.606 1.02-3.046 1.465-1.069.336-1.783.677-2.134 1.026-.352.349-.528.873-.528 1.569v4.187c0 .837.224 1.534.675 2.092.452.559 1.087.837 1.905.837 1.325 0 2.157-.641 2.494-1.925.113-.445.168-1.591.168-3.432 2.314-.446 4.14-1.429 5.48-2.952 1.34-1.52 2.01-3.439 2.01-5.753 0-2.651-.959-4.802-2.878-6.446zm-5.075 24.212c-.564-.572-1.269-.857-2.117-.857-.845 0-1.564.285-2.156.857-.592.572-.889 1.278-.889 2.115 0 .81.304 1.506.911 2.092.606.585 1.316.879 2.134.879.848 0 1.553-.287 2.117-.857.563-.572.847-1.278.847-2.114 0-.837-.284-1.543-.847-2.115zm26.618-12.984c-.805-1.554-2.136-2.713-3.993-3.479a8.05 8.05 0 00-3.729-.588c-1.298.098-2.451.519-3.46 1.258-.617.456-1.056.988-1.312 1.594-.199.474-.215.926-.051 1.362.167.434.477.745.939.935.534.222 1.12.14 1.752-.243l1.795-1.062c.785-.318 1.637-.289 2.558.089.785.323 1.349.806 1.695 1.449.348.644.357 1.354.031 2.13-.375.891-.943 1.467-1.706 1.73-.555.196-1.382.243-2.487.142-.823-.071-1.402-.04-1.741.098-.34.138-.608.446-.806.917l-1.198 2.843c-.239.567-.286 1.104-.139 1.609.146.505.497.873 1.053 1.1.899.371 1.646.169 2.245-.608.202-.272.568-1.033 1.096-2.282 1.695.345 3.217.187 4.559-.469 1.344-.657 2.347-1.772 3.008-3.343.759-1.801.721-3.526-.109-5.182zm-10.364 15.015c-.222-.547-.617-.939-1.191-1.175a2.215 2.215 0 00-1.708-.022 2.097 2.097 0 00-1.207 1.186c-.231.55-.226 1.109.018 1.676.244.568.643.964 1.2 1.193.572.238 1.133.24 1.679.011.546-.231.938-.629 1.178-1.199.24-.568.249-1.125.031-1.67zm-37.249-10.061c-1.204-1.542-2.737-2.366-4.601-2.471-1.763-.077-3.44.49-5.033 1.708a7.921 7.921 0 00-2.363 2.913c-.556 1.164-.76 2.364-.61 3.597.094.759.344 1.396.748 1.917.317.405.708.645 1.171.719.462.073.892-.041 1.287-.341.457-.352.677-.895.654-1.629l-.042-2.068c.109-.835.557-1.552 1.344-2.155.673-.514 1.376-.759 2.115-.739.734.02 1.362.363 1.881 1.028.597.764.823 1.539.676 2.324-.104.572-.472 1.309-1.107 2.206-.472.672-.732 1.189-.778 1.547-.047.361.089.743.404 1.149l1.901 2.437c.381.487.829.792 1.346.917.515.124 1.012.004 1.486-.361.772-.59.966-1.333.577-2.23-.135-.309-.621-.999-1.459-2.072 1.142-1.287 1.759-2.671 1.85-4.154.086-1.48-.395-2.893-1.447-4.242zm4.894 14.731c-.379-.488-.863-.773-1.453-.855-.586-.08-1.127.064-1.619.44a2.163 2.163 0 00-.866 1.461c-.086.596.063 1.137.444 1.624.368.47.861.742 1.48.813.619.071 1.164-.074 1.641-.439.493-.376.772-.854.841-1.44.069-.583-.089-1.117-.468-1.604z" fill="#75A1DE"/><path d="M458.313 193.196c-1.823 5.552-7.427 18.526-21.66 25.985 7.72-4.281 14.659-25.653 14.659-25.653l7.001-.332z" fill="#ED985F"/><path d="M448.891 178.262s7.997-2.63 10.919 3.868c2.921 6.497-.298 17.392-.298 17.392s-14.046-.764-16.222-10.893l5.601-10.367z" fill="#2B478B"/><path d="M458.698 219.74c-9.073 2.358-18.678 3.783-27.805 4.518-5.421.437-10.677.63-15.55.63-10.493 0-19.573-1.866-27.36-5.148h9.715c.15.002.297.002.448 0h60.552z" fill="#75A1DE"/><path d="M467.791 335.309s-11.698-13.505-.721-22.082c0 0 8.017-4.803 14.555-4.412 0 0-9.264 15.368-6.267 16.899 2.997 1.527 9.075-17.865 9.075-17.865s18.244-1.75 24.114 1.043c0 0-15.598 12.629-12.312 13.382 3.283.75 20.129-11.646 20.129-11.646s16.982 2.861 16.077 13.11c-.905 10.251-6.757 13.415-9.329 13.142-2.571-.272-17.613-5.953-17.942-3.87-.328 2.086 8.727 8.9 15.067 9.22 0 0-11.97 13.064-19.927 9.292-7.955-3.769-8.636-9.746-13.594-11.987-4.961-2.242-9.195-2.237-7.146.05 2.048 2.285 11.023 4.507 13.859 9.472 2.837 4.966 5.381 8.313-2.851 7.089-8.23-1.228-21.611-7.188-22.199-14.012l-.588-6.825z" fill="#82B378"/><path d="M524.241 324.08s-46.12-1.759-56.307 11.294c0 0-2.251 6.675-9.184 12.754l-1.08 2.913s7.993-8.337 10.852-8.842c0 0-4.472-16.17 55.719-18.119z" fill="#82B378"/><path d="M460.451 348.074c-.4.432-.992 1.014-1.837 1.791a13.158 13.158 0 00-.85.856c-1.644 1.807-3.05 4.252-4.206 6.752-.228.494-.45.993-.656 1.487h-2.698c.229-.514.466-1.008.714-1.487 3.139-6.067 7.607-9.338 7.607-9.338s.002-.002.005-.002c.168-.103 4.157-2.487 1.921-.059z" fill="#82B378"/><path d="M435.495 318.045s18.607-10.311 9.922-24.305c0 0-6.945-8.592-14.388-10.8 0 0 3.969 20.867 0 21.357-3.971.492-2.729-23.568-2.729-23.568s-19.599-9.329-27.29-8.592c0 0 12.157 20.376 8.186 19.886-3.969-.491-17.614-21.113-17.614-21.113s-20.096-3.683-23.322 8.1c-3.225 11.784 1.986 17.678 4.963 18.414 2.977.737 22.079.491 21.584 2.946-.496 2.454-13.396 6.383-20.593 4.173 0 0 7.94 19.394 18.36 18.413 10.419-.981 13.645-7.365 20.096-7.857 6.451-.489 11.165 1.227 7.939 2.946-3.225 1.719-14.142.564-19.353 4.946-5.208 4.384-9.426 7.084.249 9.049 9.676 1.964 27.042.735 30.516-6.63l3.474-7.365z" fill="#A8D29F"/><path d="M377.474 282.68s52.101 16.694 58.055 35.351c0 0-.249 8.348 4.962 17.922v3.683s-5.459-12.521-8.436-14.24c0 0 11.662-16.203-54.581-42.716z" fill="#82B378"/><path d="M445.14 357.467c-.063.492-.138.986-.227 1.486h-2.708c.031-.459.062-.957.086-1.486.246-4.981.195-12.813-1.952-18.194-.009-.024-.018-.048-.029-.07a14.822 14.822 0 00-.594-1.304l-.016-.031c-.61-1.185-1.025-2.061-1.289-2.697 0 0 0-.003-.002-.005-1.491-3.618 1.959.643 2.112.834a.022.022 0 00.004.007s6.174 9.272 4.615 21.46z" fill="#82B378"/><path d="M458.033 296.96s-24.528-13.591-13.082-32.037c0 0 9.158-11.327 18.967-14.24 0 0-5.231 27.508 0 28.155 5.233.648 3.599-31.068 3.599-31.068s25.835-12.298 35.973-11.327c0 0-16.024 26.86-10.793 26.215 5.233-.648 23.22-27.833 23.22-27.833s26.489-4.854 30.742 10.679c4.25 15.533-2.615 23.302-6.542 24.273-3.924.97-29.105.647-28.45 3.883.654 3.236 17.66 8.414 27.143 5.501 0 0-10.466 25.565-24.2 24.272-13.736-1.295-17.989-9.709-26.492-10.357-8.5-.647-14.714 1.618-10.464 3.884 4.251 2.265 18.641.742 25.509 6.519 6.869 5.778 12.428 9.339-.328 11.927-12.753 2.59-35.647.972-40.223-8.737l-4.579-9.709z" fill="#A8D29F"/><path d="M534.377 250.389s-68.676 22.005-76.524 46.6c0 0 .326 11.004-6.542 23.624v4.854s7.196-16.504 11.12-18.769c0 0-15.371-21.359 71.946-56.309z" fill="#82B378"/><path d="M451.363 320.591s-10.591 15.915-4.553 35.288l2.725-.725s-2.645-21.337 2.897-32.069c5.539-10.733-1.069-2.494-1.069-2.494z" fill="#82B378"/><path d="M497.526 365H110.381c-1.342 0-2.629-.428-3.578-1.189-.949-.762-1.482-1.795-1.482-2.872s.533-2.11 1.482-2.872c.949-.761 2.236-1.189 3.578-1.189h387.145c1.342 0 2.629.428 3.578 1.189.949.762 1.482 1.795 1.482 2.872s-.533 2.11-1.482 2.872c-.949.761-2.236 1.189-3.578 1.189z" fill="#2E5B9A"/></svg>