<svg width="158" height="120" fill="none" xmlns="http://www.w3.org/2000/svg"><path d="M107.084 95.178c-7.037 3.87-12.356 8.013-16.965 11.601l-1.123.874c-4.923 3.821-8.966 6.787-13.729 8.405-9.58 3.193-22.812 1.13-34.63-6.703-11.733-7.776-22.123-21.246-29.996-42.8C6.716 55.744 3.457 43.04 2.677 31.82c-.39-5.61-.152-10.747.872-15.049 1.023-4.3 2.79-7.61 5.342-9.804 2.574-2.204 6.222-3.529 10.923-4.113 4.695-.584 10.225-.403 16.347.219 6.113.62 12.691 1.665 19.48 2.761l1.046.17C63.12 7.043 69.719 8.11 76.148 8.857c6.786.801 13.361 1.241 19.597 1.617l2.804.166c5.219.309 10.164.601 14.841 1.059 11.057 1.082 20.111 3.055 26.933 7.937l.008.005c6.839 4.857 11.731 12.835 13.895 21.502 2.166 8.674 1.523 17.726-2.293 24.692-3.825 6.96-11.046 12.218-19.517 16.826-4.207 2.289-8.623 4.367-12.969 6.407l-.202.094c-4.247 1.994-8.44 3.963-12.162 6.015zm0 0h.002l1.204 2.19-1.207-2.189h.001z" fill="#fff" stroke="#EAEEF9" stroke-width="5"/><g clip-path="url(#clip0)" fill="#9CD499"><path d="M60.5 18a2.5 2.5 0 00-2.5 2.5v5h5v-5a2.5 2.5 0 00-2.5-2.5zm35 0a2.5 2.5 0 00-2.5 2.5v5h5v-5a2.5 2.5 0 00-2.5-2.5zm10 7.5H98v10a2.5 2.5 0 01-5 0v-10H63v10a2.5 2.5 0 11-5 0v-10h-7.5A7.5 7.5 0 0043 33v47.5a7.5 7.5 0 007.5 7.5h55a7.5 7.5 0 007.5-7.5V33a7.5 7.5 0 00-7.5-7.5zm2.5 55a2.5 2.5 0 01-2.5 2.5h-55a2.5 2.5 0 01-2.5-2.5V48h60v32.5z"/><path d="M63 53h-5a2.5 2.5 0 100 5h5a2.5 2.5 0 100-5zm17.5 0h-5a2.5 2.5 0 100 5h5a2.5 2.5 0 100-5zM98 53h-5a2.5 2.5 0 100 5h5a2.5 2.5 0 100-5z"/><path d="M63 63h-5a2.5 2.5 0 000 5h5a2.5 2.5 0 100-5zm17.5 0h-5a2.5 2.5 0 100 5h5a2.5 2.5 0 100-5zM98 63h-5a2.5 2.5 0 000 5h5a2.5 2.5 0 100-5zM63 73h-5a2.5 2.5 0 000 5h5a2.5 2.5 0 100-5zm17.5 0h-5a2.5 2.5 0 100 5h5a2.5 2.5 0 100-5zM98 73h-5a2.5 2.5 0 000 5h5a2.5 2.5 0 100-5z" fill-opacity=".2"/></g><defs><clipPath id="clip0"><path fill="#fff" transform="translate(43 18)" d="M0 0h70v70H0z"/></clipPath></defs></svg>