<svg width="158" height="120" fill="none" xmlns="http://www.w3.org/2000/svg"><path d="M50.875 24.822c7.036-3.87 12.356-8.013 16.965-11.6.379-.296.753-.588 1.123-.875 4.923-3.82 8.966-6.787 13.729-8.405 9.58-3.193 22.812-1.13 34.631 6.703 11.732 7.776 22.122 21.246 29.995 42.8 3.925 10.81 7.184 23.514 7.964 34.734.39 5.61.152 10.747-.872 15.049-1.023 4.3-2.791 7.609-5.342 9.804-2.574 2.204-6.222 3.529-10.923 4.113-4.695.584-10.225.403-16.347-.219-6.113-.62-12.691-1.665-19.481-2.761l-1.045-.169c-6.433-1.04-13.032-2.107-19.462-2.854-6.786-.801-13.361-1.241-19.597-1.617l-2.804-.166c-5.22-.309-10.164-.601-14.84-1.059-11.058-1.081-20.112-3.055-26.934-7.937l-.008-.005C10.79 95.501 5.897 87.523 3.733 78.856 1.566 70.182 2.209 61.13 6.025 54.164c3.825-6.96 11.046-12.218 19.517-16.826 4.207-2.289 8.623-4.367 12.969-6.407l.202-.095c4.247-1.993 8.44-3.962 12.162-6.014zm0 0h-.002l-1.204-2.19 1.207 2.189h-.001z" fill="#fff" stroke="#EAEEF9" stroke-width="5"/><g clip-path="url(#clip0)" fill="#F39892"><path d="M69.5 27a2.5 2.5 0 00-2.5 2.5v5h5v-5a2.5 2.5 0 00-2.5-2.5zm35 0a2.5 2.5 0 00-2.5 2.5v5h5v-5a2.5 2.5 0 00-2.5-2.5zm10 7.5H107v10a2.5 2.5 0 11-5 0v-10H72v10a2.5 2.5 0 11-5 0v-10h-7.5A7.5 7.5 0 0052 42v47.5a7.5 7.5 0 007.5 7.5h55a7.5 7.5 0 007.5-7.5V42a7.5 7.5 0 00-7.5-7.5zm2.5 55a2.5 2.5 0 01-2.5 2.5h-55a2.5 2.5 0 01-2.5-2.5V57h60v32.5z"/><path d="M72 62h-5a2.5 2.5 0 100 5h5a2.5 2.5 0 100-5z"/><path d="M89.5 62h-5a2.5 2.5 0 100 5h5a2.5 2.5 0 100-5zm17.5 0h-5a2.5 2.5 0 100 5h5a2.5 2.5 0 100-5zM72 72h-5a2.5 2.5 0 000 5h5a2.5 2.5 0 100-5zm17.5 0h-5a2.5 2.5 0 100 5h5a2.5 2.5 0 100-5zm17.5 0h-5a2.5 2.5 0 100 5h5a2.5 2.5 0 100-5zM72 82h-5a2.5 2.5 0 000 5h5a2.5 2.5 0 100-5zm17.5 0h-5a2.5 2.5 0 100 5h5a2.5 2.5 0 100-5zm17.5 0h-5a2.5 2.5 0 100 5h5a2.5 2.5 0 100-5z" fill-opacity=".2"/></g><defs><clipPath id="clip0"><path fill="#fff" transform="translate(52 27)" d="M0 0h70v70H0z"/></clipPath></defs></svg>