<svg width="1920" height="647" fill="none" xmlns="http://www.w3.org/2000/svg"><path d="M92.707 0C71.958 9.896 52.14 20.675 31.703 30.881c-6.215 3.105-12.368 5.44-19.076 7.892C7.98 40.468 3.678 43.623 0 46.423v1.33c4.458-3.267 9.604-7.302 15.125-8.722 6.458-1.657 11.65-4.657 17.22-7.412C53.357 21.207 73.63 10.117 94.932 0h-2.225zm25.433 0C76.097 19.218 36.538 40.767 0 64.546v1.19C37.17 41.471 77.487 19.517 120.389 0h-2.249zm31.392 0c-13.159 6.05-26.223 12.194-39.061 18.55-18.162 8.996-35.209 18.924-52.64 28.546C35.952 59.175 17.618 73.384 0 88.073v1.274C17.219 74.905 35.116 60.9 56.404 48.985 87.38 31.644 119.069 15.41 152.007 0h-2.475zm23.528 0C135.531 16.972 99.157 35.438 66.587 56.523 41.629 72.673 20.318 90.925 0 109.706v1.51c20.037-18.513 40.98-36.532 65.321-52.678C98.547 36.495 136.437 17.461 175.293 0h-2.233zm30.517 0c-19.343 8.644-38.607 17.366-57.263 26.684-25.682 12.837-49.07 27.261-71.17 42.833-20.85 14.689-38.95 30.487-54.466 47.938C13.993 124.973 7.246 132.496 0 139.767v1.541c6.075-6.039 11.791-12.258 17.398-18.518 16.578-18.514 34.656-35.47 56.646-51.253 22.474-16.14 46.626-30.86 72.912-44.117 19.108-9.632 38.965-18.555 58.87-27.42h-2.249z" fill="#F5F5F5"/><path d="M229.026 0c-22.881 10.817-45.892 21.496-67.914 33.112-7.62 4.02-15.695 10.195-24.785 12.484-5.35 1.341-10.643 5.825-14.844 8.349-13.073 7.86-25.23 16.388-36.68 25.326-21.012 16.415-38.895 34.544-55.294 53.173-4.302 4.882-9.565 8.854-13.704 13.809-4.13 4.956-9.332 9.033-13.877 13.731-.631.664-1.28 1.316-1.928 1.969v1.482c3.405-3.324 6.747-6.654 11.033-9.554 1.796-1.215 3.155-3.965 4.42-5.487 2.703-3.24 5.1-6.639 9.028-9.295 5.074-3.436 8.214-8.628 11.946-12.769 4.334-4.813 8.833-9.553 13.433-14.252 9.97-10.195 20.755-20.018 32.328-29.408 10.541-8.565 21.95-16.63 33.945-24.264 12.088-7.691 25.559-13.61 38.388-20.664C179.065 24.248 205.249 12.232 231.174 0h-2.148z" fill="#F5F5F5"/><path d="M252.405 0C195.12 25.3 139.903 52.715 95.291 88.236c-22.77 18.124-40.223 38.52-58.73 58.649C25.682 158.717 13.914 170.174 0 180.207v1.316c36.85-26.052 58.777-61.79 92.41-89.626C137.553 54.535 195.298 26.131 254.693 0h-2.289z" fill="#F5F5F5"/><path d="M284.141 0c-29.166 12.569-57.88 25.516-85.741 39.431-16.103 8.044-31.838 15.893-45.503 25.847-6.255 4.555-14.157 8.27-20.021 12.962-2.008 1.604-3.194 3.772-4.506 5.656-2.819 4.03-7.543 6.965-11.893 10.227-13.752 10.311-25.636 21.285-36.203 33.154-10.073 11.311-19.49 22.88-29.853 34.075-10.697 11.558-22.732 22.511-36.997 32.176-4.226 2.862-8.738 5.308-13.424 7.533v1.205c3.537-1.667 6.972-3.466 10.228-5.487 13.635-8.454 25.029-18.429 35.328-28.777 10.832-10.88 20.257-22.38 30.034-33.697 11.22-12.988 23.504-24.846 37.747-36.416 5.561-4.513 12.167-8.27 16.118-13.567 2.171-2.914 3.913-5.55 7.646-7.77 4.364-2.599 8.73-5.046 12.797-7.876 6.654-4.63 12.847-9.475 20.18-13.642 9.261-5.266 19.232-10.011 28.962-14.867C227.463 25.994 256.747 12.806 286.5 0h-2.359zM564.55 0c-21.819 26.363-39.358 54.23-51.445 83.365-14.056 33.879-21.475 68.839-35.758 102.682-13.68 32.418-32.578 65.683-62.337 92.94-30.439 27.877-68.546 50.399-110.785 69.801-48.797 22.411-102.062 39.488-156.302 54.903-27.971 7.944-56.372 15.036-85.944 19.76-20.405 3.251-41.138 5.461-61.979 6.997v.767c39.646-3.092 78.533-8.658 116.29-18.086 46.4-11.584 92.082-25.568 135.428-41.666 84.359-31.356 161.621-74.127 200.172-135.243 11.894-18.855 22.131-38.272 30.002-58.069 8.373-21.065 14.354-42.53 21.296-63.821C516.315 74.037 536.446 35.911 566.041 0h-1.491z" fill="#F5F5F5"/><path d="M587.266 0c-23.474 22.79-41.677 48.227-53.764 74.73-3.592 7.877-7.232 15.737-10.315 23.712-3.461 8.975-5.382 18.134-8.747 27.12-3.1 8.27-6.099 16.556-8.567 24.927-1.1 3.74-1.81 6.739-4.662 10.032-2.381 2.762-2.544 7.655-3.608 10.78-11.032 32.507-29.398 63.441-54.161 92.26-5.505 6.398-10.955 12.847-16.695 19.155-6.826 7.502-16.227 13.584-24.208 20.502-14.439 12.516-32.649 23.511-50.671 33.607-13.018 7.302-26.754 13.993-40.826 20.318-7.16 3.219-14.47 6.291-21.832 9.3-3.311 1.347-6.653 2.662-9.996 3.978-3.624 1.42-6.458 3.966-10.269 5.45-30.549 11.922-61.917 22.895-94.284 32.386-32.094 9.417-65.275 17.078-99.181 22.885-9.2 1.569-19.623 4.038-29.158 4.038-8.169 0-15.83 1.772-23.818 2.905A401.452 401.452 0 010 440.611v.78c12.76-1.117 25.424-2.707 37.99-4.84 5.638-.957 11.612-.548 17.358-1.371a936.753 936.753 0 0017.572-2.732c12.43-2.042 24.745-4.41 36.974-6.977 45.51-9.533 89.076-22.864 131.026-38.058 10.526-3.819 20.926-7.785 31.273-11.826 4.624-1.799 7.988-4.556 12.674-6.408a766.251 766.251 0 0017.219-7.101c19.217-8.176 37.615-17.215 54.997-27.084 18.109-10.285 35.335-21.622 49.884-34.243 6.342-5.498 13.673-10.227 19.412-16.062 6.544-6.655 12.151-13.815 18.148-20.701 17.632-20.255 31.915-41.746 42.707-64.084 5.748-11.889 10.307-24.032 14.166-36.258.702-2.22 1.905-3.719 3.56-5.64 1.601-1.851 1.531-5.192 2.124-7.291 1.969-6.971 4.475-13.868 7.013-20.755 4.567-12.373 7.621-24.936 12.682-37.236 5.106-12.41 10.995-24.685 17.913-36.69 11.409-19.796 26.151-38.64 44.12-56.034h-1.546z" fill="#F5F5F5"/><path d="M604.89 0c-53.919 47.27-70.467 106.922-92.706 163.756-12.33 31.518-26.917 62.721-49.213 91.73-22.864 29.755-54.849 56.476-91.12 79.245-6.717 4.219-13.853 8.101-21.35 11.669-6.388 3.029-13.041 5.135-18.68 8.785-13.641 8.818-29.251 16.13-45.134 22.959-32.188 13.836-66.954 25.631-101.906 35.922C125.995 431.375 63.625 442.8 0 447.683v.87a918.249 918.249 0 00111.135-15.359c48.704-9.806 94.183-24.073 139.108-39.961 22.256-7.871 43.831-16.583 63.908-26.842 9.363-4.777 17.523-11.332 27.682-15.257 9.637-3.714 18.43-8.386 26.784-13.289 35.726-20.969 66.673-47.264 89.928-75.052 35.193-42.061 51.459-89.619 68.976-136.032C544.513 81.749 564.065 36.926 606.49 0h-1.6z" fill="#F5F5F5"/><path d="M622.648 0c-57.239 47.28-77.457 108.59-100.883 166.529-13.798 34.143-30.438 67.519-55.6 98.679-24.433 30.266-59.081 56.865-97.033 79.728-52.935 31.903-115.093 57.482-179.462 77.315-34.696 10.693-71.381 17.403-108.364 23.372A958.433 958.433 0 010 455.173v.832c40.09-3.051 79.573-8.71 118.633-15.877 48.969-8.973 94.628-23.295 138.521-40.373 84.46-32.848 164.267-77.335 211.541-135.899 35.788-44.329 52.249-93.376 72.061-141.639C558.623 78.709 581.518 35.096 624.287 0h-1.639z" fill="#F5F5F5"/><path d="M644.628 0c-10.587 7.791-20.45 16.004-29.429 24.711-6.74 6.523-11.816 14.925-20.109 20.533-7.199 4.866-11.135 13.947-14.986 20.249-19.311 31.618-29.103 65.219-41.675 98.215-12.823 33.655-29.782 67.604-54.546 98.138-23.152 28.546-53.693 54.804-87.77 77.703-28.831 19.372-61.129 36.501-94.543 52.094-33.383 15.583-69.366 28.557-106.74 39.174C132.837 448.441 66.79 458.897 0 463.728v.862c79.142-5.775 156.848-19.558 228.636-43.201 21.255-6.998 41.815-14.952 61.665-23.632 9.646-4.22 19.056-8.67 28.309-13.279 9.362-4.661 19.319-12.153 30.157-14.878 3.218-.81 5.903-3.504 8.308-5.04 4.351-2.788 8.871-5.45 13.393-8.101 9.769-5.735 19.358-11.49 28.541-17.656 15.969-10.733 30.744-22.248 44.487-34.302 25.294-22.174 46.604-46.19 62.526-72.053 17.227-27.987 29.682-57.155 40.286-86.563 10.487-29.082 20.631-58.285 38.599-85.768 2.085-3.189 4.334-6.335 6.63-9.46 2.514-3.42 6.669-5.682 9.355-8.917 5.192-6.26 10.948-12.295 17.023-18.177 8.582-8.32 18.155-16.138 28.37-23.563h-1.657z" fill="#F5F5F5"/><path d="M661.849 0c-11.566 7.723-22.646 15.762-32.775 24.39-14.532 12.373-26.113 26.315-36.943 40.272-5.287 6.808-8.371 14.372-11.776 21.675-4.146 8.875-8.833 17.76-12.096 26.804-5.998 16.578-11.987 33.154-18.561 49.631-13.37 33.476-29.832 66.398-53.257 97.312-21.865 28.85-50.875 55.539-84.164 78.814-13.143 9.185-27.215 17.739-41.856 25.809-3.56 1.968-5.981 4.272-8.816 6.693-3.545 3.019-9.668 5.344-14.211 7.68-8.216 4.209-16.431 8.428-24.731 12.574-34.016 16.972-71.483 31.681-110.153 43.298C145.363 455.108 73.075 466.801 0 471.399v.854c88.935-5.633 176.059-21.825 254.765-50.885 22.934-8.47 44.908-17.351 66.053-27.757 10.012-4.924 19.836-10.017 29.699-15.067 4.084-2.094 8.519-3.978 11.986-6.545 4.427-3.282 8.137-6.292 13.259-9.153 35.407-19.75 66.04-43.094 91.903-68.692 47.196-46.718 72.108-100.453 92.348-154.824 10.792-29.004 19.858-59.716 42.793-85.611 10.713-12.1 20.692-23.668 34.195-34.553C645.325 12.453 654.307 6.124 663.576 0h-1.727z" fill="#F5F5F5"/><path d="M541.209 0c-18.897 27.347-31.563 56.36-43.027 85.51-6.715 17.062-11.799 34.391-16.766 51.716-4.99 17.451-9.035 35.258-16.413 52.336-14.346 33.17-34.32 64.451-65.744 91.865-27.386 23.89-61.666 43.681-98.962 60.175-49.054 21.706-103.99 37.531-157.458 53.503-13.658 4.082-27.33 8.134-40.987 12.216-14.276 4.272-31.135 5.787-46.323 8.143-18.382 2.852-36.874 5.409-55.529 7.177v.852c13.47-1.284 26.862-2.956 40.2-4.861 12.556-1.788 25.05-3.809 37.544-5.798 6.249-1 12.487-1.989 18.734-2.978 5.904-.914 12.159-3.63 17.718-5.292 49.306-14.709 98.729-29.25 146.401-46.295 78.175-27.936 148.673-69.919 183.376-126.053 11.714-18.949 21.872-38.783 28.167-58.885 6.537-20.854 11.9-41.866 18.507-62.715C502.555 73.068 518.165 34.886 542.576 0h-1.367zM313.838 0c-12.596 4.692-25.284 9.275-37.373 14.525-19.78 8.592-38.92 18.092-57.255 28.015-18.171 9.838-36.428 18.923-53.28 29.85-15.469 10.022-29.79 20.833-42.714 32.386-24.669 22.044-42.238 47.344-65.688 69.981C41.425 190.303 22.583 204.607 0 215.509v1.088c18.373-8.738 34.35-19.733 48.25-31.924 25.2-22.105 43.34-47.11 66.274-70.196 27.066-27.25 62.44-48.915 100.673-68.739 19.42-10.07 38.785-20.112 59.198-29.282 13.479-6.05 27.83-11.164 42.027-16.456h-2.584z" fill="#F5F5F5"/><path d="M682.94 0c-13.306 7.939-26.253 15.93-37.499 25.552-14.242 12.19-26.049 25.61-36.435 39.441-22.108 29.445-32.985 61.432-45.268 93.177-11.917 30.792-25.972 61.284-45.37 90.335-9.457 14.156-20.381 27.851-32.68 40.972-5.998 6.402-12.448 12.605-19.163 18.665-3.952 3.568-8.082 7.039-12.284 10.47-3.31 2.709-5.488 6.329-8.831 8.854-57.122 43.197-121.607 83.096-199.158 108.749-19.591 6.469-39.95 11.838-60.761 16.2-10.283 2.172-20.709 3.982-31.203 5.59-10.722 1.642-20.312 2.715-30.088 6.21-11.152 3.995-26.308 4.68-38.576 6.361-12.791 1.75-25.628 3.336-38.49 4.81A1552.482 1552.482 0 010 480.036v.84a1707.437 1707.437 0 0041.075-3.952c26.245-2.866 54.005-5.335 79.446-10.662 3.741-.776 7.186-2.366 10.659-3.542 5.577-1.884 12.081-2.276 18.111-3.104 11.447-1.598 22.777-3.598 33.984-5.852 20.2-4.043 39.854-9.27 58.932-15.3 78.199-24.725 143.137-64.844 200.548-107.732 6.716-5.013 11.511-10.716 17.797-16.009 7.097-5.97 13.75-12.184 20.115-18.518 12.938-12.878 24.145-26.525 34.148-40.54 19.663-27.568 33.75-56.808 45.759-86.259 13.324-32.639 23.014-66.103 44.434-96.931 10.174-14.647 22.131-28.71 36.242-41.783C653.929 18.928 668.898 9.412 684.718 0h-1.778z" fill="#F5F5F5"/><path d="M700.301 0c-26.611 14.51-49.122 32.108-67.376 51.788-11.323 12.21-20.695 25.222-28.62 38.59-9.715 16.393-13.759 34.127-19.648 51.251-1.422 4.135-3.014 8.239-4.724 12.321-1 2.384-2.226 4.614-4.255 6.693-.61.62-2.031 2.056-2.242 2.83-.867 3.256-.413 6.528-1.468 9.811-1.64 5.14-4.998 10.059-8.09 14.846-9.426 14.615-15.009 30.519-23.606 45.418-18.796 32.597-43.558 62.909-76.653 89.845-14.211 11.57-29.54 22.491-45.204 33.15-7.568 5.144-15.259 10.216-22.966 15.256a4511.77 4511.77 0 01-12.861 8.376c-3.288 2.136-7.996 3.041-11.058 5.092-16.492 11.079-34.194 21.202-52.912 30.513-18.844 9.376-38.716 18.857-59.817 25.727C177.394 468.02 89.123 480.67 0 488.151V489c39.662-3.322 79.128-7.658 118.11-13.709 51.077-7.921 100.007-19.372 147.086-34.943 21.499-7.103 41.88-17.591 60.95-27.293 18.201-9.269 34.03-21.032 52.873-29.387 3.974-1.768 7.489-4.85 10.916-7.082 4.264-2.778 8.513-5.555 12.744-8.344a1186.13 1186.13 0 0026.785-18.086c16.938-11.774 33.063-24.064 47.978-37.037 27.464-23.895 47.642-51.279 64.048-79.344 9.035-15.469 14.891-31.898 24.699-47.107 3.725-5.767 8.121-12.2 8.121-18.603 0-2.515.477-4.829 2.46-6.991.641-.7 2.202-2.032 2.562-2.831a194.026 194.026 0 005.068-12.263c6.192-16.531 10.166-33.391 18.038-49.631 6.943-14.337 17.438-28.14 28.815-41.072C649.854 34.128 673.875 15.279 702.291 0h-1.99z" fill="#F5F5F5"/><path d="M725.653 0c-28.838 14.252-54.484 31.082-75.191 51.016-13.93 13.398-24.832 29.828-32.422 45.322-8.292 16.913-15.001 33.996-21.794 51.204-6.778 17.141-14.048 34.191-22.302 51.031-3.952 8.081-8.223 16.088-12.737 24.031-2.264 3.995-4.645 7.95-7.074 11.901-2.742 4.472-3.966 9.069-7.185 13.484-11.634 15.951-21.591 32.875-35.999 47.78-7.027 7.265-13.641 15.225-21.966 21.822a2325.429 2325.429 0 01-23.371 18.297c-58.06 44.824-121.74 87.7-200.947 115.122-44.924 15.549-94.557 24.88-143.526 32.582C81.189 489.875 40.683 494.387 0 497.913v.832c39.74-3.453 79.283-7.883 118.39-13.856 48.47-7.4 97.276-16.731 142.058-31.504 80.776-26.652 145.52-70.412 204.241-115.497 7.271-5.588 14.455-11.218 21.608-16.862 7.192-5.672 12.893-11.758 19.015-17.972 7.013-7.128 13.626-14.12 19.202-21.811 6.044-8.322 11.939-16.704 17.913-25.047 2.804-3.915 5.63-7.818 8.488-11.717 2.023-2.766 1.812-4.876 3.201-7.77 4.202-8.732 10.277-17.192 14.893-25.857 8.879-16.667 16.415-33.654 23.458-50.715 7.129-17.256 13.086-34.723 21.114-51.799 8.122-17.267 18.109-33.58 31.284-49.39C664.555 35.323 694.87 15.84 727.649 0h-1.996z" fill="#F5F5F5"/><path d="M744.607 0c-.588.285-1.138.579-1.599.89-8.239 5.576-18.679 9.574-27.795 14.498-8.623 4.66-16.639 9.802-24.302 15.162-3.992 2.788-7.792 5.698-11.547 8.628-3.825 2.983-6.34 6.555-10.312 9.475-6.384 4.682-10.286 11.432-15.059 16.903-6.685 7.665-12.391 15.71-17.563 23.89-9.277 14.679-16.071 30.024-22.356 45.391-6.615 16.177-12.612 32.46-19.92 48.506-3.484 7.655-8.004 14.993-11.401 22.658-3.866 8.729-9.825 17.388-12.785 26.215-2.912 8.681-8.988 16.768-14.484 24.837-5.724 8.408-11.862 16.684-18.179 24.895-12.378 16.088-24.958 31.902-42.051 45.954-15.689 12.9-33.461 24.748-50.727 36.679a1610.833 1610.833 0 01-54.755 36.205c-19.749 12.49-39.857 24.485-61.44 35.502-9.746 4.978-19.679 9.766-30.048 14.119-4.803 2.029-9.762 4.525-15.549 4.745-3.591.137-9.277 3.766-12.454 4.986-11.23 4.297-23.521 7.21-35.618 10.158-12.36 3.008-24.417 6.577-37.005 9.111-25.098 5.059-51.492 7.688-77.08 11.395C80.54 496.62 40.403 502.123 0 506.614v.853c40.512-4.503 80.76-10.028 120.911-15.834 25.654-3.715 51.821-6.576 77.083-11.407 11.689-2.229 22.794-5.629 34.196-8.426 11.274-2.758 22.527-5.495 33.334-9.02 5.583-1.832 10.87-3.995 16.001-6.331 2.101-.961 3.053-.233 5.052-.604 1.062-.198 3.788-1.323 4.388-1.542 11.605-4.306 22.458-9.491 33.095-14.796 20.232-10.08 39.029-20.959 57.543-32.449 18.836-11.68 37.186-23.716 55.202-35.964 18.162-12.363 36.842-24.725 53.592-37.973 32.804-25.947 55.357-58.054 75.145-89.267 4.388-6.929 6.785-14.2 10.736-21.25 4.888-8.696 7.591-17.897 12.8-26.509 9.213-15.209 14.594-31.723 20.841-47.574 6.31-16.004 12.767-31.987 21.147-47.564 4.411-8.19 9.532-16.193 15.251-24.005 5.527-7.56 12.589-14.531 18.046-22.096 2.207-3.068 5.77-5.257 8.598-8.003 3.569-3.461 6.985-6.86 11.124-10.037 7.996-6.134 16.613-11.874 25.71-17.256C721.93 12.384 735.088 5.845 748.81 0h-4.203zM1860.7 645.957c17.69-15.971 35.44-32.206 57.74-45.105v-1.108c-22.99 13.153-41.14 29.832-59.3 46.213h1.56zM697.026 423.282c34.525 21.862 77.692 37.92 120.36 51.199 45.144 14.045 95.111 18.519 144.221 20.868 25.838 1.228 51.723 1.84 77.563 2.943 24.94 1.065 49.95 2.22 74.03 7.021 42.15 8.395 78.06 26.638 110.32 46.23 16.08 9.766 31.43 20.053 46.9 30.25 7.78 5.116 15.43 10.331 23.78 15.028 10.04 5.668 20.69 10.951 28.98 17.739 4.52 3.672 11.4 6.512 16.91 9.499 6.94 3.758 13.89 7.525 20.83 11.283 6.79 3.689 13.55 7.417 20.35 11.119h1.99a14946.74 14946.74 0 00-47.49-25.833c-9.2-4.977-16.49-10.761-25.55-15.877-10.08-5.68-20.12-11.287-29.57-17.441-30.33-19.743-59.72-40.292-93.73-57.19-33.79-16.791-71.58-27.872-113.44-30.807-51.48-3.598-103.409-3.249-154.816-7.576-26.522-2.22-52.75-5.973-78.063-11.835-23.95-5.538-46.935-13.692-68.96-22.057-21.973-8.344-42.873-17.937-62.428-28.681-20.324-11.174-34.506-24.799-40.999-42.151-13.587-36.289 29.951-66.108 60.471-91.733 32.216-27.053 62.768-54.988 93.454-82.834a7615.348 7615.348 0 0123.107-20.891c4.458-4.009 8.994-7.802 14.252-11.358 4.056-2.741 8.674-5.293 11.598-8.665 6.071-7.008 16.338-12.731 24.782-18.503 9.922-6.781 20.342-12.809 31.544-18.592 9.838-5.081 19.076-10.364 29.682-14.74 11.476-4.736 23.458-8.902 35.593-12.806 24.663-7.938 50.443-13.378 76.573-18.623 50.09-10.048 100.98-18.072 150.68-29.02 22.55-4.965 44.63-10.79 65.58-18.36 14.65-5.293 36.04-12.416 22.32-24.989-7.14-6.53-19.02-10.033-29.85-12.842A783.56 783.56 0 011266.63 0h-4.69c.42.12.86.252 1.29.374 11.8 3.33 23.93 5.424 34.64 10.343 5.98 2.74 13.01 7.386 13.58 12.547.72 6.45-9.02 9.942-15.92 12.79-11.16 4.587-22.9 8.485-34.85 12.03-47.54 14.09-98.95 21.907-148.84 31.14-25.62 4.74-51.16 9.717-76.44 15.236-23.64 5.15-46.145 12.079-67.895 20.175-21.442 7.981-41.497 18.309-59.645 29.399-8.854 5.407-17.08 11.269-25.384 17.05-8.61 5.982-15.167 12.627-23.867 18.513-17.886 12.095-31.934 27.309-47.025 41.014-15.602 14.158-31.211 28.304-47.063 42.335-16.581 14.678-33.494 29.193-50.837 43.46-14.719 12.111-29.279 24.011-39.098 38.362-18.104 26.453-9.206 58.471 22.44 78.514z" fill="#F5F5F5"/><path d="M775.435 0c-4.031 1.562-7.319 3.23-10.581 5.44-5.099 3.457-13.082 5.734-19.051 8.501-19.446 8.991-36.597 20.081-53.223 31.303-2.994 2.02-4.407 5.23-7.35 7.47-3.038 2.31-7.088 4.83-9.557 7.397-6.429 6.681-13.44 12.727-18.647 19.95-10.517 14.577-16.569 30.597-23.064 46.127-14.313 34.228-27.635 68.645-44.229 102.409-8.597 17.487-18.218 34.743-29.143 51.631-1.287 1.989-2.693 6.801-4.263 8.464-3.108 3.294-5.45 7.044-8.341 10.444-6.839 8.054-14.749 15.682-23.238 22.98-14.626 12.562-32.227 23.537-48.423 35.173-15.696 11.269-31.212 22.655-47.032 33.849-31.838 22.517-65.259 44.141-103.274 61.867-19.216 8.965-39.317 16.278-60.666 22.579-11.893 3.517-23.482 6.146-35.983 8.473a939.527 939.527 0 01-17.68 3.112c-5.458.909-13.236.991-18.202 2.654-11.784 3.965-24.504 5.168-37.287 6.978a9855.663 9855.663 0 00-40.989 5.921 6481.542 6481.542 0 00-77.848 11.943c-6.254 1-12.509 2.008-18.763 3.029-5.897.97-12.456.526-18.601 1.022v.81c5.168-.56 10.361-.707 15.632-.474 5.569.233 13.479-2.189 18.945-3.064 25.887-4.163 51.844-8.133 77.839-11.981a9028.995 9028.995 0 0137.764-5.482c12.181-1.737 26.12-2.496 37.529-5.913 11.323-3.401 24.122-4.517 36.1-6.663 11.699-2.082 23.49-4.03 34.602-7.314 21.45-6.331 41.769-13.127 61.448-21.807 18.233-8.042 35.382-17.161 51.819-26.791 34.367-20.128 65.095-42.907 96.096-65.34 15.884-11.479 32.774-22.443 48.213-34.19 15.782-11.996 29.166-25.385 40.114-39.621 1.539-2.004 2.733-3.273 3.061-5.497.61-4.119 5.145-8.796 7.512-12.59 4.927-7.891 9.494-15.877 13.884-23.911 9.089-16.613 17.031-33.512 24.535-50.483 14.985-33.875 26.16-68.818 43.693-102.13 4.107-7.803 8.598-15.451 14.701-22.649 6.154-7.259 14.674-13.956 22.632-20.307 2.342-1.867 4.574-3.099 5.834-5.387 2.182-3.977 9.801-7.639 14.24-10.526 9.807-6.377 20.029-12.453 30.802-18.078 9.672-5.05 21.871-8.627 30.437-14.424 2.77-1.873 6.013-3.473 9.519-4.904h-1.516zm-83.396 438.805c37.685 21.527 84.684 36.792 129.565 50.165 23.011 6.848 46.756 12.145 71.481 15.308 24.737 3.168 49.993 4.232 75.101 5.06 51.174 1.707 103.454 2.129 151.914 14.744 23.41 6.089 42.91 15.76 62.9 25.755 20.87 10.429 41.61 20.971 60.21 33.241 17.09 11.278 35.11 21.203 54.15 30.913 20.62 10.52 40.68 21.536 60.81 32.47h1.97c-15.98-8.65-31.95-17.286-48.01-25.863-19.28-10.3-39.61-19.73-57.59-31.09-17.62-11.145-34.8-22.014-54.04-31.905-19.24-9.887-38.41-20.381-59.77-28.091-42.22-15.226-90.99-18.299-137.94-19.941-53.533-1.871-106.769-2.599-157.753-15.119-25.166-6.176-49.149-14.403-72.952-22.643-22.473-7.788-44.485-16.11-64.974-26.126-39.278-19.213-75.161-46.516-74.2-81.165.507-18.286 13.313-33.422 31.084-46.617 17.655-13.104 36.635-25.437 54.758-38.252 35.478-25.089 64.994-53.067 94.542-81.349 29.874-28.61 64.277-54.803 105.084-76.505 41.6-22.121 90.241-33.98 140.291-44.302 47.69-9.827 97.01-17.53 142.7-31.176 15.31-4.572 34.21-11.21 36.55-23.679 1.87-9.97-13.51-17.387-26.44-22.638h-2.96c1.72.742 3.46 1.484 5.18 2.263 12.07 5.502 25.95 11.994 22.23 23.158-2.73 8.202-15.57 13.363-25.66 17.045-10.95 4.004-22.83 7.119-34.46 10.096-24.09 6.16-49.5 10.438-74.17 15.388-25.77 5.166-51.59 10.264-77.12 15.94-45.67 10.143-86.752 25.1-123.241 46.327-38.228 22.234-69.203 48.407-97.989 76.231-30.885 29.851-63.907 57.708-101.483 83.839-16.837 11.71-35.676 22.995-50.127 36.137-12.952 11.789-19.676 25.257-20.082 39.946-.826 29.872 28.482 54.167 60.441 72.435z" fill="#F5F5F5"/><path d="M808.04 0c-59.051 18.24-111.935 46.5-139.679 87.094-9.557 13.984-14.617 29.135-20.509 43.95-6.87 17.277-13.608 34.581-20.542 51.841-13.837 34.412-28.689 68.65-46.792 102.157-4.621 8.559-8.941 17.235-16.179 24.967-7.669 8.203-16.711 16.158-26.105 23.476-7.684 5.98-16.188 11.484-24.715 16.902-9.38 5.966-18.468 12.479-28.455 17.961-40.03 21.98-74.177 48.716-112.113 72.327-19.1 11.878-38.88 23.148-60.565 32.828-21.655 9.658-45.557 14.678-70.195 19.643-25.62 5.168-50.898 10.344-77.214 13.671-26.136 3.301-52.444 5.913-78.267 10.244-21.67 3.655-43.129 7.956-64.658 11.955-7.286 1.349-14.681 2.681-22.052 4.103v.75c13.548-2.642 27.285-4.939 40.7-7.439 25.683-4.801 51.265-9.714 77.456-13.101 26.394-3.418 52.998-6.03 79.174-10.219 24.981-3.986 50.015-9.878 74.419-15.265 45.19-9.977 81.93-33.542 115.758-55.186 18.797-12.038 36.998-24.475 55.349-36.817 18.257-12.269 37.826-23.369 56.459-35.312 17.249-11.068 34.952-21.685 49.523-34.469 7.559-6.634 15.165-13.484 21.154-20.828 6.068-7.434 9.668-16.077 13.932-24.032 17.953-33.517 32.461-67.824 46.251-102.209 6.935-17.287 13.673-34.606 20.556-51.904 6.218-15.636 12.148-31.039 23.01-45.565 18.967-25.368 49.513-45.928 84.025-61.757C774.507 12.09 792.374 5.566 810.855 0h-2.815zM186.686 620.759c41.653-.431 83.172-3.349 124.614.965 19.655 2.03 37.803 6.491 55.623 12.395 11.557 3.831 22.817 7.891 33.406 12.679h2.069c-8.581-3.913-17.609-7.357-26.939-10.688-15.665-5.59-31.877-10.365-49.072-13.334-38.873-6.68-80.212-4.25-119.795-3.25-20.725.526-41.49.884-62.144-.539-21.443-1.482-42.66-4.249-63.572-7.744C53.326 606.636 26.409 600.46 0 593.431v.875c59.73 15.782 122.051 27.134 186.686 26.453zM1918.95 157.144c-18.39-1.989-36.64-4.741-55.08-6.582-9.65-.962-18.58-3.356-28.25-4.734-12.54-1.789-24.93-4.015-37.2-6.498-50.5-10.222-98.13-27.015-145.57-42.324-23.76-7.665-47.59-15.246-71.73-22.332-23.22-6.809-47.05-12.574-70.26-19.366a607.238 607.238 0 01-31.45-10.16c-5.3-1.866-10.51-3.855-15.68-5.88-6.2-2.431-15.26-5.061-19.49-9.086-8.83-8.423 6.93-15.467 15.81-19.034 10.81-4.34 22.74-7.323 34.69-9.848 2.15-.453 4.3-.884 6.47-1.3h-4.32c-2.55.506-5.08 1.026-7.61 1.579-9.49 2.088-18.68 4.728-27.49 7.922-6.23 2.268-16.3 5.309-19.05 10.139-7.17 12.54 12.35 17.302 25.58 22.395 20.32 7.822 41.78 14.199 63.47 20.06 49.6 13.399 97.8 28.392 146.03 43.907 45.41 14.609 91.06 29.304 139.91 37.863 4.83.842 9.7 1.605 14.58 2.346 5.46.832 12.76.927 17.61 2.852 7.59 2.999 17.33 2.656 25.93 3.65 14.4 1.663 28.71 3.694 43.1 5.262v-.831z" fill="#F5F5F5"/><path d="M507.365 0c-.828 5.572-1.827 11.09-3.857 16.635-3.327 9.097-6.973 18.135-10.504 27.194a423.604 423.604 0 00-16.391 51.425c-8.01 32.054-15.164 64.268-28.258 95.602-13.371 31.97-33.713 63.036-64.737 88.993-26.511 22.174-60.213 39.763-96.182 54.377-45.346 18.424-94.44 32.133-142.284 47.221a1908.77 1908.77 0 00-17.946 5.767c-6.224 2.031-14.689 6.207-21.645 6.46-6.342.232-12.816 2.915-18.735 4.388-7.684 1.914-15.523 3.535-23.395 5.051-20.771 3.998-42.043 6.649-63.431 8.721v.811c12.384-1.211 24.73-2.61 37.007-4.314a561.739 561.739 0 0035.584-6.156c5.88-1.199 11.69-2.577 17.461-4.008 2.897-.726 5.754-1.505 8.62-2.283 2.977-.81 6.1-.81 8.996-1.442 8.497-1.873 16.586-5.334 24.644-7.943 9.708-3.157 19.493-6.22 29.277-9.249 18.834-5.85 37.749-11.585 56.505-17.551 73.887-23.526 146.291-52.846 189.537-101.393 34.694-38.958 50.039-83.522 61.502-127.857 6.028-23.3 10.738-46.78 18.859-69.801 4.177-11.826 8.996-23.548 13.541-35.311 2.154-5.593 4.911-11.322 6.004-17.061.524-2.752.883-5.514 1.226-8.276h-1.398zM358.278 0c-34.335 12.563-68.061 25.841-100.688 40.378-20.467 9.117-40.925 18.444-59.276 29.47-17.063 10.255-32.346 21.813-46.339 33.992-27.261 23.722-47 50.337-70.755 75.557C60.667 201.214 33.046 219.664 0 232.275v.952c28.533-10.785 53.279-25.889 72.638-43.802 13.907-12.864 24.723-27.094 36.71-40.778 11.549-13.179 23.738-26.094 37.123-38.456 13.923-12.875 29.447-24.922 46.556-35.902 19.045-12.226 40.832-22.195 62.62-32.022C289.623 26.947 324.973 13.094 360.911 0h-2.633zm491.76 0c-27.104 6.418-53.274 14.5-77.877 24.79-19.223 8.044-37.192 17.293-52.238 28.755-14.202 10.817-24.872 23.395-33.764 36.486-9.851 14.508-16.971 29.781-22.863 45.216-3.019 7.924-5.648 15.915-8.226 23.907-.761 2.351-3.269 4.255-4.094 6.744a2223.909 2223.909 0 00-5.003 15.178c-5.712 17.503-11.044 35.058-15.604 52.713a539.284 539.284 0 00-5.935 25.69c-1.397 6.755-3.851 13.2-.657 19.87.336.532.68 1.063 1.048 1.589.336.5 1.42.069 1.084-.431-5.145-7.807-1.062-17.066.649-25.147 1.804-8.545 3.896-17.062 6.122-25.563 4.451-16.961 9.724-33.822 15.212-50.642 1.171-3.614 2.374-7.229 3.57-10.837.998-3.004 3.262-5.367 4.471-8.139 3.25-7.433 5.086-15.236 7.856-22.769 5.904-16.073 13.44-31.824 23.464-46.949 8.7-13.131 19.652-25.404 33.559-36.31 15.34-12.037 34.602-21.35 54.464-29.662C799.867 14.205 826.299 6.265 853.608 0h-3.57z" fill="#F5F5F5"/><path d="M1158.32 0h-2.67c5.6 2.288 11.01 4.787 15.81 7.892 6.49 4.198 9.79 9.58 7.9 15.609-2.44 7.87-19.96 13.162-29.66 16.445-43.18 14.63-90.72 21.017-136.39 31.045-44.83 9.843-87.447 26.752-122.643 47.932-38.024 22.87-70.144 50.51-101.464 77.488-23.534 20.275-45.815 41.34-72.791 59.595-5.08 3.436-11.547 5.598-16.85 9.018-6.346 4.077-13.12 7.813-20.298 11.195-7.132 3.361-14.879 6.066-22.991 8.159-4.126 1.069-8.412 1.79-12.711 2.405-8.451 1.21-12.769-2.215-16.424-6.276-.413-.469-1.506-.042-1.084.431 3.372 3.741 5.52 6.803 12.36 7.254 8.795.589 20.207-3.314 27.954-5.834 8.732-2.84 16.677-6.723 24.187-10.826 4.107-2.247 7.983-4.672 11.796-7.134 3.979-2.558 8.873-3.678 12.705-6.271 36.251-24.526 65.473-53.451 97.708-80.372 32.1-26.814 66.228-54.06 108.269-73.968 20.196-9.57 41.997-18.244 64.617-24.894 23.8-6.997 49.04-11.548 74.08-15.994 10.99-1.952 21.41-5.233 32.35-7.275 4.96-.921 9.91-1.02 14.64-2.49 6.31-1.961 12.81-3.666 19.27-5.401 9.84-2.647 19.62-5.345 29-8.66 4.63-1.636 9.03-3.536 13.28-5.576 2.96-1.42 8.84-3.725 10.26-5.935 8.14-12.694-4.81-21.017-20.21-27.562zm760.3 4.22c-5.57-1.373-11.11-2.784-16.65-4.22h-3.48c6.69 1.747 13.38 3.467 20.13 5.125v-.906zm-.27 142.875c-41.31-3.946-82.01-10.379-121.49-19.628-23.61-5.529-46.93-12.084-69.21-19.766-10.17-3.509-19.72-7.823-29.9-11.352-11.43-3.957-23.43-7.293-35.14-10.844-43.3-13.12-86.32-26.546-124.61-45.732-28.12-14.089 3.64-29.245 23.42-35.559 5.02-1.604 10.12-2.982 15.29-4.214h-4.04a177.13 177.13 0 00-7.6 2.141c-14.47 4.44-32.48 9.97-38.27 20.944-7.03 13.337 17.05 20.86 30.66 26.904 20.53 9.133 42.43 16.793 64.6 23.937 22.12 7.124 44.66 13.658 66.91 20.592 22.02 6.86 42.42 15.661 64.66 22.343 45.66 13.715 94.06 23.063 143.24 28.866 7.14.842 14.3 1.584 21.48 2.258v-.89z" fill="#F5F5F5"/><path d="M1918.61 135.169c-4.41-.5-8.81-1-13.2-1.526-6.31-.752-12.6-1.578-18.88-2.462-5.88-.826-13.14-3.031-19.07-3.046-12.9-.042-24.93-3.967-37.14-6.497-12.75-2.636-25.55-5.082-38.1-8.102-23.98-5.767-47.14-14.01-70.21-21.255-21.94-6.891-43.59-14.204-64.31-22.674-10.03-4.098-19.73-8.565-29.13-13.294-10.54-5.308-21.84-11.559-29.88-18.655-9.9-8.744.3-17.914 10.95-23.348 8.72-4.461 19.51-6.67 29.58-9.291A628.9 628.9 0 011659.94 0h-3.79c-1.91.437-3.81.874-5.72 1.32-17.25 4.089-36.99 7.845-49.67 17.304-4.43 3.299-8.29 8.17-7.69 12.705.8 5.977 9.59 10.88 15.73 14.462 4.06 2.373 7.65 5.166 11.96 7.502 3.89 2.115 7.9 4.135 11.93 6.123 10.22 5.051 20.95 9.617 31.87 13.942 20.88 8.28 42.79 15.298 64.75 22.144 16.05 4.997 32.1 10 48.19 14.961 16.82 5.182 34.85 8.392 52.48 11.995 8.98 1.836 17.72 4.183 26.72 5.929 2.53.494 5.29.526 7.9.59 6.15.153 12.47 1.668 18.45 2.567 11.77 1.778 23.66 3.172 35.56 4.519v-.894zm.36-118.082c-23.08-5.87-46.09-11.889-69.49-17.087h-3.46c24.6 5.377 48.75 11.785 72.95 17.972v-.885zM1090.01 9.39c-6.55-4.134-14.12-6.802-22.53-8.795-.89-.216-1.81-.405-2.72-.595h-4.62c.68.126 1.37.252 2.06.384 9.26 1.736 22.99 4.788 27.74 11 7.47 9.818-3.83 14.21-14.4 18.92-9.5 4.235-19.67 6.26-30.4 8.732a1753.328 1753.328 0 00-31.84 7.613c-39.65 9.89-79.004 21.922-112.403 39.693-18.993 10.101-35.395 22.27-52.443 33.812a948.854 948.854 0 00-52.11 37.873c-16.357 12.769-33.066 25.332-50.639 37.348-9.608 6.571-19.818 11.947-30.929 17.276-7.696 3.688-18.756 5.824-26.874 1.174-3.346-1.926-4.286-5.762-6.308-8.397-.281-29.277 2.706-58.785 15.136-86.974 6.179-14.014 15.148-27.425 26.81-39.74 5.93-6.26 12.781-12.095 20.157-17.592 7.964-5.934 17.016-10.323 26.202-15.294 20.349-11.016 45.63-18.113 69.913-24.248 23.042-5.818 46.852-10.2 70.77-14.025 17.477-2.799 35.075-5.22 52.699-7.555h-6.461c-45.432 6.087-91.145 12.937-133.935 25.174-10.894 3.114-21.551 6.529-31.985 10.3-11.194 4.047-20.253 9.165-30.648 13.995-15.922 7.401-28.831 19.343-39.156 30.244-21.871 23.085-32.305 50.258-37.237 77.215-2.956 16.109-3.685 32.375-3.531 48.595 0 .011.013.016.013.026 0 .016.012.032.012.047a.613.613 0 00.052.127c.012.005.012.01.012.01 2.924 3.71 4.184 9.164 11.042 10.674 10.158 2.232 18.244-.283 26.451-4.219 9.615-4.614 18.091-9.074 26.458-14.698 9.634-6.477 18.936-13.18 28.096-19.96 17.432-12.9 33.13-27.231 51.4-39.557 19.326-13.031 38.594-26.099 57.887-39.152 34.883-23.585 81.082-38.31 126.599-50.01 10.52-2.71 21.16-5.24 31.81-7.723 5.31-1.237 10.63-2.452 15.95-3.667 3.78-.862 10.43-1.462 13.52-3.12 5.02-2.688 10.42-4.95 15.78-7.301 5.07-2.237 3.96-1.805 6.69-5.325.82-1.042 3.46-3.44 2.83-4.84-.95-2.093-2.75-6.071-4.92-7.444zM80.962 204.576c15.196-12.368 25.425-27.668 37.655-41.398 12.525-14.052 25.519-27.92 39.599-41.288 30.243-28.719 66.11-52.625 110.229-71.48 22.325-9.537 45.455-18.297 68.772-26.668 11.933-4.281 23.848-9.137 36.514-12.347 11.418-2.893 23.569-6.95 35.509-8.506 5.911-.774 11.182-2.241 17.272-2.768.571-.053 1.14-.084 1.711-.121h-4.826c-5.006.59-9.918 1.378-14.493 2.063-11.175 1.678-21.873 5.292-32.697 7.849-11.876 2.804-22.691 7.113-33.82 11.027-44.759 15.746-90.84 32.68-128.229 55.886-43.744 27.147-75.464 61.811-105.575 96.033-7.724 8.775-14.486 17.929-23.1 26.331-9.816 9.558-22.754 17.65-35.889 25.073C34.46 232.816 17.68 239.787 0 245.558v.826c30.79-10.122 58.8-23.78 80.962-41.808zM460.81 5.046C456.866 2.44 452.383.869 447.604 0h-9.574a92.36 92.36 0 017.037.7c6.363.879 11.986 3.056 16.601 6.102 6.653 4.383 6.957 10.774 7.168 16.614.696 19.061-1.967 37.81-5.973 56.665-7.607 35.854-14.064 71.402-27.691 106.518-12.533 32.323-29.196 63.089-61.308 88.946-30.368 24.454-70.1 42.55-111.878 56.923-10.838 3.725-21.965 6.639-33.139 9.827-11.777 3.368-23.114 7.556-34.664 11.28-24.574 7.924-49.235 15.731-73.794 23.675C81.75 389.739 41.723 398.103 0 402.491v.895c37.803-3.904 74.472-11.027 109.659-21.812 24.606-7.545 48.853-15.688 73.294-23.464 11.862-3.777 23.693-7.607 35.446-11.532 11.689-3.892 23.989-6.723 35.74-10.532 41.42-13.463 80.361-30.634 111.988-53.345 30.97-22.239 49.227-48.627 62.525-77.53 15.532-33.771 24.246-68.335 31.033-103.325 3.56-18.392 8.105-36.706 9.94-55.234.828-8.354.711-16.688.406-25.047-.234-6.487-2.217-11.906-9.221-16.52z" fill="#F5F5F5"/><path d="M1918.65 117.92c-43.68-4.92-88.04-11.269-128.22-23.485-10.48-3.188-21.51-5.387-31.8-8.918-10.88-3.73-21.24-8.595-31.52-13.046-9.96-4.31-19.64-8.913-28.84-13.947-8.82-4.83-26.38-13.51-27.22-21.812-1.66-16.529 31.11-23.437 49.64-26.999 26.02-4.992 54.79-4.866 81.17-1.262 40.73 5.555 78.34 18.002 116.79 28.408v-.878c-38.41-10.316-75.84-22.475-116.44-28.357-22.87-3.308-46.98-3.345-69.98-.578-18.36 2.215-40.33 7.05-54.56 15.666-5.52 3.347-7.2 7.514-7.76 12.295-.81 6.84 6.73 10.938 13.3 15.468 15.45 10.637 34.11 18.923 52.71 26.768 41.96 17.681 89.92 28.166 137.95 35.553 14.84 2.277 29.79 4.203 44.78 5.939v-.815z" fill="#F5F5F5"/><path d="M1918.32 94.272c-26.04-1.962-51.99-4.577-77.3-9.318-16.81-3.145-33.11-7.454-48.54-12.973-7.03-2.52-13.76-5.413-20.29-8.496-8.45-3.998-20.29-9.186-23.76-16.061-3.9-7.803 6.47-13.41 15.78-15.736 7.32-1.83 15.31-1.883 23-1.599 18.8.705 37.21 3.935 54.88 8.123 26.43 6.26 51.2 15.187 76.23 23.626v-.915c-29.17-9.77-57.98-20.102-89.27-26.488-17.31-3.531-36.98-6.377-55.13-5.072-10.34.747-26.39 4.709-27.19 13.194-1.04 11.295 17.09 18.15 29.22 23.717 16.04 7.349 33.89 12.725 52.18 16.902 29.1 6.65 59.66 9.733 90.19 11.974v-.878zM436.71 83.074c-.141-13.826.978-27.32-11.751-38.993-10.972-10.06-32.204-11.038-48.963-9.29-23.098 2.403-45.361 10.331-65.883 17.502-20.755 7.255-40.458 15.793-58.425 25.91-3.476 1.957-7.981 2.967-11.261 4.919a668.6 668.6 0 00-12.509 7.622c-8.809 5.499-17.258 11.249-25.411 17.189-14.876 10.842-28.252 22.605-39.833 35.157-12.174 13.19-20.935 27.605-32.672 40.973-12.315 14.025-25.417 28.708-41.263 41.03-14.633 11.379-33.445 20.97-52.694 28.504-11.127 4.355-23.45 6.781-35.265 10.053-.266.073-.523.148-.78.221v1.011c8.497-2.274 17.078-4.373 25.472-6.819 20.132-5.861 38.934-15.635 54.802-25.784 16.914-10.816 29.042-24.521 41.536-37.668 13.213-13.899 23.271-28.662 35.008-43.086 11.377-13.995 25.527-26.885 41.082-38.869 7.262-5.597 14.955-10.932 22.833-16.129 3.991-2.63 8.074-5.199 12.19-7.74 4.717-2.92 9.73-4.94 14.985-7.27 9.745-4.319 18.312-10.126 28.026-14.605 10.347-4.765 21.225-8.99 32.259-12.973 22.872-8.249 47.758-16.797 73.809-18.844 12.714-1.005 27.574.584 37.569 6.287 8.401 4.797 12.526 12.563 14.727 19.612 2.623 8.402 1.139 17.966 1.187 26.542.054 9.69-.454 19.37-2.131 28.998-1.43 8.154-1.133 16.277-2.663 24.426a381.956 381.956 0 01-6.536 28.803c-4.57 17.02-10.621 34.081-19.508 50.321-17.827 32.582-51.085 58.528-92.004 79.041-19.764 9.906-41.48 18.46-64.602 24.215-23.31 5.808-47.439 10.291-70.037 17.277-34.212 10.575-65.861 24.337-100.82 33.891-24.927 6.808-50.76 12.195-77.184 15.394v.883c36.833-4.398 72.684-12.984 106.184-24.01 22.669-7.471 44.355-16.235 67.039-23.695 24.075-7.913 50.087-12.643 75.154-18.919 42.144-10.543 82.133-29.887 111.729-52.688 15.11-11.637 28.674-24.353 38.177-38.478 10.05-14.936 16.689-30.866 22.161-46.811 5.591-16.293 9.255-32.865 12.292-49.459.71-3.867.382-7.818.382-11.711 0-4.239 1.579-8.717 2.226-12.942 1.477-9.622 1.468-19.339 1.366-28.998zm292.593 37.49c-3.64 9.768-3.819 21.375 9.007 28.093 4.727 2.473 16.248-.322 20.195-2.247 10.191-4.966 21.532-9.123 30.335-15.22 33.296-23.085 68.947-45.038 95.124-72.254 2.309-2.409 6.288-5.57 7.407-8.348.512-1.236-2.066-3.757-2.853-4.645-4.542-5.077-11.022-4.214-18.967-4.23-18.34-.026-36.54 2.899-53.447 7.56-33.38 9.207-61.885 26.82-77.174 48.963-4.881 7.06-7.964 14.63-9.627 22.328-.115.536 1.094.768 1.209.226 10.222-47.333 81.312-81.419 150.33-77.93 7.58.384 9.512 7.302 6.525 10.732-2.406 2.772-4.996 5.466-7.638 8.138-6.346 6.45-13.421 12.569-20.733 18.524-13.747 11.195-28.851 21.601-43.999 31.918-7.638 5.193-15.314 10.359-22.927 15.572-8.86 6.061-18.628 10.649-28.972 15.452-5.13 2.383-9.832 4.056-15.928 5.013-9.897 1.552-14.816-4.16-17.311-9.248-2.827-5.766-1.477-12.426.653-18.171.204-.537-1.017-.763-1.209-.226zm-2.132 291.681c10.689 9.659 23.797 17.983 38.03 25.221 30.955 15.731 68.065 25.307 105.257 31.84 43.877 7.702 89.456 11.382 134.692 12.309 26.92.56 53.85.578 80.71 2.086 27.19 1.513 53.93 5.827 79.39 12.468 48.58 12.688 78.28 43.106 112.63 67.939 33.79 24.453 69.54 47.683 107.49 69.158 8.25 4.672 16.64 9.232 25.1 13.701h2.1c-33.75-17.834-65.8-37.081-96.34-57.419-17.77-11.834-34.95-24.061-51.77-36.521-16.55-12.257-31.78-25.565-49.76-36.9-35.23-22.229-85.19-30.849-132.09-33.469-26.83-1.496-53.81-1.409-80.7-1.957-26.778-.556-53.069-2.482-79.54-5.197-78.057-7.978-163.515-27.009-205.856-75.632-14.208-16.309-16.428-34.458-4.402-51.809 10.632-15.346 25.115-29.298 40.436-42.64 14.624-12.736 31.096-24.679 44.165-38.179 13.958-14.435 26.157-29.381 41.331-43.291 16.05-14.716 32.529-29.219 50.748-42.756 8.054-5.982 16.197-11.9 24.584-17.671 4.241-2.92 8.597-5.761 12.998-8.57 4.133-2.637 9.263-3.888 13.409-6.424 35.97-21.995 80.857-35.533 126.477-45.597 22.27-4.918 44.93-9 67.56-13.078 4.95-.89 9.93-1.71 14.85-2.693 3.99-.8 7.43-2.33 11.75-3.015 12.96-2.047 25.86-4.261 38.65-6.75 11.63-2.261 22.99-4.456 34.83-6.203 4.01-.594 6.93-.862 10.3-2.372 5.53-2.473 15.22-2.799 21.62-3.83 26.8-4.335 53.66-8.565 81.12-10.443 52.83-3.624 105.09 5.94 154.88 16.93 51.92 11.458 101.3 27.414 151.61 41.555 11.78 3.31 23.58 6.577 35.34 9.907 12.97 3.672 25.25 8.349 38.13 12.179 4.48 1.326 9.53 1.489 14.12 2.893 4.81 1.473 9.67 2.878 14.54 4.267 12.51 3.567 25.23 6.782 38.07 9.764 40.74 9.465 83.08 15.705 125.93 18.572v-.869c-44.83-3.035-88.91-9.843-131.51-19.912-12.76-3.02-25.35-6.398-37.78-9.991-4.77-1.383-9.55-3.283-14.48-4.366-6.51-1.441-12.83-2.441-19.11-4.503-22.59-7.408-45.56-13.873-68.74-20.403-50.29-14.177-99.72-30.176-151.83-41.229-48.56-10.29-97.88-18.798-149.17-15.651-25.4 1.562-50.37 5.487-75.12 9.454-9.39 1.504-21.63 1.982-29.77 5.613-4.39 1.968-11.94 2.125-17.06 2.888-6.98 1.047-13.63 2.347-20.45 3.766-11.67 2.42-23.47 4.478-35.32 6.435-5.49.91-11.11 1.61-16.53 2.688-.87.174-2.36.958-3.08 1.284-2.95 1.32-7.3 1.625-10.65 2.231-22.68 4.077-45.32 8.165-67.71 12.909-42.52 9.013-83.803 21.018-119.249 39.557-4.51 2.358-8.841 4.862-13.108 7.408-3.563 2.131-7.67 2.846-11.15 5.004-9.608 5.955-18.698 12.284-27.628 18.702-16.85 12.126-33.393 24.678-47.972 38.094-15.461 14.215-30.43 28.194-43.787 43.355-13.441 15.246-29.433 28.772-45.886 42.54-14.509 12.142-28.525 24.552-40.378 37.973-11.668 13.205-20.471 26.831-19.166 42.509 1.107 13.394 12.692 25.694 24.245 36.141zM1834.52 645.83c26.43-22.066 50.7-46.235 84.71-62.698v-1.065c-34.77 16.658-59.36 41.339-86.33 63.763h1.62z" fill="#F5F5F5"/><path d="M407.881 84.316c-3.819-10.78-20.328-22.17-37.029-22.191-9.435-.011-19.579-.948-28.722.826-10.902 2.115-21.498 4.893-31.844 8.028-40.092 12.163-77.91 31.792-105.015 55.176-27.042 23.332-44.525 50.921-65.735 76.662-18.522 22.48-40.216 43.145-72.356 57.534-14.83 6.634-31.314 11.4-48.354 14.715-2.092.41-3.02 1.704-5.044 2.278-4.334 1.22-9.183 1.952-13.782 2.799v.862l1.522-.3c9.824-1.946 18.007-4.74 27.565-6.897 18.367-4.151 35.914-10.553 51.079-18.703 34.742-18.681 55.654-45.132 75.87-71.29 21.068-27.241 42.051-54.698 75.644-75.983 17.236-10.917 36.968-20.434 57.334-28.473 10.253-4.05 20.983-7.527 31.977-10.558 11.886-3.278 24.176-6.56 37.154-5.75 5.171.32 10.239-.074 15.407-.069 8.114.011 15.243 3.951 20.624 7.654 9.807 6.756 13.54 15.773 15.758 24.822 4.507 18.345 2.819 37.163-.063 55.55-2.662 17.019-6.208 33.98-13.048 50.489-3.443 8.302-7.996 16.372-13.408 24.174-2.592 3.741-5.545 7.359-8.622 10.927.095-.106-.788.884-.818 1.247-.219 2.624-1.696 4.224-3.725 6.387-24.021 25.531-58.349 45.886-99.072 58.396-24.418 7.502-50.898 10.653-76.426 15.893-11.869 2.436-22.613 6.25-34.217 9.096-11.776 2.894-21.881 6.66-32.587 11.069-24.668 10.143-49.946 19.602-76.637 27.104-16.352 4.597-33.734 7.66-51.311 9.943v.652a716.64 716.64 0 0037.654-6.102c22.45-4.283 44.402-12.826 64.65-20.455 10.69-4.03 21.178-8.302 31.625-12.616 11.363-4.692 23.154-7.327 35.242-10.915 25.137-7.46 51.296-11.154 77.48-16.525 40.559-8.328 76.472-24.853 104.154-46.438 6.357-4.957 12.135-10.233 17.587-15.651 5.848-5.814 8.636-11.727 13.43-17.919 10.963-14.168 17.672-29.657 22.279-45.276 9.519-32.285 15.251-67.855 3.78-100.172zm586.276 384.153c43.823 1.116 88.053-.328 131.713 2.715 22.06 1.534 44 4.469 64.4 10.49 21.3 6.271 37.08 16.424 51.43 28.522 16.39 13.86 31.27 28.513 47.13 42.645 14.78 13.162 30.97 24.979 48.3 36.585 8.28 5.547 16.22 11.335 24.59 16.825 9.7 6.353 20.41 11.951 30.83 17.752 13.57 7.564 27.16 15.106 40.98 22.463h2.02c-15.04-7.974-29.78-16.205-44.53-24.411-19.57-10.891-37.08-22.579-55.06-34.616-18.73-12.545-35.65-25.591-51.47-39.891-14.62-13.205-28.6-26.711-43.86-39.593-13.3-11.236-28.2-20.097-47.51-26.337-17.89-5.784-37.62-8.645-57.15-10.477-42.39-3.956-85.78-2.538-128.46-3.254-90.098-1.504-187.934-11.162-250.548-59.825-7.67-5.966-13.933-12.679-17.886-20.139-4.529-8.554-3.397-17.561-.953-26.315 4.689-16.813 17.278-32.218 29.854-46.842 12.852-14.947 28.384-29.146 43.34-43.156 14.912-13.973 31.915-26.857 44.338-41.913 6.116-7.408 14.873-13.843 22.172-20.744 8.54-8.081 17.579-15.231 27.846-22.339 18.501-12.81 37.41-25.388 58.949-35.884 21.161-10.318 43.088-18.908 66.558-26.61 24.1-7.912 49.5-13.863 74.93-19.518 48.82-10.858 98.82-19.144 149.19-25.925 54.18-7.298 110.48-16.063 165.46-7.192 46.11 7.444 91.53 14.141 135.93 25.662 47.08 12.227 92.64 26.958 138.91 40.515 40.74 11.942 82.3 25.942 126.43 30.871 3.99.441 7.99.737 12 1.01 3.39.226 8.31-.052 11.29 1.13.84.332 2.13 1.09 3.1 1.279 10.21 2.041 21.42 2.594 31.98 3.43 12.21.974 24.38 1.952 36.42 3.631.86.121 1.72.231 2.58.341v-.826c-4.95-.626-9.89-1.362-14.78-1.898-12.96-1.437-26.08-2.143-39.09-3.383-5.59-.537-13.12-.68-18.05-2.636-3.09-1.221-3.82-1.516-7.47-1.626-13.77-.431-27.39-2.262-40.7-4.65-24.58-4.42-47.94-11.537-71.26-18.276-24.52-7.092-49.01-14.179-73.36-21.534-47.68-14.399-95.58-29.44-145.74-39.5-24.81-4.97-50.18-8.516-75.39-12.404-25.72-3.96-50.59-6.318-77.06-5.561-25.96.748-51.41 4.472-76.88 7.619-25.54 3.15-50.97 6.706-76.24 10.705-49.89 7.89-99.06 17.845-146.91 30.25-46.21 11.975-89.148 30.166-125.483 52.84-18.034 11.255-36.463 23.091-50.671 36.638-7.254 6.918-16.421 13.368-22.761 20.617-7.331 8.391-14.502 16.225-23.413 23.922-30.424 26.284-61.066 54.077-82.835 84.127-9.576 13.205-16.959 27.883-16.639 42.75.269 12.763 11.144 24.159 23.1 33.449 58.641 45.589 151.801 56.346 236.389 58.492z" fill="#F4F4F4"/><path d="M1812.09 646.913c17.27-13.636 33.58-27.833 51.07-41.339 11.14-8.607 22.91-16.817 35.5-24.454 6.14-3.723 13.01-6.753 20.13-9.542v-.874c-5.61 2.198-11.1 4.512-16.3 7.162-13.31 6.788-24.88 15.576-36.02 23.898-19.49 14.584-37.15 30.228-56.06 45.149h1.68zM807.283 413.149c29.439 18.665 67.955 29.09 106.945 34.607 19.569 2.754 39.534 4.176 59.467 4.9 25.063.918 50.265 1.737 75.385 1.672 24.82-.06 49.52-1.857 74.38-1.935 26.73-.073 53.55 1.19 79.83 4.62 22.63 2.948 39.48 13.498 51.93 26.044 6.62 6.68 14.04 13.037 19.65 20.135 5.7 7.219 11.45 14.429 17.3 21.583 11.34 13.847 23.01 27.389 37.44 39.887 13.93 12.071 29.24 23.307 45.54 33.913 17.18 11.184 35.44 21.644 53.3 32.302 9.75 5.818 20.32 10.709 30.99 15.519h1.04c-2.01-.927-4-1.87-5.96-2.831-11.2-5.439-22-11.309-32.23-17.563-18.15-11.089-36.9-21.673-54.28-33.331-17.5-11.761-33.53-24.497-47.88-38.077-14.7-13.92-26.38-29.461-38.36-44.498-10.72-13.446-22.86-27.492-38.39-38.71-13.99-10.123-31.53-14.33-51.24-16.541-25.91-2.913-52.27-3.491-78.48-3.241-26.88.255-53.54 2.116-80.45 1.802-86.14-1.034-190.725-4.366-245.937-56.703-6.685-6.346-11.368-13.49-13.421-21.16-2.508-9.353 1.682-18.75 5.699-27.619 6.928-15.352 17.701-29.772 29.676-43.577 11.566-13.347 24.533-26.12 37.02-39.077 13.792-14.321 26.727-28.841 42.271-42.357a452.567 452.567 0 01108.34-69.849c9.732-4.456 19.782-8.57 30.002-12.478 5.12-1.957 10.32-3.809 15.54-5.634 6.35-2.215 15.26-6.335 22.47-6.598 3.81-.142 6.97-1.357 10.45-2.378 6.82-1.994 13.78-3.83 20.72-5.614 12.94-3.314 26.08-6.234 39.28-9.017 51.54-10.869 103.99-20.932 157.62-25.646 53.71-4.724 106.87-2.894 159.67 5.108 42.7 6.471 84.15 16.235 125.6 25.589 10 2.257 19.21 5.761 28.46 9.112 8.47 3.067 16.67 5.05 25.75 7.092 22.49 5.071 43.62 12.962 64.82 20.096 17.45 5.882 35.48 10.223 53.81 14.836 20.88 5.256 42.5 9.143 64.29 12.258 33.99 4.86 68.64 7.413 103.29 9.159v-.874c-43.63-2.24-87.13-5.834-129.55-13.351-11.77-2.089-23.38-4.562-34.83-7.313-5.76-1.379-11.44-2.893-17.1-4.456-4.54-1.257-11.37-4.493-16.47-4.677-7.06-.257-13.76-3.261-19.96-5.361-5.7-1.92-11.39-3.829-17.09-5.729-12.61-4.219-25.3-8.365-38.04-12.421-9.72-3.088-20.68-4.098-30.41-7.255-10.46-3.403-20.37-7.512-31.11-10.559-23.82-6.749-49.63-11.431-74.3-16.567-48.91-10.19-99.08-17.908-150.44-18.297-51.72-.388-104.31 5.166-153.99 14.747-25.51 4.919-51.12 9.575-76.43 14.973a917.685 917.685 0 00-36.19 8.496 551.49 551.49 0 00-15.07 4.088c-5.61 1.604-11.93 2.051-17.31 3.734-43.86 13.711-84.88 31.671-119.571 54.509-17.521 11.532-34.128 23.685-49.487 36.553-14.86 12.458-27.437 25.82-40.09 39.309-24.015 25.594-50.786 50.152-67.342 78.546-7.766 13.31-14.95 27.861-10.171 42.203 4.484 13.468 19.134 24.737 33.604 33.902zM1787.87 646.04c21.87-14.812 39.33-32.31 58.41-48.829 20.4-17.67 43.89-32.16 72.69-41.951v-.97c-26.58 8.921-48.92 21.803-68.21 37.762-21.72 17.972-40.41 37.646-64.72 53.988h1.83z" fill="#F5F5F5"/><path d="M884.204 424.657c83.148 27.022 177.906 18.791 265.946 10.469 20.68-1.957 41.98-5.25 62.92-4.146 22.1 1.168 40.11 8.524 53.95 19.941 15.71 12.964 22.11 28.367 31.17 43.653 7.9 13.322 16.9 26.328 26.91 38.973 20.71 26.191 46.7 50.39 78.04 71.201 16.26 10.796 35.07 19.287 53.01 28.682 8.48 4.443 17.01 8.839 25.91 12.817h2.28c-12.89-5.637-24.93-12.214-37.1-18.541-10.12-5.257-20.7-10.037-30.43-15.635-9.61-5.525-18.48-11.645-27.1-17.864-33.76-24.35-59.72-53.549-80.15-83.807-17.79-26.359-26.55-61.1-68.67-75.261-17.1-5.747-36.33-5.883-54.84-4.233-23.17 2.082-46.32 4.418-69.51 6.452-45.93 4.017-92.39 6.745-138.62 3.607-47.862-3.241-99.416-13.93-136.8-35.132-17.675-10.037-29.977-24.178-31.966-39.835-2.265-17.803 8.175-35.789 18.724-51.694 10.683-16.097 23.714-30.976 36.834-46.185 3.115-3.615 5.489-7.786 10.478-10.396 3.423-1.794 5.137-3.84 7.466-6.318 6.761-7.187 14.003-14.157 21.551-20.97 14.886-13.432 31.525-25.931 49.245-37.663 9.083-6.019 18.359-11.401 28.933-16.188 10.837-4.898 19.365-11.4 30.265-16.283 10.5-4.698 21.12-9.269 32.04-13.514 12.77-4.967 27.4-8.434 40.99-12.243 24.97-7.002 50.3-13.41 75.82-19.434 50.12-11.831 105.27-17.829 158.09-20.202 50.6-2.267 101.4 1.836 150.61 9.791 79.42 12.831 154.28 36.069 227.15 60.469 37.33 12.5 78.94 19.218 119.77 24.242 33.48 4.119 67.37 6.497 101.33 7.955v-.874c-45.39-1.978-90.57-5.681-134.92-12.636-25.93-4.062-53.65-8.67-77.55-16.735-22.28-7.518-44.68-14.878-67.29-21.922-88.26-27.5-181.87-49.853-279.92-51.647-104.5-1.91-205.76 19.824-300.33 47.933-11.63 3.456-22.33 7.623-33.09 12.216-10.59 4.529-21.32 8.827-30.19 14.83-8.214 5.551-18.443 9.301-27.571 14.099-9.851 5.177-18.628 11.821-27.271 17.877-15.954 11.168-30.577 23.18-44.011 35.768-3.403 3.188-6.685 6.435-9.915 9.702-3.289 3.33-6.097 7.528-10.44 10.279-3.327 2.105-5.291 2.978-7.549 5.751-3.563 4.382-7.356 8.681-11.15 12.973-12.768 14.462-24.494 29.067-34.179 44.618-9.161 14.699-16.421 30.261-15.187 46.401 2.239 29.251 41.05 47.201 76.317 58.659zm881.246 221.582c26.17-16.234 46.64-36.249 68.92-54.953 14.26-11.977 29.66-23.402 47.75-32.78 11.7-6.047 24.51-10.076 37.88-13.403v-.914c-11.79 2.892-23.16 6.344-33.85 11.3-17.88 8.292-32.87 19.191-46.77 30.336-25.19 20.209-46.89 42.641-75.83 60.414h1.9zM139.191 280.526c4.06 2.288 7.457 5.023 11.385 7.407 2.977 1.799 7.053 1.989 10.815 2.525 11.651 1.668 23.732 1.847 35.594 1.721 21.217-.221 42.723-.848 63.088-5.109 31.852-6.676 59.058-20.765 79.314-38.478 20.576-17.993 33.446-39.709 39.958-61.906 3.327-11.32 4.701-22.885 4.507-34.417-.095-5.707-.742-11.405-1.742-17.076-.899-5.151-1.311-11.369-5.068-15.941-4.686-5.713-7.34-12.279-14.814-16.635-6.208-3.614-13.728-6.06-21.77-6.387-9.91-.405-20.17-.683-29.487 1.684-7.903 2.004-15.531 4.461-22.958 7.17-29.307 10.707-53.163 27.011-72.381 45.218-19.638 18.608-34.288 39.462-47.032 60.564-6.466 10.701-12.347 21.565-18.062 32.46-2.89 5.497-5.716 11.006-8.544 16.519-3.529 6.86-3.662 13.105-2.99 20.381.054.547 1.311.552 1.265 0-.764-8.27.328-15.078 4.334-22.875 3.093-6.008 6.192-12.011 9.363-17.998 6.521-12.331 13.401-24.578 21.013-36.62 14.9-23.58 33.109-46.481 57.935-65.993 12.376-9.733 26.628-18.325 42.387-25.469 7.457-3.377 15.343-6.302 23.433-8.917 4.811-1.557 9.769-2.91 14.759-4.177 7.201-1.825 16.132-1.2 23.731-1.163 27.464.137 39.677 19.691 43.098 35.481 2.646 12.23 2.874 24.689 1.343 36.994-4.334 34.874-25.535 69.733-63.761 93.801-19.302 12.153-43.041 20.602-68.569 24.922-16.727 2.83-35.163 2.814-52.35 3.115-9.863.173-19.717-.128-29.493-1.022-6.225-.567-13.065-1.188-17.954-4.15-3.294-1.989-6.044-4.309-9.456-6.229-.618-.353-1.515.247-.891.6z" fill="#F5F5F5"/><path d="M896.943 406.157c7.983 3.578 15.398 5.02 23.886 7.775 10.613 3.431 21.827 5.957 33.195 7.944 45.986 8.039 95.196 4.189 141.336-1.252 25.49-3.009 50.5-7.639 75.37-12.457 12.06-2.347 24.08-4.746 36.16-7.082 13.83-2.672 26.7-6.323 41.33-4.271 21.8 3.061 39.03 13.499 50.76 25.852 12.45 13.09 17.03 28.23 21.38 43.254 8.65 29.935 21.38 58.061 44.22 84.479 35.46 41.046 88.5 75.158 151.4 96.319h2.82c-67.56-22.316-123.14-59.531-159.38-104.21-4.87-6.008-9.29-12.171-13.43-18.433-1.86-2.84-1.73-6.102-3.69-8.826-3.42-4.758-6.29-9.641-8.76-14.657-7.74-15.731-10.77-32.354-16.15-48.485-8.15-24.433-28.61-48.601-66.43-55.725-9.03-1.694-18.07-1.389-27.02.326-12.87 2.473-25.72 5.167-38.59 7.702-24.8 4.883-49.62 9.701-74.89 13.353-49.62 7.175-103.28 11.436-153.289 3.746-12.308-1.884-24.238-4.766-35.702-8.312-2.712-.843-6.896-3.157-9.858-3.272-6.166-.243-11.239-3.252-16.248-5.494-20.221-9.038-39.137-20.707-44.856-37.226-5.988-17.308 1.337-35.8 10.395-51.983 9.385-16.771 22.3-32.544 35.977-47.869 12.238-13.715 27.846-26.73 42.668-39.204 13.978-11.758 29.235-22.78 46.065-32.691 8.495-5.009 18.178-9.101 26.128-14.484 9.55-6.46 21.22-11.268 32.55-16.199 19.6-8.527 40.01-16.192 61.08-22.937 43.78-14.01 90.55-22.611 138.04-28.561 26.82-3.357 52.79-7.266 80.2-7.608 27.35-.341 55.14 1.3 82.12 4.251 45.73 5.004 91.08 14.494 134.64 24.995 46.59 11.226 90.57 26.52 135.4 40.551 19.95 6.239 40.02 12.021 60.85 16.782 10.45 2.389 21.43 4.11 32.22 5.571 4.64.626 9.45.706 14.15.774 6.15.095 10.95 1 16.76 2.11 3.79.72 8.51.478 12.42.673 6.57.337 13.13.699 19.7 1.062 12.03.669 24.06 1.38 36.1 2.074 17.01.978 34.01 1.915 51.05 2.709v-.852c-19.22-.9-38.42-1.978-57.61-3.093-13.14-.758-26.25-1.516-39.39-2.232-6.56-.357-13.14-.688-19.69-1.009-5.86-.285-10.44-2.273-16.44-2.278-25.7-.016-50.55-6.513-74.26-12.658-26.22-6.797-51.49-15.473-76.89-23.574-23.5-7.502-46.96-15.92-71.35-21.975-24.33-6.04-48.84-11.538-73.65-16.598-50.35-10.259-100.9-17.214-153.59-18.103-25.86-.437-50.24 1.947-75.46 5.392-24.29 3.32-48.64 6.251-72.66 10.464-43.94 7.713-85.82 19.839-125 35.296-9.87 3.893-19.52 8.044-29.05 12.315-4.89 2.195-9.72 4.456-14.52 6.734-5.52 2.615-9.37 6.456-14.86 9.123-17.772 8.681-33.88 18.813-48.689 29.73-31.16 22.973-58.795 49.225-80.04 76.861-10.977 14.29-20.605 29.429-25.613 45.224-4.287 13.51-5.489 30.029 4.791 42.517 9.691 11.774 25.556 20.35 41.894 27.652zm836.897 240.661c34.62-17.149 58-42.654 85.21-65.202 27.19-22.531 59.26-42.615 100.26-50.454v-.862c-38.34 7.262-68.98 25.095-95.22 45.894-30.22 23.958-54.52 52.295-92.4 70.624h2.15z" fill="#F5F5F5"/><path d="M1769.35 607.394c22.51-19.286 40.3-41.119 66.3-58.479 22.52-15.028 52.21-23.57 82.94-27.906v-.81c-14.74 2.103-29.17 5.155-42.98 9.258-19.57 5.818-35.81 14.743-50.1 25.388-31.56 23.519-52.04 52.769-87.43 74.119-12.04 7.262-24.88 12.899-38.25 17.118h2.63c26.77-8.709 48.49-22.914 66.89-38.688zm-754.99-194.896c49.88 2.082 98.52-7.271 142.79-22.297 9.29-3.146 18.85-4.997 28.25-8.038 10.75-3.462 21.96-6.229 33.46-8.302 22.76-4.114 47.09-4.187 68.82 2.41 21.68 6.586 37.2 21.454 46.18 35.9 8.64 13.889 11.63 29.157 13.97 44.025 1.12 7.098 2.02 14.222 3.15 21.325.47 2.999.99 5.999 1.59 8.986 1.07 5.232 3.99 10.153 4.47 15.424.64 6.934 3.49 13.145 7.69 19.454 2.63 3.982 6.06 7.598 8.52 11.649 2.08 3.444 3.91 6.905 6.31 10.24 2.58 3.577 6.56 6.629 9.56 10.046 2.94 3.345 5.45 6.87 8.35 10.24.43.483 2.85 1.944 3.46 2.353 6.73 4.56 1.23 1.772 3.95 4.582 3 3.081 6.78 5.689 9.4 8.981 2.23 2.802 6.9 5.422 10.03 7.801 3.91 2.965 7.96 5.87 12.07 8.718 8.75 6.116 18.02 11.848 27.66 17.291 24.74 13.951 53.08 25.578 83.34 33.543h5.41c-33.01-8.197-64.15-20.769-90.1-35.405-18.66-10.533-37.37-22.656-50.89-36.352-2.44-2.483-4.83-5.064-7.21-7.504-2.7-2.788-6.43-4.852-8.89-7.848-6.44-7.869-14.44-15.11-19.28-23.496-4.12-7.111-9.9-13.593-13.99-20.696-2.52-4.365-3.89-8.925-4.12-13.597-.22-4.228-2.86-7.986-3.79-12.11-3.3-14.697-4.29-29.574-7.29-44.296-5.4-26.505-19.25-55.881-56.57-69.223-35.67-12.742-78.99-4.082-112.63 7.366-4.48 1.525-8.94 1.283-13.34 2.903-5.37 1.978-10.85 3.831-16.38 5.619-12.51 4.062-25.44 7.481-38.59 10.448-25.88 5.839-51.73 8.712-78.98 9.176-48.541.809-106.914-8.092-136.219-36.616-29.145-28.367-2.194-65.909 18.475-92.671 19.914-25.79 46.41-49.08 76.905-69.534 15.789-10.595 32.829-20.312 50.649-29.314 8.36-4.219 16.94-8.222 25.66-12.095 10.18-4.513 19.44-9.269 30.28-13.046 11.12-3.867 22.18-7.824 33.29-11.696 11.3-3.929 24.17-6.481 36.16-9.538 23.21-5.923 47.5-9.743 71.53-13.768 103.52-17.329 214.67.474 310.72 27.919 31.18 8.908 61.66 18.914 92.29 28.637 15.24 4.829 30.54 9.573 45.97 14.114 15.06 4.43 30.34 9.296 46.18 12.269 14.6 2.736 30.17 3.314 45.17 4.34 18.82 1.289 37.7 1.989 56.58 2.547 28.47.836 56.98 1.252 85.43 2.336v-.864c-47.32-1.815-94.8-1.788-142.01-4.871-13.07-.853-26.26-1.663-39.14-3.404-12.88-1.747-25.06-5.572-37.14-8.944-25.25-7.055-49.97-14.925-74.67-22.801-46.38-14.793-92.77-29.582-141.7-40.15-24.47-5.283-49.42-9.486-74.6-12.833-24.55-3.256-48.95-4.661-73.92-5.444-50.79-1.589-100.32 5.36-148.79 15.083a461.617 461.617 0 00-33.25 7.95c-4.59 1.277-9.31 1.73-13.92 2.745-5.84 1.284-11.63 3.983-17.1 5.887-11.12 3.888-22.19 7.845-33.33 11.701-10.38 3.593-19.26 8.654-29.03 13.047-69.595 31.233-127.488 74.4-161.405 126.282-16.281 24.9-31.339 55.356-3.41 79.325 28.019 24.042 74.583 32.28 117.965 34.091z" fill="#F5F5F5"/><path d="M1918.59 509.671c-37.51 3.732-73.7 9.205-103.09 27.259-15.75 9.684-26.9 22.415-38 34.564-11.09 12.145-21.85 24.436-35.14 35.568-31.06 26.052-78.57 38.18-127.42 36.443-50.37-1.797-99.35-17.433-137.38-39.434-36.26-20.98-66.53-47.644-83.85-77.967-18.6-32.586-11.6-68.538-18.76-102.544-1.63-7.818-3.93-15.541-7.32-23.107-1.45-3.241-3.31-6.396-5.27-9.522-2.55-4.083-7.53-8.049-7.9-12.542-.31-3.598-9.98-9.544-13.46-12.079-6.59-4.798-14.34-8.806-22.56-12.226-34.19-14.204-76.21-13.131-113.25-5.387-45.54 9.522-84.52 29.492-130.35 38.394-46.82 9.111-105.183 6.787-138.37-20.266-7.363-6.007-12.161-13.236-14.368-20.864-2.591-8.944 1.548-18.198 2.757-27.11 1.113-8.206 7.114-15.904 12.167-23.337 4.676-6.892 9.884-13.61 15.411-20.207 21.666-25.884 49.923-49.069 82.133-69.245 71.62-44.843 165.23-73.515 263.03-77.214 26.22-.989 52.57.179 78.48 2.878 26.02 2.704 50.82 8.507 75.54 14.404 26.13 6.23 51.88 13.169 77.2 20.78 10.52 3.163 21.14 5.146 31.46 8.698 12.14 4.197 24.23 8.475 36.34 12.741 25.97 9.154 52 18.208 78.65 26.42a891.312 891.312 0 0017.62 5.225c6.82 1.952 14.79 2.394 22.08 3.167 13.85 1.473 27.84 2.315 41.83 2.882 53.91 2.194 107.86-1.057 161.79-.678v-.857c-46.41-.369-92.81 1.842-139.23 1.267-27.92-.352-55.8-1.993-83.2-5.76-6.6-.91-14.05-4.093-20.25-5.982-5.75-1.757-11.47-3.573-17.15-5.403-12.26-3.946-24.39-8.076-36.48-12.258-23.35-8.07-46.49-16.414-69.88-24.416-3.43-1.179-6.34-2.42-10.21-2.562-6.86-.252-15.31-4.004-21.6-5.86-11.79-3.484-23.72-6.776-35.7-9.954-24.74-6.556-49.9-12.752-75.41-17.792-23.84-4.709-48.68-6.666-73.38-7.771-94.3-4.225-191.06 19.05-266 56.954-33.47 16.93-63.47 36.927-88.883 59.38a293.668 293.668 0 00-34.87 36.637c-4.932 6.166-9.417 12.49-13.613 18.897-4.05 6.161-8.54 12.222-9.135 18.966-.704 7.918-3.736 15.514-3.371 23.501.287 6.345 3.883 12.563 8.309 18.077 9.423 11.752 26.356 20.359 44.204 25.536 40.739 11.794 89.899 7.429 129.479-4.471 44.46-13.374 86.12-32.482 135.34-36.922 43.75-3.946 87.79 6.755 113.55 31.544 2.02 1.947 1.68 3.989 3.12 6.009 3.11 4.345 6.61 8.375 9.26 12.888 4.69 7.966 7.29 16.457 9.37 24.885 4.43 18.024 5.03 36.164 6.2 54.377 1.06 16.614 3.58 32.723 11.54 48.527 7.18 14.248 18.17 27.492 30.53 39.939 5.8 5.839 12.07 11.459 18.5 17.006 7.43 6.417 16.51 11.425 24.91 17.243 15.4 10.68 33.51 19.424 52.61 26.777 40.84 15.73 87.59 24.013 134.63 19.613 28.06-2.629 56.27-12.046 76.9-25.031 20.19-12.722 34.3-29.25 48.6-44.989 17.62-19.394 36.03-38.344 66.61-49.273 22.99-8.219 48.95-11.314 74.7-13.671v-.745zM201.068 246.679c3.936 4.429 7.505 11.211 14.587 13.904 9.207 3.498 18.866 5.577 29.393 6.26 18.031 1.173 35.646-3.698 50.374-10.337 28.8-12.979 47.018-35.148 55.24-57.428 4.272-11.563 5.45-23.653 3.468-35.486-1.586-9.526-5.38-19.749-17.164-25.894-11.198-5.845-25.066-7.391-38.819-5.797-17.561 2.036-30.002 10.396-41.869 18.734-36.593 25.695-59.271 59.78-55.296 95.827.062.548 1.321.553 1.258 0-3.429-31.117 12.97-60.427 41.269-84.658 12.557-10.753 27.979-23.08 47.557-27.772 16.843-4.035 36.529-1.883 49.173 6.881 13.273 9.202 14.031 25.242 13.492 37.3-.601 13.473-5.637 26.82-13.563 39.147-15.212 23.673-46.894 46.995-87.162 48.72-10.911.463-21.709-1.341-31.572-4.376-10.143-3.121-13.9-9.402-19.28-15.457-.414-.468-1.508-.042-1.086.432z" fill="#F5F5F5"/><path d="M1919.99 499.567c-3.71.177-7.42.371-11.14.599-5.02.315-10.04.759-15.05 1.285-2.93.306-5.87.728-8.77 1.146-4.09.591-9.06-.241-12.98.466-21.09 3.775-42.7 6.986-60.76 15.674-8.63 4.155-15.13 10.115-22.02 15.468-8.34 6.482-15.26 13.446-21.76 20.824-13.11 14.921-23.78 31.069-39.84 44.718-30.9 26.238-77.91 35.004-125.96 31.879-46.58-3.029-89.84-19.652-123.07-41.339-33.01-21.54-57.17-48.928-68.24-79.019-3.22-8.735-4.25-17.687-6-26.599-1.73-8.883-3.04-17.718-2.22-26.682.8-8.555 3.09-17.015 3.72-25.591.58-8.059-1.01-16.13-2.65-24.095-6.05-29.282-23.47-58.365-64.05-72.601-38.5-13.509-86.55-13.484-127.99-7.791-44.28 6.087-80.85 23.174-122.04 34.727-19.78 5.555-40.87 9.26-62.42 8.103-22.9-1.232-47.709-9.187-59.16-23.096-9.819-11.943-7.772-26.915-1.369-39.342 1.651-3.188 3.832-6.239 6.205-9.201 2.246-2.809 1.843-5.603 3.839-8.576 4.772-7.064 10.081-13.956 15.749-20.706 22.026-26.304 51.186-49.61 84.886-69.387 36.64-21.49 78.9-38.615 124.77-49.384 24.69-5.797 50.32-9.201 76.23-11.321 28.51-2.336 55.49-1.099 83.54 2.846 26.1 3.667 51.11 8.576 75.76 15.441 25.23 7.024 49.76 15.141 74.04 23.506 23.63 8.133 47.29 16.293 70.52 24.947 10.32 3.846 20.54 7.818 30.61 11.953 5.81 2.388 11.07 5.014 16.38 7.881 4.64 2.504 10.18 3.956 14.4 6.818 6.4 4.33 19.34 5.103 27.74 7.002 10.07 2.283 19.02 5.072 29.86 5.635 26.49 1.367 53.87-1.936 80.1-4.104 27.93-2.305 55.79-4.866 83.79-6.608 13.96-.867 27.96-1.456 41.97-1.762 4.46-.099 8.92-.132 13.38-.147v-.863c-3.37.016-6.75.047-10.12.095-14.03.199-28.03.83-42.01 1.631-26.91 1.541-53.69 3.993-80.5 6.255-25.64 2.167-51.85 4.998-77.74 4.95-11.29-.021-22.72-1.615-33.11-4.509-12.01-3.34-26.36-4.055-35.83-10.453-3.19-2.172-9.32-3.614-12.99-5.597-3.98-2.152-7.65-4.025-12.06-5.871-10.88-4.568-22.03-8.844-33.25-13.043-23.17-8.685-46.9-16.793-70.5-24.947-46.24-15.977-92.89-30.597-143.84-38.131-25.9-3.829-50.61-5.944-77.18-4.639-24.71 1.215-49.38 4.213-73.21 8.748-44.64 8.486-86.01 23.732-122.76 42.692-33.7 17.387-63.22 38.305-87.27 61.9-12.478 12.237-23.193 25.268-32.437 38.741-1.842 2.689-1.74 6.081-3.844 8.576a49.285 49.285 0 00-4.747 6.655c-3.313 5.576-5.514 11.284-6.55 17.25-1.817 10.438 1.33 22.101 11.188 30.477 12.148 10.311 31.63 16.056 50.51 18.129 39.75 4.377 78.79-10.511 112.79-22.338 20.13-7.008 40.2-13.836 62.19-17.755 25.11-4.482 52.01-7.223 77.99-5.566 22.82 1.451 45.61 4.508 66.1 11.705 23.27 8.165 38.67 22.253 48.68 38.32 9.43 15.131 13.23 31.965 15.06 48.243.93 8.503-.77 17.088-2.24 25.527-1.59 9.184-2 18.015-.62 27.229 2.43 16.541 5.68 32.745 13.27 48.601 6.58 13.761 16.9 26.345 28.84 38.287 47.06 47.106 134.23 81.894 219.94 66.215 24.11-4.409 45.1-14.097 61.55-26.664 20.25-15.485 32.2-35.448 48.15-52.911 8.79-9.641 20.2-19.256 32.31-27.138 11.65-7.585 27.31-11.593 42.54-14.679 7.06-1.427 14.24-2.629 21.38-3.892 4.3-.758 8.65.181 12.79-.483 3.88-.62 7.77-1.146 11.68-1.607 8.55-1.004 17.18-1.509 25.85-1.918v-.789z" fill="#F5F5F5"/><path d="M1919.8 489.846c-40.95.526-82.15 1.013-120.75 11.374-16.29 4.366-29.04 17.036-37.89 26.738-10.95 11.972-18.72 25.168-27.56 37.878-9.52 13.718-20.75 25.863-38.35 35.512-20.03 10.973-45.31 17.623-70.92 18.825-47.43 2.198-95.52-13.649-129.57-35.038-35.35-22.225-59.03-52.644-64.89-85.07-3.21-17.92-2.56-35.87-.67-53.842 1.88-17.782 4.61-35.605 2.28-53.419-2.06-15.645-6.39-30.965-18.3-44.643-10.24-11.775-26.32-22.118-43.62-29.062-18.85-7.56-41.69-9.828-63.1-11.537-26.08-2.088-52.4-1.758-78.46.248-48.88 3.761-94.19 16.271-140.3 26.892-20.13 4.63-44.24 7.629-62.28-1.951-23.24-12.337-8.71-38.909.81-53.851 18.17-28.451 47.06-54.703 80.42-75.778 16.96-10.711 35.78-20.002 55.67-28.04 23.04-9.308 51.14-15.02 77.05-19.418 100.87-17.114 193.58 16.74 271.91 56.444 38.32 19.433 74.73 41.461 116.56 57.459 18.93 7.24 39.36 10.464 61.07 8.486 12.36-1.126 23.03-4.608 34.5-7.612 12.75-3.341 25.64-6.371 38.65-9.181 50.98-11.016 104.22-17.55 157.74-18.034v-.841c-43.16.41-85.99 4.776-127.83 12.126-25.41 4.466-50.34 10.163-74.76 16.656-12.62 3.351-23.8 5.997-37.48 6.686-13.36.674-28.43-1.452-40.44-5.24-22.64-7.134-43.24-17.529-63.03-27.719-18.62-9.581-36.95-19.413-55.56-29.014-36-18.602-73.38-36.233-114.92-48.748-43.78-13.189-91.23-19.643-139.05-15.762-24.97 2.026-49.4 7.166-72.87 13.142-22.27 5.677-42.3 13.437-61.4 22.99-34.5 17.246-63.09 39.32-85.72 63.878-12.14 13.158-22.96 26.994-29.66 41.872-5.73 12.742-9.59 28.772 5.67 39.036 11.87 7.991 29.66 8.485 45.18 6.792 22.01-2.399 42.75-9.586 63.74-14.399 49.41-11.338 100.66-18.977 153.05-17.455 25.7.741 52.96 2.909 76.67 10 21.46 6.413 40.25 19.36 52.04 32.891 13.6 15.636 17.21 35.269 17.72 53.115.53 17.971-2.75 35.91-4.24 53.839-2.76 32.862 2.42 65.995 27.34 94.866 20.57 23.841 50.51 43.718 87 56.208 40.35 13.825 87.31 17.846 129.03 4.65 17.41-5.504 33.62-13.731 45.35-24.096 12.87-11.386 20.8-24.966 29.58-37.921 6.89-10.141 14.23-20.148 23.76-29.294 5.17-4.964 11.21-9.447 17.84-13.498 9.45-5.753 20.69-8.249 32.68-10.554 32.52-6.249 66.59-6.439 100.31-6.775v-.811z" fill="#F5F5F5"/><path d="M1100.9 269.657c3.37 2.899 4.49 5.592 8.41 8.244 4.13 2.793 6.51 4.346 11.87 5.924 4.14 1.221 7.69 2.482 12.2 2.661 7.63.306 15.29.491 22.94.642 27.36.537 54.76.095 82.12-.615 27.47-.716 54.92-1.783 82.39-2.646 13.19-.416 26.4-.763 39.6-1.026 6.61-.131 13.21-.221 19.82-.29 5.78-.058 14.52 1.063 19.99-.094 9.05-1.92 19.84-2.521 27.21-6.882 6.5-3.84 14.57-9.032 15.69-15.098 2.64-14.352-7.54-28.02-16.68-40.451-4.11-5.588-8.1-10.548-13.93-15.388-5.77-4.772-12.26-9.108-19.19-13.1-11.84-6.828-25.41-12.179-39.73-16.256-48.42-13.774-104.88-10.022-152.09 4.098-24.52 7.334-46.84 17.966-65.34 31.065-21.32 15.094-39.63 37.463-35.47 58.907.1.536 1.37.547 1.26 0-3.36-17.324 8.59-32.113 20.76-46.702 4.14-4.966 11.32-9.531 17.18-13.594 6.65-4.608 13.91-8.807 21.49-12.71 27.8-14.315 61.18-23.5 95.59-27.199 34.85-3.745 71.33-1.026 103.41 9.097 15.96 5.039 30.33 12.142 42.71 20.585 15.7 10.702 25.52 24.279 33.47 38.253 5.16 9.069 9.48 21.206 1.05 29.834-10.53 10.774-29.19 14.657-47.47 14.715-33.02.105-66.04 1.241-99.02 2.362-32.9 1.121-65.79 2.23-98.73 2.473-16.41.12-32.81-.048-49.2-.5-9.55-.263-21.91-.842-29.01-5.955-2.97-2.137-6.98-4.083-8.86-6.809-1.07-1.562-1.99-2.803-3.55-4.15-.5-.432-1.4.174-.89.605z" fill="#F5F5F5"/><path d="M1164.57 247.52c14.17 15.777 44.22 16.656 68.79 17.182 29.92.642 61.69-1.078 90.3-7.387 11.16-2.462 19.82-6.181 27.76-12.074 4.75-3.519 10.75-8.754 11.47-13.614.95-6.446-.61-12.348-4.47-18.267-15.45-23.69-59.35-30.623-94.03-28.719-24.91 1.368-48.95 7.929-69.02 17.887-9.59 4.762-19.69 10.543-24.67 17.924-2.7 3.998-7.69 8.023-8.33 12.411-.73 5.045-.74 9.822 2.14 14.551.31.506 1.54.285 1.22-.226-9.75-15.957 9.39-32.443 26.71-42.05 16.18-8.965 35.78-14.926 56.11-18.009 40.63-6.165 96.57 1.194 111.37 31.198 6.9 14.004-6.28 28.056-24.42 34.754-11.6 4.271-25.37 6.128-38.22 7.685-31.42 3.815-65.59 4.914-97.08.81-14.57-1.898-26.49-5.528-34.53-14.488-.42-.468-1.52-.042-1.1.432zm-900.002-38.102c3.069 3.278 6.123 6.813 12.05 7.514 4.028.473 7.997-.385 11.494-1.652 8.707-3.168 12.908-10.681 12.572-17.03-.382-7.071-8.886-11.637-19.138-9.654-3.624.705-9.269 5.86-11.488 7.876-4.342 3.95-6.558 7.78-5.575 12.731.101.537 1.366.542 1.257 0-1.398-7.071 4.483-12.053 11.494-16.746 10.699-7.149 21.795-1.457 22.249 6.934.266 4.914-3.28 9.759-8.24 13.2-2.958 2.058-6.926 3.204-11.087 3.556-7.169.611-11.136-3.566-14.502-7.16-.437-.462-1.523-.036-1.086.431zM1919.31 478.087c-18.11-.414-36.22-.444-54.29-1.064-24.77-.854-49.27-4.211-74.11-4.263-10.54-.021-20.97.983-31.07 3.013-10.56 2.111-17.29 5.469-24.91 10.628-5.91 3.995-7.92 10.33-10.03 15.558-3.2 7.977-5.74 16.079-8.44 24.13-5.32 15.855-11.64 31.552-23.97 45.653-13.11 15.024-32.37 24.871-57.38 29.017-47.3 7.861-95.06-7.016-127.91-29.504-17.27-11.826-31.14-25.716-39.64-41.339-8.13-14.963-10.51-31.082-10.32-46.916.22-17.687 4.82-34.965 9.09-52.357 4.45-18.097 8.73-36.227 12.37-54.408 1.61-8.05 3.05-16.11 4.34-24.18 1.56-9.68 1.08-19.991 7.53-28.892 11.45-15.799 45.88-11.57 65.34-6.55 35.99 9.296 67.52 31.349 108.64 22.438 19.96-4.325 36.67-14.295 51.91-23.639 8.15-4.997 16.09-10.143 24.36-15.05 4.9-2.899 10.53-5.151 15.39-8.123 2.83-1.72 5.5-3.567 8.19-5.382 2.32-1.583 6.76-2.415 9.82-3.514 1.25-.448 2.64-1.515 3.62-2.174 3.28-2.219 7.22-3.608 11.22-5.133 7.02-2.679 14.03-4.998 21.56-6.998 14.06-3.73 28.69-6.424 43.44-8.596 21.45-3.157 43.34-4.809 65.25-5.814v-.841c-40.16 1.857-80.6 5.861-117.6 16.793-9.49 2.804-19.14 6.175-26.44 11.121-3 2.031-8.33 2.704-11.77 4.551-5.91 3.177-10.77 7.16-16.86 10.269-15.46 7.871-28.9 17.361-43.73 25.784-15.98 9.085-34.35 17.103-55.66 18.219-22.32 1.168-42.58-7.808-61.27-14.81-16.85-6.313-34.14-12.431-53.51-14.11-17.61-1.526-35.83 1.247-44.07 12.621-4.28 5.898-4.4 12.595-5.3 18.992-1.32 9.533-2.98 19.044-4.79 28.546-3.59 18.876-8.06 37.689-12.67 56.46-7.57 30.996-15.1 62.129-3.32 93.151 19.83 52.217 112.01 101.007 192.5 75.882 26.17-8.163 42.19-26.229 51.77-43.856 5.44-9.973 8.88-20.42 12.33-30.776 3.65-10.973 6.15-23.169 14.13-33.142 9.09-11.356 32.02-14.679 49.3-15.649 17.39-.978 34.98.845 52.2 2.203 28.19 2.228 56.49 2.111 84.76 2.848v-.797z" fill="#F5F5F5"/><path d="M1919.69 468.435c-67.74-3.081-142.94-11.058-183.03-51.418-6.48-6.524-11.48-13.553-13.73-21.297-2.75-9.458-.25-19.36 2.97-28.598 5.52-15.773 14.65-30.018 28.25-43.365 27.93-27.363 69.44-46.138 116.57-54.83 16-2.951 32.44-4.661 48.97-5.477v-.825c-39.13 1.983-78.23 8.943-110.91 23.815-17.36 7.897-32.91 17.519-46.22 28.415-12.18 9.949-25.32 22.459-30.79 34.969-6.14 14.079-13.88 29.324-10.49 44.212 2.98 13.08 13.88 24.506 26.72 34.25 23.58 17.92 57.33 27.737 91.1 33.405 26.35 4.43 53.48 6.378 80.59 7.598v-.854z" fill="#F5F5F5"/><path d="M1919.47 456.151c-66.36-7.016-143.15-28.081-147.08-79.354-2.15-28.051 20.45-54.14 50.89-72.048 16.3-9.584 35.56-16.85 56.02-21.474 13.01-2.942 26.55-4.678 40.17-5.966v-.795c-13.68 1.341-27.25 3.115-40.51 5.94-19.96 4.256-38.28 11.59-54.46 20.496-31.97 17.603-53.43 43.745-53.45 71.943 0 26.547 26.04 48.548 57.93 62.123 27.09 11.529 58.79 17.127 90.49 20.135v-1z" fill="#F5F5F5"/><path d="M1918.94 444.286c-53.64-8.482-111.18-29.462-116.47-69.708-2.93-22.222 14.86-43.645 37.28-58.933 12.07-8.228 26.51-14.604 41.91-19.597 12.14-3.935 24.59-5.849 37.28-7.391v-.78c-12.87 1.616-25.46 3.594-37.92 7.435-16.43 5.066-31.23 12.268-43.91 20.923-22.44 15.309-37.84 36.467-35.91 58.343 1.91 21.464 23.87 39.646 48.94 51.505 20.44 9.661 44.38 15.582 68.8 19.211v-1.008z" fill="#F5F5F5"/><path d="M1918.86 428.628c-39.56-9.133-77.94-28.104-80.89-57.787-3.25-32.743 37.7-56.822 80.89-66.881v-.931c-44.08 10.095-84.01 34.438-82.15 67.812 1.69 30.009 42.13 49.464 82.15 58.661v-.874zM58.23 309.941c-4.927-4.283-14.243-4.057-21.365-4.294-12.338-.41-24.622.589-36.865 1.894v1.016c5.154-.536 10.323-1.041 15.508-1.436a223.97 223.97 0 0124.379-.521c4.935.164 9.824.41 14.22 2.062 8.278 3.109 7.934 9.533 4.248 14.4-7.184 9.506-24.645 16.287-38.138 21.021A200.486 200.486 0 010 349.987v.799a230.875 230.875 0 0023.434-6.87c14.751-5.178 31.54-12.895 38.192-23.601 2.235-3.609-.116-7.518-3.396-10.374z" fill="#F5F5F5"/><path d="M1919.63 413.445c-25.85-8.987-48.82-23.938-49.82-44.013-1.08-21.548 22.75-37.953 49.82-47.721v-1.006c-26.95 9.601-49.41 25.474-51.05 47.043-1.63 21.076 23.8 37.205 51.05 46.602v-.905z" fill="#F5F5F5"/><path d="M1918.28 379.417c-2.08-3.124-3.34-6.544-3.53-10.3-.19-4.083 1.16-7.955 3.53-11.553v-1.505c-2.84 3.967-4.56 8.323-4.78 13.058-.21 4.608 1.64 8.827 4.78 12.636v-2.336z" fill="#F5F5F5"/><path d="M69.898 591.836c28.26 7.607 59.448 11.645 89.677 13.153 37.013 1.841 74.161-.284 111.206-.129 33.483.147 65.282 4.254 95.923 13.503 23.13 6.973 44.402 16.54 63.643 27.659h1.866c-27.893-16.174-59.878-28.883-95.283-36.059-47.033-9.542-97.002-5.124-145.308-5.124-47.853 0-99.601-4.586-142.177-20.424a140.346 140.346 0 01-27.183-13.632c-3.56-2.297-8.597-5.482-7.62-9.27.718-2.801 4.637-5.116 7.629-6.853 5.818-3.366 11.752-6.628 17.991-9.636 20.421-9.839 45.987-13.395 69.851-17.627 25.2-4.456 50.774-8.245 76.144-12.266a1022.56 1022.56 0 0136.186-5.072c5.374-.651 11.972-.642 16.993-2.052.579-.168 1.28-.737 1.538-.896 2.803-1.733 7.598-1.776 11.167-2.301 43.37-6.418 79.791-22.234 113.041-41.719 33.25-19.497 62.471-41.888 94.698-62.132 8.56-5.367 17.25-10.733 26.73-15.351 4.497-2.2 8.808-4.557 13.33-6.734 4.497-2.158 10.323-3.347 14.181-5.946 6.449-4.376 17.023-7.091 25.02-10.09 9.464-3.556 20.489-7.354 31.531-5.208 10.91 2.126 18.305 13.026 23.66 19.191 5.935 6.84 11.128 13.973 16.72 20.95 4.655 5.798 9.653 11.574 15.642 16.803a115.294 115.294 0 0010.611 8.228c3.704 2.547 5.559 6.04 9.34 8.703 15.493 10.93 34.134 19.454 53.332 27.104 22.172 8.814 44.459 17.549 66.906 26.04 42.847 16.183 86.085 30.926 135.323 35.184 49.641 4.293 99.844 3 149.524 7.314 7.31.629 14.52 1.146 21.51 2.818 6.57 1.582 12.91 3.431 19.61 4.78 13.84 2.767 26.52 5.84 39.1 10.753 25.71 10.046 49.45 22.79 73.23 34.762 42.55 21.433 84.24 43.658 126.04 65.762h2.05c-34.69-18.316-69.28-36.723-104.32-54.725-21.5-11.037-43.03-22.126-65.2-32.542-18.83-8.84-37.54-17.825-59.44-22.825-11.1-2.521-22.25-4.745-33.31-7.404-10.35-2.482-22.69-2.706-33.53-3.59-25.07-2.017-50.369-2.375-75.548-3.008-25.85-.664-51.688-1.664-77.161-4.827-26.202-3.254-50.21-9.964-74.052-17.817-22.863-7.533-45.048-15.971-67.079-24.556-21.577-8.409-43.673-16.455-64.297-25.906a221.164 221.164 0 01-27.756-15.192c-4.363-2.823-7.024-5.64-10.299-9.018-2.785-2.873-7.072-5.178-10.375-7.818-15.025-11.963-24.029-26.894-35.484-40.404-7.16-8.449-16.797-21.906-34.226-20.18-8.184.81-15.493 3.25-22.686 5.891-4.114 1.505-8.137 3.126-12.219 4.662-3.812 1.441-8.286 2.326-11.379 4.419-4.38 2.967-10.479 4.629-15.609 6.965-4.593 2.084-8.895 4.483-13.329 6.724-8.763 4.419-16.922 9.27-25.005 14.257-16.399 10.132-31.955 20.876-47.579 31.545-31.089 21.213-62.838 42.309-101.165 57.523-21.888 8.701-44.605 13.648-69.342 17.066-3.163.444-4.599 2.233-8.231 2.586-6.255.621-12.479 1.37-18.686 2.15-13.08 1.638-26.05 3.651-38.99 5.745-25.302 4.082-50.805 7.805-75.91 12.404-22.615 4.146-44.41 7.943-63.73 17.256-7.628 3.672-16.108 7.753-21.746 12.826-5.279 4.766-1.194 8.3 3.866 11.869 14 9.848 31.82 16.73 50.445 21.738z" fill="#F4F4F4"/><path d="M117.887 571.907c6.637 4.198 16.594 6.047 25.018 7.827 11.417 2.409 23.334 3.628 35.203 4.482 25.746 1.862 52.547-.875 78.346-1.366 27.036-.518 53.725 1.03 79.253 7.386 22.404 5.564 43.714 13.024 63.807 21.696 23.122 9.985 44.259 21.928 63.594 35.068h1.734c-27.472-18.687-58.512-34.754-93.214-46.946-20.577-7.24-42.466-13.343-65.345-16.144-24.645-3.008-50.032-2.073-74.895-1.198-26.815.935-52.991 1.853-79.392-2.211-12.128-1.871-25.684-4.439-34.93-10.288-13.736-8.705 6.975-18.51 17.633-22.109 9.222-3.116 19.607-4.607 29.689-5.783 12.869-1.509 25.3-4 37.904-6.262 24.512-4.388 50.329-5.306 74.208-11.546 21.834-5.723 42.808-12.666 61.94-21.812 17.929-8.572 34.266-18.592 50-28.922 33.798-22.17 64.822-47.505 104.841-64.782 21.491-9.281 44.316-12.174 67.134-3.536 17.233 6.534 30.344 17.392 44.058 26.767 6.848 4.685 14.89 7.68 21.779 12.344 8.738 5.912 18.641 10.584 28.908 15.226 20.893 9.447 43.109 17.441 64.821 25.975 43.346 17.066 85.886 34.934 133.787 45.644 23.81 5.327 48.528 8.775 73.566 9.775 27.168 1.094 54.189.788 81.336 2.822 25.95 1.936 51.66 3.746 76.35 9.857 25.16 6.24 47.19 17.131 69.55 26.871 21.66 9.443 42.49 19.678 63.53 29.737 21.13 10.102 43.09 19.549 63.83 29.996 4.31 2.168 8.64 4.336 12.93 6.525h2.28c-34.08-17.601-70.34-33.418-105.31-50.148-21.52-10.292-43.51-20.075-65.83-29.586-20.61-8.784-41.82-15.49-65.61-19.278-24.08-3.818-49.88-4.986-74.491-6.271-27.667-1.452-55.616-.344-83.091-3.111-52.238-5.254-99.864-21.109-145.085-38.827-22.242-8.714-44.414-17.51-66.689-26.168-22.082-8.594-45.77-17.382-63.892-29.639-3.288-2.232-6.389-4.861-10.293-6.598-4.24-1.875-7.863-3.305-11.487-5.745-7.097-4.799-13.883-9.786-21.083-14.52-12.401-8.154-26.543-15.362-43.862-17.592-19.883-2.547-38.999 4.534-54.81 11.91-18.672 8.691-35.266 19.34-51.383 30.059-33.266 22.13-64.416 45.847-103.258 63.68-20.716 9.512-45.868 17.226-70.005 21.631-24.192 4.43-48.97 6.534-73.123 11.05-20.1 3.767-41.683 4.439-59.956 11.796-6.864 2.767-12.314 6.745-16.321 11.382-3.334 3.862 2.53 8.473 6.326 10.882zm1369.513-61.37c6.34 39.615 69.25 82.273 131.24 73.002 15.93-2.379 29.53-9.007 40.24-17.118 3.25-2.461 4.77-5.926 6.89-8.869 1.92-2.694 6.5-6.396 7.25-9.271a111.936 111.936 0 003.13-17.855c2.27-24.38-4.44-49.178-18.94-71.516-11.65-17.941-29.36-34.039-52.13-46.193-9.7-5.175-22.03-11.678-34.61-12.342-14.06-.735-23.8 1.758-34.54 7.713-20.15 11.175-31.76 28.83-39.42 45.233-8.52 18.225-12.53 38.175-9.11 57.216.09.538 1.36.551 1.26 0-4.45-24.764 3.29-51.049 18.45-73.641 7.07-10.552 16.65-20.6 29.7-28.198 7.39-4.303 15.5-7.281 25.32-7.607 12.29-.42 21.21 2.736 31.27 7.06 33.36 14.31 56.28 37.533 69.26 62.404 6.52 12.451 10.28 25.54 11.9 38.68.74 6.051.85 12.119.55 18.183-.33 6.71.21 16.411-4.76 22.337-3.52 4.219-6.61 8.607-9.63 13.016-2.62 3.84-7.82 6.839-12.48 9.563-8.1 4.767-17.78 8.124-28.09 10.067-19.99 3.789-41.33.505-59.53-5.533-36.8-12.184-67.5-38.426-71.96-66.331-.09-.543-1.34-.543-1.26 0z" fill="#F5F5F5"/><path d="M369.119 577.058c43.208 20.458 82.915 43.877 119.82 69.287h1.765c-28.151-19.467-57.918-37.856-89.825-54.501-18.796-9.8-39.434-18.139-57.762-28.297-8.519-4.711-15.915-11.046-13.62-18.894 1.195-4.073 5.904-8.008 9.309-11.387 4.537-4.49 9.721-8.688 14.86-12.877 16.041-13.089 34.539-24.652 52.742-36.331 18.287-11.723 34.358-25.432 53.928-36.12 20.974-11.473 44.533-22.961 73.059-19.658 12.425 1.432 24.247 6.862 35.109 10.974 11.682 4.421 23.091 9.154 34.43 13.963 44.931 19.032 89.832 37.879 135.98 55.566 43.781 16.773 88.311 34.594 137.376 43.162 50.965 8.899 104.649 4.542 156.29 10.718 27.38 3.275 51.45 9.8 75.61 18.963 22.75 8.628 44.89 17.993 66.67 27.694 26.71 11.887 52.77 24.398 78.73 37.025h2.13c-35.76-17.372-71.75-34.534-109.12-50.303-21-8.861-42.86-18.743-65.84-25.065-23.29-6.409-48.15-9.796-73.09-11.563-26.232-1.862-52.658-2-78.975-3.125-26.721-1.146-52.309-4.452-77.628-10.374-25.435-5.956-49.245-14.89-72.901-23.453-23.227-8.417-46.129-17.226-68.902-26.178-45.521-17.911-89.199-37.848-134.739-55.694-18.281-7.163-37.709-15.898-59.848-13.383-22.77 2.578-40.09 11.848-57.567 21.39-9.675 5.293-17.414 11.692-25.949 17.761-8.94 6.387-18.382 12.446-27.814 18.488-18.249 11.71-36.43 23.389-52.507 36.512-10.574 8.624-28.55 20.485-21.115 32.625 6.426 10.494 26.495 16.972 39.394 23.075z" fill="#F5F5F5"/><path d="M411.648 561.205c7.95 11.709 21.944 21.294 34.829 30.543 6.528 4.693 12.556 9.826 19.358 14.33 9.355 6.188 18.944 11.847 27.745 18.432 10.245 7.65 21.278 14.787 31.476 22.446h1.742c-11.729-8.935-24.628-17.149-36.357-26.096-7.95-6.059-17.227-11.098-25.785-16.752-7.224-4.775-13.65-10.352-20.592-15.338-14.424-10.374-28.916-21.286-35.414-35.112-3.701-7.878-2.756-14.592 1.5-22.191 4.209-7.52 9.925-14.627 16.383-21.359 12.127-12.666 28.025-23.57 45.447-32.922 9.784-5.249 19.991-10.291 31.978-12.899 13.47-2.939 27.19-3.663 40.941-1.297 23.34 4.021 46.533 11.408 68.335 18.226 22.686 7.102 44.409 15.541 65.749 24.315 42.701 17.541 83.961 36.745 128.613 52.032 20.796 7.124 42.514 13.046 65.204 16.739 10.338 1.694 20.9 2.694 31.493 3.198 5.834.284 11.694.263 17.521.138 5.566-.117 9.436 2.021 14.72 2.176 26.804.802 53.684 1.151 80.156 4.366 25.69 3.129 50.15 10.072 73.53 17.73 37.59 12.322 72.32 28.233 105.85 45.046h2.08c-33.25-16.666-67.58-32.345-104.65-44.895-21.44-7.262-44-13.662-67.38-17.429-24.13-3.87-49.15-4.542-73.83-5.227-6.244-.168-13.421.241-19.383-1.022-4.062-.849-6.787-1.732-11.093-1.599-13.465.453-26.995-.452-40.237-2.09-24.699-3.043-48.272-9.533-70.719-16.985-44.869-14.877-86.174-34.215-128.67-51.863-40.985-17.002-83.781-31.353-129.207-42.054-20.397-4.797-40.965-3.577-60.511 2.642-8.378 2.672-16.188 7.365-23.418 11.248-8.785 4.715-16.938 9.951-24.568 15.506-13.985 10.206-25.37 21.98-33.561 34.745-3.514 5.47-6.545 10.577-6.06 16.571.468 5.819 3.21 11.438 6.785 16.701z" fill="#F5F5F5"/><path d="M458.865 556.427c-6.678-17.972 3.411-33.323 21.082-46.644 15.072-11.365 35.883-18.864 58.607-19.308 12.228-.233 25.067 2.073 36.873 4.021 12.65 2.094 24.988 4.965 37.077 8.236 12.174 3.292 23.972 7.46 36.063 10.964 12.155 3.525 23.516 7.999 34.858 12.576 42.252 17.053 79.483 39.076 124.089 53.492 20.451 6.607 42.041 11.46 64.245 14.498 23.081 3.159 46.961 3.987 70.38 5.379 37.545 2.206 75.201 4.964 110.821 13.769 30.52 7.547 58.59 19.963 84.96 33.125h1.98c-34.11-16.855-70.37-31.879-111.57-39.223-46.254-8.24-94.718-8.189-141.915-12.3-49.008-4.275-93.716-19.364-134.024-38.09-21.098-9.809-41.376-20.212-63.215-29.293-10.306-4.284-20.746-8.546-31.621-12.123-11.911-3.922-24.429-6.9-36.235-10.986-19.499-6.731-41.692-10.709-63.135-13.403-18.414-2.306-35.287-1.556-52.287 4.06-16.22 5.348-29.19 14.584-38.96 24.673-11.017 11.386-14.189 23.613-9.284 36.797.195.534 1.414.306 1.211-.22z" fill="#F5F5F5"/><path d="M467.937 570.13c4.139 4.616 8.605 9.103 13.189 13.52 8.972 8.637 18.834 16.847 28.995 24.85 16.258 12.817 33.569 25.001 50.421 37.46h1.725c-16.444-12.205-33.32-24.134-49.367-36.585-10.824-8.396-21.115-17.097-30.682-26.156-4.638-4.4-8.995-8.925-13.188-13.52-4.021-4.387-4.452-9.671-8.675-13.955-.446-.448-1.539-.03-1.086.431 4.185 4.254 4.732 9.568 8.668 13.955zm1082.593-48.266c7.64 8.861 22.43 22.294 39.5 16.739 12.87-4.198 14.65-14.519 11.48-22.906-3.09-8.163-13.58-19.36-27-20.579-22.71-2.065-26.23 15.024-24.06 26.535.11.534 1.36.534 1.27 0-.97-5.081-1.25-10.038.6-15.058 2.73-7.417 14.68-13.593 26.01-9.973 10.62 3.387 17.87 10.899 21.48 18.2 3.82 7.706 2.53 16.679-7.53 21.855-16.48 8.473-33.24-6.616-40.66-15.244-.4-.474-1.49-.043-1.09.431zM531.915 563.962c-1.523-9.103 3.561-17.218 13.15-23.562 9.018-5.964 22.302-7.563 34.405-7.701 25.535-.285 51.821 7.438 73.892 15.373 43.315 15.549 77.852 39.774 120.258 56.156 43.596 16.842 96.115 19.475 145.033 22.716 28.006 1.849 56.006 3.862 83.457 8.197 16.91 2.659 32.42 6.65 47.26 11.856h2.73c-13.69-4.943-27.92-8.847-43.57-11.657-25.081-4.517-51.034-6.577-76.788-8.379-53.3-3.723-109.549-5.542-157.489-23.47-20.796-7.779-39.271-18.14-58.091-27.863-19.882-10.27-40.167-20.182-62.154-28.293-31.268-11.533-87.321-26.966-115.12-3.599-6.762 5.68-9.433 13.067-8.23 20.226.086.543 1.351.543 1.257 0z" fill="#F5F5F5"/><path d="M569.743 610.504c9.629 7.96 19.297 15.937 29.729 23.432 5.951 4.258 12.073 8.395 18.023 12.645h1.797c-5.499-3.978-11.184-7.84-16.79-11.753-9.957-6.934-19.007-14.416-28.113-21.855-18.257-14.92-35.264-30.556-42.777-49.536-.209-.539-1.42-.314-1.209.22 7.019 17.739 22.34 32.797 39.34 46.847zM65.414 620.805c34.891 5.504 70.133 8.249 105.818 9.891 36.758 1.694 73.654.181 110.395 2.189 19.006 1.043 37.661 3.349 55.966 6.965 7.739 1.525 15.078 3.81 22.278 6.335h2.524c-5.328-1.892-10.724-3.68-16.315-5.167-16.523-4.396-34.288-6.594-51.843-8.103-36.599-3.154-73.692-1.724-110.472-2.642-37.638-.922-75.113-3.952-111.923-9.36-18.383-2.707-36.539-6.064-54.522-9.796-5.803-1.211-11.565-2.496-17.32-3.797v.556c4.7 1.176 9.377 2.439 13.977 3.43 16.954 3.616 34.125 6.762 51.437 9.499zm1819.696 25.5c10.77-9.184 22.01-18.11 34.19-26.41v-1.211c-12.81 8.649-24.54 18.001-35.8 27.621h1.61zm28.07.114c2.18-2.065 4.38-4.103 6.63-6.133v-1.401c-2.79 2.474-5.49 5-8.2 7.534h1.57zM53.295 632.827c30.229 5.745 60.199 9.878 91.537 11.46 31.649 1.599 63.423 1.733 95.134 2.332 3.124.064 6.255.116 9.386.181h25.747c-7.278-.345-14.611-.556-21.983-.746-32.788-.832-65.618-.888-98.383-2.181-33.578-1.314-65.61-5.227-97.993-11.278-15.557-2.914-30.986-6.198-46.707-8.68-3.326-.526-6.675-1-10.033-1.444v.927c2.232.297 4.474.577 6.707.896 15.727 2.211 31.134 5.599 46.588 8.533zM67.14 645.07c1.273.285 2.538.552 3.803.824h4.873a469.817 469.817 0 01-13.884-2.905c-15.743-3.564-31.922-5.642-48.056-8.249-4.623-.746-9.245-1.474-13.876-2.168v.875c5.528.832 11.04 1.715 16.561 2.599 17.095 2.767 33.9 5.228 50.579 9.024z" fill="#F5F5F5"/></svg>