<svg width="582" height="295" fill="none" xmlns="http://www.w3.org/2000/svg"><path d="M532.849 159.121v-24.063H442.94V80.321h-61.109v50.481h-22.74v-29.61h-68.483v46.775H150.41v-32.504H58.276v41.04H21.322v105.363H94.62v-3.205h31.043v9.725h182.469v-32.222h50.959v-29.441h22.74v20.683h57.824v16.921h79.541v50.226h62.621V159.121h-48.968z" fill="#A8CEFF"/><path d="M333.883 170.516h8.02v-8.021h-8.02v8.021zm-26.646 0h8.021v-8.021h-8.021v8.021zm26.646-24.049h8.02v-8.021h-8.02v8.021zm-26.646 0h8.021v-8.021h-8.021v8.021zm26.646-32.07v8.022h8.02v-8.022h-8.02zm-26.646 0h8.021v8.022h-8.021v-8.022zm114.556 33.583h8.021v-8.022h-8.021v8.022zm-26.646 0h8.022v-8.022h-8.022v8.022zm26.646-24.05h8.021v-8.02h-8.021v8.02zm-26.646 0h8.022v-8.02h-8.022v8.02zm26.646-32.068v8.021h8.021v-8.021h-8.021zm-26.646 0h8.022v8.021h-8.022v-8.021zm116.825 112.221h8.021v-8.021h-8.021v8.021zm-26.644 0h8.02v-8.021h-8.02v8.021zm26.644-24.048h8.021v-8.021h-8.021v8.021zm-26.644 0h8.02v-8.021h-8.02v8.021zm26.644-32.07v8.021h8.021v-8.021h-8.021zm-26.644 0h8.02v8.021h-8.02v-8.021zm78.563 84.169h8.02v-8.021h-8.02v8.021zm-26.647 0h8.022v-8.021h-8.022v8.021zm26.647-24.048h8.02v-8.021h-8.02v8.021zm-26.647 0h8.022v-8.021h-8.022v8.021zm26.647-32.069v8.021h8.02v-8.021h-8.02zm-26.647 0h8.022v8.021h-8.022v-8.021zM270.62 224.115h8.021v-8.02h-8.021v8.02zm-26.646 0h8.021v-8.02h-8.021v8.02zm26.646-24.048h8.021v-8.02h-8.021v8.02zm-26.646 0h8.021v-8.02h-8.021v8.02zm26.646-32.07v8.021h8.021v-8.021h-8.021zm-26.646 0h8.021v8.021h-8.021v-8.021zM57.162 222.431h8.021v-8.02h-8.021v8.02zm-26.646 0h8.021v-8.02h-8.02v8.02zm26.646-24.049h8.021v-8.02h-8.021v8.02zm-26.646 0h8.021v-8.02h-8.02v8.02zm26.646-32.068v8.02h8.021v-8.02h-8.021zm-26.646 0h8.021v8.02h-8.02v-8.02z" fill="#F5F6FA"/><path d="M420.437 163.718a24.807 24.807 0 00-13.188 3.773c-5.494-7.741-14.522-12.797-24.737-12.797-14.563 0-26.723 10.269-29.647 23.96a26.789 26.789 0 00-2.805-.149c-10.749 0-19.993 6.409-24.14 15.611a14.787 14.787 0 00-7.012-1.769c-8.232 0-14.906 6.675-14.906 14.907 0 .647.056 1.279.135 1.903-.045 0-.089-.004-.135-.004-3.398 0-6.665.548-9.729 1.547-7.102-10.648-19.219-17.665-32.979-17.665-21.881 0-39.62 17.737-39.62 39.619 0 21.88 17.739 39.619 39.62 39.619a39.42 39.42 0 0022.996-7.368 31.221 31.221 0 0019.712 6.975c11.777 0 22.033-6.494 27.395-16.094a40.015 40.015 0 0021.728 8.042c4.587 12.515 16.603 21.444 30.704 21.444 18.054 0 32.69-14.636 32.69-32.69 0-13.809-8.567-25.61-20.671-30.399a40.21 40.21 0 00-1.437-9.274 30.358 30.358 0 009.036-5.973 24.855 24.855 0 0016.99 6.685c13.781 0 24.952-11.17 24.952-24.951s-11.171-24.952-24.952-24.952z" fill="#75A1DE"/><path d="M294.705 294.554H69.168c-5.4 0-9.778-4.377-9.778-9.777 0-5.399 4.378-9.777 9.778-9.777h225.537c5.4 0 9.778 4.378 9.778 9.777 0 5.4-4.378 9.777-9.778 9.777zm243.67 0h-170.42c-5.4 0-9.779-4.377-9.779-9.777 0-5.399 4.379-9.777 9.779-9.777h170.42c5.4 0 9.778 4.378 9.778 9.777 0 5.4-4.378 9.777-9.778 9.777z" fill="#6081B2"/><path d="M77.722 274.995S.674 236.266 43.445 169.757c0 0 77.921 37.869 34.277 105.238z" fill="#9CD499"/><path d="M43.445 169.757C.675 236.266 77.722 274.995 77.722 274.995c.374-.577.717-1.146 1.072-1.719L43.445 169.757z" fill="#93C490"/><path d="M80.707 274.735S15.089 298.246 0 236.137c0 0 65.599-24.502 80.707 38.598z" fill="#9CD499"/><path d="M0 236.149c15.09 62.11 80.707 38.599 80.707 38.599-.13-.541-.272-1.06-.41-1.588L0 236.149z" fill="#93C490"/><path d="M501.435 275.091s-44.061-74.127 27.796-107.133c0 0 45.261 73.871-27.796 107.133z" fill="#9CD499"/><path d="M529.231 167.958c-71.857 33.006-27.796 107.133-27.796 107.133.626-.285 1.221-.58 1.831-.871l25.965-106.262z" fill="#93C490"/><path d="M511.776 276.402s-1.082-69.693 62.573-63.936c0 0 2.025 69.996-62.573 63.936z" fill="#9CD499"/><path d="M574.349 212.466c-63.655-5.757-62.573 63.936-62.573 63.936.553.053 1.09.085 1.632.125l60.941-64.061z" fill="#93C490"/><path d="M240.141 282.346H82.851a8.569 8.569 0 01-6.077-2.518 8.565 8.565 0 01-2.518-6.078V8.595a8.575 8.575 0 013.21-6.698A8.553 8.553 0 0182.852 0H240.14c1.989 0 3.82.676 5.277 1.81a8.579 8.579 0 013.318 6.785V273.75a8.597 8.597 0 01-5.249 7.92 8.553 8.553 0 01-3.346.676z" fill="#75A1DE"/><path d="M170.931 268.387a6.612 6.612 0 11-13.224 0 6.612 6.612 0 1113.224 0z" fill="#678EC3"/><path d="M240.077 14.789H82.864V255.28h157.213V14.789z" fill="#F5F6FA"/><path d="M128.065 14.789H82.864V255.28h45.201V14.789z" fill="#E0E3EE"/><path d="M222.068 202.734v52.555H110.89l-.444-33.688-18.806-64.982a16.193 16.193 0 012.039-13.422l12.702-19.254 115.687 78.791z" fill="#CF3B6C"/><path d="M131.807 206.832v48.457h90.252l-.224-47.812-86.008-7.986-4.02 7.341z" fill="#EF4F84"/><path d="M221.873 207.472h-90.066v8.046h90.066v-8.046z" fill="#CF3B6C"/><path d="M128.423 200.916l-.198 1.362-23.177-69.601c-1.052-3.138-.41-6.329 1.321-8.735 1.732-2.406 4.554-4.028 7.862-4.028h55.498a9.682 9.682 0 018.818 5.68l32.929 72.489-83.053 2.833z" fill="#EF4F84"/><path d="M134.665 119.914h-8.257s2.176 13.178 11.603 18.276c0 0 2.538 5.231 0 12.96-2.538 7.729-13.602 25.744-3.356 43.205H161.5l-2.62-68.413-24.215-6.028z" fill="#CF3B6C"/><path d="M221.839 207.487H134.65a6.557 6.557 0 01-6.56-6.56c0-2.074.963-3.924 2.466-5.125a6.53 6.53 0 014.094-1.436h87.189a6.56 6.56 0 014.075 11.702 6.533 6.533 0 01-4.075 1.419z" fill="#F0639A"/><path d="M259.162 268.805l6.515 11.699s.762 1.398-.526 2.735c-1.588 1.648-4.656.03-5.989-1.205-1.332-1.239-21.273-15.038-21.368-17.607-.096-2.57 5.805-11.611 5.805-11.611l6.71 1.904 8.853 14.085z" fill="#EF4F84"/><path d="M264.816 283.523c-6.194-5.956-14.067-13.559-15.537-15.146-2.486-2.681 0-9.725 0-9.725l1.03-3.931v-.001l-6.71-1.904s-5.901 9.041-5.805 11.611c.095 2.569 20.036 16.368 21.368 17.607 1.245 1.153 4.002 2.639 5.654 1.489z" fill="#CF3B6C"/><path d="M255.605 234.35l-.762 20.269 4.335 14.18-15.564-15.988-2.144-18.461h14.135z" fill="#FDC591"/><path d="M247.254 234.35h-5.784l2.144 18.461 5.681 5.836-2.041-24.297z" fill="#F9A667"/><path d="M152.151 165.023l2.218 23.643s-2.002 6.07 7.118 6.606c9.12.536 74.619-.916 74.619-.916l-4.87 46.392 27.938-2.414-2.682-40.234-24.823-33.077h-79.518z" fill="#6791C9"/><path d="M292.503 219.317l11.177 9.05c.883.714 1.122 2.024.431 2.925-.482.629-1.392 1.054-3.09.663-4.075-.942-29.718-8.44-30.713-11.153-1.527-4.165 2.349-8.29 2.349-8.29l4.252-6.449 15.594 13.254z" fill="#EF4F84"/><path d="M304.025 231.388c-6.692-2.707-18.672-7.657-20.399-9.058-2.414-1.962-3.926-6.337-3.926-6.337s.751-2.529 1.78-6.045l-4.571-3.885-4.252 6.449s-3.876 4.125-2.349 8.29c.995 2.713 26.638 10.211 30.713 11.153 1.607.37 2.503.006 3.004-.567z" fill="#CF3B6C"/><path d="M272.647 194.366s6.761 9.013 10.164 13.265c3.402 4.253 9.682 11.686 9.682 11.686l-19.846-6.805-11.341-10.49 11.341-7.656z" fill="#FDC591"/><path d="M267.126 198.083l-5.82 3.926 11.341 10.492 8.251 2.829a4830.554 4830.554 0 00-13.772-17.247z" fill="#F9A667"/><path d="M143.271 180.691l.827 7.989s5.894 9.806 19.933 5.654c14.038-4.152 64.061-21.354 64.061-21.354l32.553 42.557 19.053-18.829-43.301-42.511s-4.944-4.285-9.491-3.032c-4.547 1.252-23.133 8.795-23.133 8.795l-25.704-10.508-29.263 19.376-5.535 11.863z" fill="#75A1DE"/><path d="M260.645 215.538l7.8-7.709-37.199-41.436s-37.36 10.934-47.5 12.592c-10.139 1.656-16.7-4.639-9.952-13.947 6.746-9.308 23.691-5.077 23.691-5.077s-11.994-4.625-22.133-8.71l-26.546 17.578-5.535 11.863.827 7.989s5.894 9.806 19.933 5.653c14.038-4.151 64.061-21.353 64.061-21.353l32.553 42.557z" fill="#6791C9"/><path d="M181.76 80.064c-2.337-1.87-4.533-4.827-4.533-4.827l4.487-5.182s11.189-8.108 4.234-18.39c0 0 .634-5.175-2.571-9.754-3.176-4.536-8.241-6.426-14.112-5.31 0 0-11.477-6.965-20.465 9.05-6.617 11.79-.573 18.904-4.481 24.404-3.907 5.5-7.493 9.683-6.77 17.643.724 7.961 1.03 8.67-1.576 14.46-2.605 5.788-4.397 13.306.902 22.779 8.166 14.593 28.984 9.136 28.984 9.136l-1.029-15.595c9.494-6.479 23.668-8.58 23.668-8.58s2.859-11.668-1.18-15.39c-4.039-3.722-.439-10.349-5.558-14.444z" fill="#303C60"/><path d="M169.177 103.407s9.426-5.793 11.155-9.462c1.728-3.669.13-8.218-4.174-12.131-4.305-3.913 0-9.653 0-9.653l-7.045 3.653s-8.348 18.522-12.671 13.829c-4.323-4.694 2.887-10.19-.505-12.407-3.392-2.218-6.363 2.784-8.535-.095-2.038-2.703 2.656-7.301-.194-17.633-1.496-5.418-.477-9.176-.112-10.213-3.73 9.674.714 15.879-2.777 20.792-3.907 5.5-7.493 9.683-6.77 17.644.724 7.96 1.03 8.668-1.576 14.459-2.605 5.788-4.397 13.307.902 22.779 8.166 14.593 28.984 9.136 28.984 9.136l-1.029-15.594a37.5 37.5 0 013.903-2.31l.444-12.794z" fill="#303C60"/><path d="M162.896 87.715l-4.954 18.388 11.721 42.748 5.509 11.094 14.443-2.116s-7.606-60.729-7.732-60.355c-.124.374-7.054-8.036-7.054-8.036l-11.933-1.723z" fill="#F47859"/><path d="M173.004 155.552l2.182 4.394 14.443-2.116s-7.606-60.73-7.732-60.355c-.078.239-2.92-3.088-4.971-5.535v2.585s5.199 16.451 5.881 26.567c.939 13.951-4.738 28.345-4.738 28.345l-5.065 6.115z" fill="#F15F42"/><path d="M178.345 51.376c-2.394.164-4.767 0-6.429-2.162-1.393-1.81-5.907-1.797-5.907-1.797 1.158 3.106-.934 5.688-2.284 6.952-.308 2.067.537 4.279.537 5.876 0 1.988-1.311 3.498-.714 5.206 0 0-1.828-1.59-1.591-3.14.163-1.054.423-2.214.219-3.238-1.823-2.042-5.211-.537-5.008 2.505.224 3.371 4.496 5.919 4.496 5.919s1.503 9.951-1.724 20.228l-2.772 1.499s7.942 3.596 11.613 3.521c3.672-.076 6.068-3.297 6.068-3.297l-2.097-1.049v-7.567s7.043-.43 8.991-5.394c1.52-3.876 1.917-12.603 2.009-18.167-2.972-.26-1.362-6.173-5.407-5.895zm21.472 101.313l8.067 3.181s8.609-7.679 10.859-7.679c2.249 0 11.091-1.009 12.488 1.241 1.396 2.249-.931 8.299-3.336 9.85-2.404 1.552-6.748.543-9.385 1.939-2.637 1.397-9.23 4.034-10.704 3.801-1.473-.233-10.858-3.49-10.858-3.49l2.869-8.843z" fill="#FDC591"/><path d="M227.895 159.255c.753-.485 1.499-1.412 2.124-2.526-3.074.785-7.817.352-9.42.033-2.069-.411-10.102 4.062-11.319 4.428-1.217.365-9.825-2.684-9.825-2.684l-1.241-.903-1.266 3.902s9.384 3.257 10.858 3.49c1.474.233 8.067-2.404 10.704-3.801 2.637-1.396 6.981-.387 9.385-1.939z" fill="#F9A667"/><path d="M231.22 100.164l6.448-8.494s4.503-4.606 7.676-6.244c3.172-1.637 5.814-2.976 6.633-1.645.818 1.33-1.004 3.283-3.256 4.818 0 0 4.606-.614 7.266-2.251 2.661-1.638 4.402-4.503 6.347-2.968 1.944 1.535 4.702 10.222-7.344 15.04-3.526 1.41-11.796.517-11.796.517l-5.322 7.163-6.652-5.936z" fill="#FDC591"/><path d="M263.973 86.776c-1.622 2.61-5.181 7.488-9.704 8.64-6.25 1.594-11.151-.245-11.151-.245l-5.873 7.408.336 3.253.317.283 5.322-7.163s8.27.893 11.796-.517c8.136-3.255 9.516-8.27 8.957-11.66z" fill="#F9A667"/><path d="M230.09 96.948l-17.482 24.392L183.77 93.9s-4.339-4.719-11.027-5.51c0 0 10.186 11.606 12.016 30.105 1.119 11.321.869 21.008.505 26.827l-10.379-4.245c-.93-18.587-4.175-45.33-14.953-53.362l-2.772 1.499s-9.008 5.169-10.611 9.847c-1.521 4.434-1.114 14.986 1.89 22.106h-.004s3.331 9.56 2.524 19.452c-.807 9.891-10.296 22.407-10.498 31.29-.201 8.883 3.635 16.756 3.635 16.756s12.516-24.333 31.088-28.72c0 0 .041-1.387.052-3.773 10.074 3.59 22.233 7.709 22.233 7.709l4.411-11.762-10.735-4.391c-.536-3.745-.986-8.182-.897-12.157.203-9.148-.407-13.225-.407-13.225l16.669 12.411s6.911 5.895 12.806-.407c5.896-6.301 22.158-28.458 22.158-28.458l-11.384-8.944z" fill="#FAFDFF"/><path d="M199.48 158.512l-31.795-10.568s-15.769-39.995-18.453-44.443c-1.385-2.296-1.338-5.088-.969-7.257-.778.926-1.395 1.878-1.714 2.81-1.521 4.434-1.114 14.986 1.89 22.106h-.004s3.331 9.56 2.524 19.452c-.807 9.892-10.296 22.407-10.498 31.291-.201 8.882 3.635 16.755 3.635 16.755s4.921-9.563 13.167-17.78c-3.813-12.545-1.179-33.549-1.179-33.549s3.327 13.143 5.411 13.815c2.985.96 13.741 5.022 13.741 5.022 10.074 3.589 22.233 7.708 22.233 7.708l2.011-5.362zm37.768-55.93c-6.83 9.997-19.959 28.345-24.341 28.345-6.02 0-23.393-18.063-23.393-18.063l.333 9.497 16.669 12.411s6.911 5.896 12.806-.407c5.895-6.301 22.157-28.458 22.157-28.458l-4.231-3.325z" fill="#CBEAF2"/><path d="M172.752 88.389v-7.568s2.839-.178 5.41-1.575c-3.282.6-7.571 1.1-10.384-4.426-1.81-3.556-2.58-14.417-2.901-21.73a10.55 10.55 0 01-1.152 1.269c-.308 2.066.537 4.279.537 5.876 0 1.987-1.311 3.497-.714 5.205 0 0-1.828-1.59-1.591-3.139.163-1.054.423-2.214.219-3.238-1.823-2.042-5.211-.538-5.008 2.504.224 3.372 4.496 5.92 4.496 5.92s1.503 9.951-1.724 20.228l-2.772 1.498s7.942 3.596 11.613 3.522c3.672-.076 6.068-3.297 6.068-3.297l-2.097-1.049z" fill="#F9A667"/><path d="M517.527 206.832v75.515h-87.481l.223-74.87 83.239-7.986 4.019 7.341z" fill="#008DC3"/><path d="M430.268 207.487h84.419a6.556 6.556 0 006.56-6.56 6.548 6.548 0 00-2.466-5.125 6.527 6.527 0 00-4.094-1.436h-84.419a6.56 6.56 0 100 13.121z" fill="#04A8E2"/><path d="M502.659 206.832v75.515h-87.48l.224-74.87 83.237-7.986 4.019 7.341z" fill="#04A8E2"/><path d="M502.673 207.472h-95.866v8.046h95.866v-8.046z" fill="#0095C5"/><path d="M415.401 207.487h84.418a6.556 6.556 0 006.56-6.56 6.545 6.545 0 00-2.466-5.125 6.531 6.531 0 00-4.094-1.436h-84.418a6.56 6.56 0 00-4.075 11.702 6.533 6.533 0 004.075 1.419z" fill="#5CB1E3"/><path d="M445.815 73.647s-8.039-4.455-5.183-14.807c0 0-3.538-9.297.999-15.142 7.425-9.56 20.347-8.275 26.773-4.206 5.504 3.487 7.057 8.46 7.057 8.46s4.75 2.408 5.258 12.635c.603 12.113-11.779 19.777-7.155 26.713 0 0-4.957 3.634-10.461-4.184l-17.288-9.469z" fill="#2E5B9A"/><path d="M463.103 83.12c5.504 7.82 10.461 4.186 10.461 4.186-2.913-4.37.922-9.03 4.01-14.908-.037.043-3.786 4.435-6.06 1.712-2.285-2.735 2.628-9.575 0-14.876-2.628-5.3-1.304-8.378-1.304-8.378s-17.955-1.71-18.98-8.892c-.285-1.986.036-3.606.648-4.914-3.772.935-7.411 3-10.247 6.654-4.537 5.844-.999 15.14-.999 15.14-2.856 10.353 5.183 14.809 5.183 14.809l17.288 9.468z" fill="#2E5B9A"/><path d="M391.99 263.95l-18.463 11.13s-2.879.92-2.749 3.602c.131 2.684 4.583 3.207 14.402 2.684 9.821-.525 21.619-4.833 21.619-4.833l-3.912-8.131-4.743-6.548-7.071 2.096" fill="#F47859"/><path d="M399.074 266.829s-.829-1.774-2.166-4.623l-5.835 1.729h.917l-18.463 11.13s-2.879.92-2.749 3.602c.077 1.586 1.679 2.414 4.996 2.722l23.3-14.56z" fill="#F15F42"/><path d="M391.079 248.699l.916 15.248 10.897 4.453 2.328-22.391-14.141 2.69z" fill="#FDC591"/><path d="M400.703 246.87l-9.624 1.83.916 15.248 7.085 2.894 1.623-19.972z" fill="#F9A667"/><path d="M404.126 249.747l1.19 20.812-10.247 5.802 20.987-2.963 2.469-24.69-14.399 1.039z" fill="#FDC591"/><path d="M412.394 273.9l1.05-24.839-9.318.671 1.19 20.812-10.247 5.802 17.325-2.446z" fill="#F9A667"/><path d="M466.836 158.294l-9.107 11.108-60.56 12.964s-11.51 3.634-12.925 12.924c-1.413 9.289 1.011 56.339 1.011 56.339l23.02-.404 15.953-58.156 64.012-9.533-3.231-25.242h-18.173z" fill="#6791C9"/><path d="M438.508 181.986l-28.226 6.106s-11.221 4.104-10.861 18.687c.456 18.512 0 47.157 0 47.157l22.915-.53.319-44.643 62.645-7.756s14.762-.34 13.259-20.885c-.102-1.379-13.221-28.558-13.221-28.558l-28.565 30.368-18.265.054z" fill="#6791C9"/><path d="M485.338 151.564l-28.565 30.368-18.265.054-28.226 6.106s-11.221 4.104-10.861 18.687c.456 18.512 0 47.157 0 47.157l17.187-.397-1.567-50.789s51.036-7.672 62.53-11.349c11.494-3.676 13.934-16.356 13.934-16.356v-8.82l.612-.461c-3.36-7.117-6.779-14.2-6.779-14.2z" fill="#75A1DE"/><path d="M454.402 91.648s-11.444 7.19-13.001 16.714c-1.554 9.524-4.469 20.588-4.469 20.588l1.755 1.295 4.218 8.635 6.078 4.665 3.632-3.131s4.726 20.237 5.115 28.983c0 0 23.714-3.303 30.713 0 6.997 3.306 10.107 10.691 10.107 10.691s1.386-11.662.464-19.929c-1.796-16.059-4.879-38.434-4.879-38.434s-1.542-16.369-9.886-26.295c-4.333-5.158-12.746-7.285-12.746-7.285l-17.101 3.503z" fill="#96CFE0"/><path d="M492.593 128.972s-4.015-17.78-8.521-25.765c-4.504-7.985-14.332-8.804-14.332-8.804l-11.307 5.583 4.008-9.963-8.039 1.647s-11.444 7.19-13.001 16.714c-1.554 9.524-4.469 20.588-4.469 20.588l1.755 1.295 4.218 8.634 6.078 4.665 3.632-3.13s4.726 20.237 5.115 28.983c0 0 23.714-3.303 30.713 0a18.007 18.007 0 013.43 2.14c-.291-10.608-3.632-22.283-3.632-22.283l-1.711-3.89 2.99-16.414h3.073z" fill="#A2DFF2"/><path d="M442.917 58.937s1.159 17.111 3.654 20.677c2.496 3.565 7.487 4.279 7.487 4.279s3.102 3.358.357 7.753l2.362 9.51s12.064-8.378 14.738-13.013c0 0-1.77.74-2.394-3.449-.624-4.189-.446-14.974-.446-14.974s-1.247 2.407-3.832 3.12c0 0 .98-1.425 1.248-4.01 0 0 2.674-1.427 3.743-3.744 1.07-2.317.446-5.526-1.425-6.15-1.873-.623-3.12 2.763-3.12 2.763s-1.119-3.391.218-6.778c0 0-15.46-.887-19.292-6.056 0 0-2.584 5.883-3.298 10.072zm31.433 72.304l15.176-2.29 2.927 16.394s1.03 6.176-2.402 9.493c-3.43 3.318-31.57 30.655-31.57 30.655s-4.804 2.517-7.32 2.745c-2.517.229-4.233 0-7.206 0-2.974 0-9.379 3.546-10.866 3.089-1.487-.457-2.975-1.144-2.746-4.918.229-3.775 2.974-7.778 6.406-8.923 3.43-1.143 9.607-.685 15.327.801l26.881-30.425-4.607-16.621z" fill="#FDC591"/><path d="M482.382 130.047l-8.032 1.212 4.607 16.62-26.881 30.425c-5.72-1.486-11.897-1.943-15.327-.8-3.432 1.145-6.177 5.148-6.406 8.923-.227 3.755 1.244 4.453 2.725 4.911 2.163-2.818 5.247-6.373 7.928-7.715 4.714-2.355 14.021-1.701 14.021-1.701l31.942-34.831-4.577-17.044z" fill="#F9A667"/><path d="M438.691 130.263l-1.03 7.321-18.415-24.25s-4.346-4.346-6.863-7.549c-2.516-3.203-3.994-6.975-5.407-6.504-2.132.71-1.702 3.276.699 7.621 0 0-6.693-2.79-8.217-6.579-1.463-3.634-5.948-3.689-6.635-.6-.686 3.088 1.116 12.669 6.149 15.528 5.033 2.86 12.382 3.688 12.382 3.688l23.237 36.783c1.699 2.414 5.198 6.158 9.648 4.144 5.501-2.491 7.23-15.169 8.38-19.434l-13.928-10.169z" fill="#FDC591"/><path d="M405.318 270.539l-21.009 10.271s-1.655 1.241-1.793 3.448c-.138 2.207 2.482 2.207 5.655 2.482 3.172.276 29.103-.413 29.653-1.792.552-1.381-1.766-11.57-1.766-11.57l-10.74-2.839z" fill="#F47859"/><path d="M412.458 272.426l-7.14-1.887-21.009 10.271s-1.655 1.241-1.793 3.448c-.108 1.72 1.464 2.098 3.665 2.313l26.277-14.145z" fill="#F15F42"/><path d="M465.252 83.338l1.88-2.736s-3.077 1.881-7.102 1.881c-4.023 0-8.799-2.735-10.986-12.14-1.134-4.872-.532-12.633.312-19.034-1.329-.684-2.433-1.49-3.141-2.444 0 0-2.584 5.883-3.298 10.072 0 0 1.159 17.111 3.654 20.677 2.496 3.565 7.487 4.279 7.487 4.279s3.102 3.358.357 7.753l2.362 9.51s5.007-3.478 9.285-7.192c-1.547-4.238-.81-10.626-.81-10.626zm-66.28 31.913c5.033 2.86 12.382 3.688 12.382 3.688l23.237 36.783c.755 1.072 1.868 2.407 3.26 3.383 2.593-1.259 5.336-3.513 6.68-7.557.894-2.694 2.247-8.087 3.688-14.329l-9.528-6.956-1.03 7.321-18.415-24.25s-4.346-4.346-6.863-7.549c-2.516-3.203-3.994-6.975-5.407-6.504-2.132.71-1.702 3.276.699 7.621 0 0-6.693-2.79-8.217-6.579-1.463-3.634-5.948-3.689-6.635-.6-.686 3.088 1.116 12.669 6.149 15.528z" fill="#F9A667"/><path d="M413.203 53.027c.103 0 .206.03.294.088l16.474 10.762-8.431-14.614a.539.539 0 01.119-.683 22.299 22.299 0 007.974-17.098c0-12.32-10.022-22.343-22.343-22.343h-33.789c-12.321 0-22.345 10.023-22.345 22.343s10.024 22.344 22.345 22.344h33.789c1.892 0 3.834-.263 5.773-.78a.513.513 0 01.14-.02zm18.364 13.078a.532.532 0 01-.294-.089L413.108 54.15a23.4 23.4 0 01-5.818.757h-33.789c-12.915 0-23.424-10.51-23.424-23.424 0-12.915 10.509-23.422 23.424-23.422h33.789c12.915 0 23.423 10.507 23.423 23.422 0 6.773-2.916 13.17-8.015 17.63l9.336 16.183a.537.537 0 01-.467.81z" fill="#9EC8FF"/><path d="M410.628 28.169a2.99 2.99 0 100 5.98 2.99 2.99 0 000-5.98zm-19.529 0a2.989 2.989 0 10.001 5.977 2.989 2.989 0 00-.001-5.977zm-16.538 2.99a2.989 2.989 0 11-5.978 0 2.989 2.989 0 015.978 0z" fill="#B7E1FF"/></svg>