<svg width="1920" height="767" fill="none" xmlns="http://www.w3.org/2000/svg"><path fill="#fff" d="M0 0h1920v767H0z"/><path d="M92.707 0C71.958 11.732 52.14 24.51 31.703 36.61c-6.215 3.68-12.368 6.448-19.076 9.354C7.98 47.974 3.678 51.714 0 55.032v1.578c4.458-3.873 9.604-8.656 15.125-10.34 6.458-1.964 11.65-5.52 17.22-8.787C53.357 25.141 73.63 11.994 94.932 0h-2.225zm25.433 0C76.097 22.783 36.538 48.328 0 76.518v1.41C37.17 49.163 77.487 23.137 120.389 0h-2.249zm31.392 0c-13.159 7.172-26.223 14.456-39.061 21.991-18.162 10.664-35.209 22.433-52.64 33.84C35.952 70.15 17.618 86.994 0 104.407v1.51c17.219-17.12 35.116-33.723 56.404-47.848C87.38 37.513 119.069 18.267 152.007 0h-2.475zm23.528 0C135.531 20.12 99.157 42.01 66.587 67.007 41.629 86.153 20.318 107.788 0 130.053v1.791c20.037-21.948 40.98-43.309 65.321-62.448C98.547 43.263 136.437 20.7 175.293 0h-2.233zm30.517 0c-19.343 10.247-38.607 20.587-57.263 31.633-25.682 15.218-49.07 32.317-71.17 50.778-20.85 17.413-38.95 36.141-54.466 56.829C13.993 148.152 7.246 157.071 0 165.69v1.826c6.075-7.159 11.791-14.531 17.398-21.952 16.578-21.947 34.656-42.048 56.646-60.758 22.474-19.134 46.626-36.584 72.912-52.3 19.108-11.42 38.965-21.997 58.87-32.506h-2.249z" fill="#F5F5F5"/><path d="M229.026 0c-22.881 12.823-45.892 25.483-67.914 39.254-7.62 4.765-15.695 12.086-24.785 14.799-5.35 1.59-10.643 6.905-14.844 9.897-13.073 9.318-25.23 19.427-36.68 30.024-21.012 19.459-38.895 40.95-55.294 63.034-4.302 5.788-9.565 10.497-13.704 16.371-4.13 5.875-9.332 10.709-13.877 16.277-.631.787-1.28 1.56-1.928 2.334v1.758c3.405-3.941 6.747-7.889 11.033-11.326 1.796-1.441 3.155-4.701 4.42-6.505 2.703-3.841 5.1-7.871 9.028-11.019 5.074-4.073 8.214-10.228 11.946-15.137 4.334-5.707 8.833-11.326 13.433-16.895a413.456 413.456 0 0132.328-34.863C92.73 87.85 104.138 78.29 116.133 69.24c12.088-9.118 25.559-16.134 38.388-24.497C179.065 28.745 205.249 14.502 231.174 0h-2.148z" fill="#F5F5F5"/><path d="M252.405 0C195.12 29.992 139.903 62.492 95.291 104.602c-22.77 21.485-40.223 45.664-58.73 69.525C25.682 188.154 13.914 201.737 0 213.631v1.559c36.85-30.884 58.777-73.25 92.41-106.248C137.553 64.649 195.298 30.978 254.693 0h-2.289z" fill="#F5F5F5"/><path d="M284.141 0c-29.166 14.9-57.88 30.249-85.741 46.744-16.103 9.537-31.838 18.841-45.503 30.64-6.255 5.4-14.157 9.805-20.021 15.367-2.008 1.902-3.194 4.472-4.506 6.705-2.819 4.777-7.543 8.258-11.893 12.124-13.752 12.224-25.636 25.233-36.203 39.304-10.073 13.408-19.49 27.123-29.853 40.395-10.697 13.701-22.732 26.686-36.997 38.142-4.226 3.393-8.738 6.294-13.424 8.931v1.428c3.537-1.976 6.972-4.109 10.228-6.504 13.635-10.022 25.029-21.847 35.328-34.114 10.832-12.898 20.257-26.532 30.034-39.947 11.22-15.397 23.504-29.455 37.747-43.17 5.561-5.35 12.167-9.803 16.118-16.083 2.171-3.455 3.913-6.58 7.646-9.212 4.364-3.08 8.73-5.982 12.797-9.337 6.654-5.489 12.847-11.232 20.18-16.172C179.339 59 189.31 53.373 199.04 47.617 227.463 30.815 256.747 15.181 286.5 0h-2.359zM564.55 0c-21.819 31.252-39.358 64.287-51.445 98.826-14.056 40.164-21.475 81.608-35.758 121.728-13.68 38.43-32.578 77.864-62.337 110.177-30.439 33.048-68.546 59.746-110.785 82.748-48.797 26.567-102.062 46.812-156.302 65.085-27.971 9.418-56.372 17.824-85.944 23.425-20.405 3.854-41.138 6.474-61.979 8.295v.909c39.646-3.665 78.533-10.264 116.29-21.44 46.4-13.733 92.082-30.31 135.428-49.394 84.359-37.171 161.621-87.875 200.172-160.327 11.894-22.352 22.131-45.371 30.002-68.839 8.373-24.972 14.354-50.418 21.296-75.658C516.315 87.769 536.446 42.572 566.041 0h-1.491z" fill="#F5F5F5"/><path d="M587.266 0c-23.474 27.017-41.677 57.172-53.764 88.591-3.592 9.337-7.232 18.655-10.315 28.109-3.461 10.64-5.382 21.498-8.747 32.15-3.1 9.805-6.099 19.627-8.567 29.55-1.1 4.434-1.81 7.989-4.662 11.893-2.381 3.274-2.544 9.075-3.608 12.779-11.032 38.536-29.398 75.208-54.161 109.372-5.505 7.585-10.955 15.23-16.695 22.708-6.826 8.893-16.227 16.103-24.208 24.304-14.439 14.837-32.649 27.872-50.671 39.84-13.018 8.657-26.754 16.589-40.826 24.087-7.16 3.816-14.47 7.457-21.832 11.025a847.926 847.926 0 01-9.996 4.715c-3.624 1.684-6.458 4.702-10.269 6.461-30.549 14.133-61.917 27.142-94.284 38.393-32.094 11.164-65.275 20.245-99.181 27.13-9.2 1.859-19.623 4.787-29.158 4.787-8.169 0-15.83 2.1-23.818 3.443A340.916 340.916 0 010 522.331v.925c12.76-1.323 25.424-3.209 37.99-5.738 5.638-1.134 11.612-.648 17.358-1.624 5.88-1.007 11.73-2.105 17.572-3.239 12.43-2.421 24.745-5.228 36.974-8.271 45.51-11.301 89.076-27.105 131.026-45.117 10.526-4.527 20.926-9.229 31.273-14.019 4.624-2.133 7.988-5.402 12.674-7.597a701.9 701.9 0 0017.219-8.418c19.217-9.692 37.615-20.408 54.997-32.107 18.109-12.193 35.335-25.633 49.884-40.594 6.342-6.518 13.673-12.124 19.412-19.041 6.544-7.889 12.151-16.378 18.148-24.541 17.632-24.011 31.915-49.488 42.707-75.97 5.748-14.094 10.307-28.489 14.166-42.982.702-2.633 1.905-4.409 3.56-6.687 1.601-2.194 1.531-6.155 2.124-8.643 1.969-8.264 4.475-16.44 7.013-24.604 4.567-14.668 7.621-29.561 12.682-44.142 5.106-14.713 10.995-29.263 17.913-43.495C556.101 42.96 570.843 20.62 588.812 0h-1.546z" fill="#F5F5F5"/><path d="M604.89 0c-53.919 56.036-70.467 126.754-92.706 194.128-12.33 37.364-26.917 74.354-49.213 108.743-22.864 35.275-54.849 66.951-91.12 93.943-6.717 5.002-13.853 9.604-21.35 13.833-6.388 3.592-13.041 6.087-18.68 10.415-13.641 10.453-29.251 19.122-45.134 27.217-32.188 16.403-66.954 30.385-101.906 42.584C125.995 511.383 63.625 524.927 0 530.715v1.032a783.896 783.896 0 00111.135-18.208c48.704-11.625 94.183-28.538 139.108-47.373 22.256-9.33 43.831-19.658 63.908-31.82 9.363-5.662 17.523-13.433 27.682-18.087 9.637-4.402 18.43-9.941 26.784-15.754 35.726-24.858 66.673-56.029 89.928-88.972 35.193-49.862 51.459-106.24 68.976-161.261C544.513 96.912 564.065 43.775 606.49 0h-1.6z" fill="#F5F5F5"/><path d="M622.648 0c-57.239 56.05-77.457 128.731-100.883 197.416-13.798 40.475-30.438 80.041-55.6 116.98-24.433 35.879-59.081 67.413-97.033 94.516-52.935 37.82-115.093 68.143-179.462 91.654-34.696 12.676-71.381 20.631-108.364 27.707A815.512 815.512 0 010 539.595v.986c40.09-3.617 79.573-10.326 118.633-18.822 48.969-10.637 94.628-27.616 138.521-47.86 84.46-38.942 164.267-91.679 211.541-161.105 35.788-52.551 52.249-110.694 72.061-167.909C558.623 93.307 581.518 41.605 624.287 0h-1.639z" fill="#F5F5F5"/><path d="M644.628 0c-10.587 9.236-20.45 18.973-29.429 29.294-6.74 7.733-11.816 17.693-20.109 24.341-7.199 5.77-11.135 16.534-14.986 24.005-19.311 37.483-29.103 77.316-41.675 116.432-12.823 39.896-29.782 80.142-54.546 116.338-23.152 33.841-53.693 64.969-87.77 92.116-28.831 22.964-61.129 43.27-94.543 61.756-33.383 18.473-69.366 33.853-106.74 46.439C132.837 531.614 66.79 544.009 0 549.736v1.022c79.142-6.846 156.848-23.185 228.636-51.213 21.255-8.296 41.815-17.725 61.665-28.016 9.646-5.002 19.056-10.278 28.309-15.741 9.362-5.525 19.319-14.407 30.157-17.637 3.218-.961 5.903-4.154 8.308-5.976 4.351-3.305 8.871-6.46 13.393-9.604 9.769-6.797 19.358-13.62 28.541-20.93 15.969-12.723 30.744-26.374 44.487-40.663 25.294-26.288 46.604-54.758 62.526-85.418 17.227-33.178 29.682-67.755 40.286-102.618 10.487-34.476 20.631-69.095 38.599-101.676 2.085-3.78 4.334-7.509 6.63-11.213 2.514-4.054 6.669-6.736 9.355-10.571 5.192-7.421 10.948-14.575 17.023-21.548C626.497 18.069 636.07 8.8 646.285 0h-1.657z" fill="#F5F5F5"/><path d="M661.849 0c-11.566 9.155-22.646 18.685-32.775 28.914-14.532 14.668-26.113 31.195-36.943 47.742-5.287 8.07-8.371 17.037-11.776 25.694-4.146 10.521-8.833 21.055-12.096 31.776-5.998 19.652-11.987 39.303-18.561 58.836-13.37 39.685-29.832 78.713-53.257 115.36-21.865 34.201-50.875 65.84-84.164 93.432-13.143 10.888-27.215 21.029-41.856 30.596-3.56 2.332-5.981 5.064-8.816 7.934-3.545 3.579-9.668 6.336-14.211 9.105-8.216 4.989-16.431 9.991-24.731 14.906-34.016 20.119-71.483 37.556-110.153 51.328C145.363 539.518 73.075 553.379 0 558.83v1.012c88.935-6.678 176.059-25.872 254.765-60.323 22.934-10.04 44.908-20.569 66.053-32.905 10.012-5.837 19.836-11.874 29.699-17.861 4.084-2.482 8.519-4.716 11.986-7.758 4.427-3.892 8.137-7.46 13.259-10.852 35.407-23.412 66.04-51.086 91.903-81.432 47.196-55.383 72.108-119.084 92.348-183.54 10.792-34.382 19.858-70.791 42.793-101.489 10.713-14.344 20.692-28.058 34.195-40.961C645.325 14.763 654.307 7.26 663.576 0h-1.727z" fill="#F5F5F5"/><path d="M541.209 0c-18.897 32.419-31.563 66.814-43.027 101.371-6.715 20.225-11.799 40.768-16.766 61.306-4.99 20.688-9.035 41.798-16.413 62.043-14.346 39.322-34.32 76.405-65.744 108.903-27.386 28.322-61.666 51.783-98.962 71.336-49.054 25.732-103.99 44.493-157.458 63.426-13.658 4.84-27.33 9.643-40.987 14.482-14.276 5.065-31.135 6.861-46.323 9.654-18.382 3.381-36.874 6.412-55.529 8.508v1.01c13.47-1.523 26.862-3.505 40.2-5.763 12.556-2.12 25.05-4.515 37.544-6.873a9750.789 9750.789 0 0118.734-3.53c5.904-1.084 12.159-4.304 17.718-6.274 49.306-17.437 98.729-34.675 146.401-54.882 78.175-33.117 148.673-82.886 183.376-149.431 11.714-22.465 21.872-45.977 28.167-69.807 6.537-24.722 11.9-49.631 18.507-74.347C502.555 86.62 518.165 41.355 542.576 0h-1.367zM313.838 0c-12.596 5.563-25.284 10.995-37.373 17.22-19.78 10.184-38.92 21.447-57.255 33.21-18.171 11.662-36.428 22.433-53.28 35.387-15.469 11.88-29.79 24.696-42.714 38.392-24.669 26.132-42.238 56.124-65.688 82.96-16.103 18.43-34.945 35.387-57.528 48.31v1.29c18.373-10.358 34.35-23.393 48.25-37.844 25.2-26.206 43.34-55.848 66.274-83.215 27.066-32.306 62.44-57.988 100.673-81.489 19.42-11.937 38.785-23.842 59.198-34.713C287.874 12.336 302.225 6.274 316.422 0h-2.584z" fill="#F5F5F5"/><path d="M682.94 0c-13.306 9.41-26.253 18.885-37.499 30.292-14.242 14.45-26.049 30.359-36.435 46.755-22.108 34.907-32.985 72.827-45.268 110.459-11.917 36.503-25.972 72.651-45.37 107.089-9.457 16.783-20.381 33.017-32.68 48.571-5.998 7.59-12.448 14.943-19.163 22.128-3.952 4.229-8.082 8.344-12.284 12.411-3.31 3.212-5.488 7.503-8.831 10.496-57.122 51.209-121.607 98.509-199.158 128.919-19.591 7.669-39.95 14.035-60.761 19.205-10.283 2.575-20.709 4.721-31.203 6.626-10.722 1.947-20.312 3.219-30.088 7.363-11.152 4.736-26.308 5.548-38.576 7.541-12.791 2.074-25.628 3.954-38.49 5.701A1314.817 1314.817 0 010 569.069v.996a1447.759 1447.759 0 0041.075-4.685c26.245-3.397 54.005-6.325 79.446-12.64 3.741-.919 7.186-2.804 10.659-4.199 5.577-2.233 12.081-2.698 18.111-3.679 11.447-1.895 22.777-4.266 33.984-6.938 20.2-4.792 39.854-10.99 58.932-18.137 78.199-29.311 143.137-76.871 200.548-127.713 6.716-5.943 11.511-12.704 17.797-18.979 7.097-7.077 13.75-14.443 20.115-21.953 12.938-15.266 24.145-31.444 34.148-48.059 19.663-32.68 33.75-67.344 45.759-102.257 13.324-38.692 23.014-78.363 44.434-114.91 10.174-17.362 22.131-34.033 36.242-49.532C653.929 22.44 668.898 11.157 684.718 0h-1.778z" fill="#F5F5F5"/><path d="M700.301 0c-26.611 17.201-49.122 38.063-67.376 61.393-11.323 14.476-20.695 29.9-28.62 45.747-9.715 19.434-13.759 40.458-19.648 60.757-1.422 4.902-3.014 9.767-4.724 14.607-1 2.825-2.226 5.469-4.255 7.933-.61.736-2.031 2.438-2.242 3.355-.867 3.86-.413 7.74-1.468 11.631-1.64 6.094-4.998 11.925-8.09 17.599-9.426 17.327-15.009 36.18-23.606 53.843-18.796 38.642-43.558 74.576-76.653 106.508-14.211 13.716-29.54 26.662-45.204 39.298-7.568 6.099-15.259 12.111-22.966 18.086a4523 4523 0 01-12.861 9.93c-3.288 2.531-7.996 3.604-11.058 6.036-16.492 13.134-34.194 25.134-52.912 36.172-18.844 11.115-38.716 22.355-59.817 30.499C177.394 554.825 89.123 569.82 0 578.69v1.006c39.662-3.939 79.128-9.079 118.11-16.252 51.077-9.39 100.007-22.965 147.086-41.424 21.499-8.42 41.88-20.854 60.95-32.355 18.201-10.988 34.03-24.933 52.873-34.837 3.974-2.096 7.489-5.751 10.916-8.396a2919.5 2919.5 0 0012.744-9.891c9.051-7.047 17.992-14.182 26.785-21.442 16.938-13.956 33.063-28.526 47.978-43.905 27.464-28.327 47.642-60.79 64.048-94.061 9.035-18.337 14.891-37.814 24.699-55.844 3.725-6.836 8.121-14.462 8.121-22.053 0-2.981.477-5.725 2.46-8.288.641-.829 2.202-2.408 2.562-3.356a255.602 255.602 0 005.068-14.537c6.192-19.596 10.166-39.584 18.038-58.837 6.943-16.995 17.438-33.36 28.815-48.689C649.854 40.458 673.875 18.112 702.291 0h-1.99z" fill="#F5F5F5"/><path d="M725.653 0c-28.838 16.896-54.484 36.847-75.191 60.478-13.93 15.883-24.832 35.36-32.422 53.728-8.292 20.05-15.001 40.301-21.794 60.701-6.778 20.32-14.048 40.532-22.302 60.496-3.952 9.58-8.223 19.071-12.737 28.488-2.264 4.735-4.645 9.424-7.074 14.107-2.742 5.303-3.966 10.752-7.185 15.986-11.634 18.91-21.591 38.973-35.999 56.641-7.027 8.613-13.641 18.049-21.966 25.87-7.73 7.271-15.523 14.5-23.371 21.691-58.06 53.137-121.74 103.965-200.947 136.473-44.924 18.434-94.557 29.495-143.526 38.625C81.189 580.733 40.683 586.082 0 590.261v.986c39.74-4.092 79.283-9.344 118.39-16.425 48.47-8.773 97.276-19.834 142.058-37.348 80.776-31.594 145.52-83.471 204.241-136.918 7.271-6.623 14.455-13.297 21.608-19.989 7.192-6.723 12.893-13.938 19.015-21.305 7.013-8.45 13.626-16.739 19.202-25.857 6.044-9.865 11.939-19.801 17.913-29.692 2.804-4.641 5.63-9.268 8.488-13.89 2.023-3.279 1.812-5.78 3.201-9.211 4.202-10.352 10.277-20.381 14.893-30.653 8.879-19.758 16.415-39.895 23.458-60.121 7.129-20.457 13.086-41.163 21.114-61.406 8.122-20.47 18.109-39.809 31.284-58.55C664.555 41.872 694.87 18.778 727.649 0h-1.996z" fill="#F5F5F5"/><path d="M744.607 0c-.588.338-1.138.686-1.599 1.054-8.239 6.611-18.679 11.35-27.795 17.189-8.623 5.524-16.639 11.619-24.302 17.973-3.992 3.305-7.792 6.755-11.547 10.228-3.825 3.537-6.34 7.77-10.312 11.232-6.384 5.551-10.286 13.553-15.059 20.04-6.685 9.086-12.391 18.622-17.563 28.32-9.277 17.401-16.071 35.593-22.356 53.809-6.615 19.178-12.612 38.481-19.92 57.503-3.484 9.075-8.004 17.774-11.401 26.861-3.866 10.347-9.825 20.612-12.785 31.077-2.912 10.291-8.988 19.877-14.484 29.443-5.724 9.967-11.862 19.778-18.179 29.513-12.378 19.071-24.958 37.819-42.051 54.477-15.689 15.292-33.461 29.337-50.727 43.481a1617.336 1617.336 0 01-54.755 42.921c-19.749 14.806-39.857 29.026-61.44 42.086-9.746 5.901-19.679 11.577-30.048 16.737-4.803 2.406-9.762 5.365-15.549 5.625-3.591.164-9.277 4.465-12.454 5.911-11.23 5.094-23.521 8.548-35.618 12.042-12.36 3.567-24.417 7.797-37.005 10.801-25.098 5.998-51.492 9.115-77.08 13.508C80.54 588.729 40.403 595.253 0 600.577v1.011c40.512-5.339 80.76-11.889 120.911-18.771 25.654-4.404 51.821-7.796 77.083-13.523 11.689-2.642 22.794-6.673 34.196-9.989 11.274-3.269 22.527-6.514 33.334-10.693 5.583-2.171 10.87-4.736 16.001-7.505 2.101-1.139 3.053-.276 5.052-.715 1.062-.235 3.788-1.569 4.388-1.829 11.605-5.104 22.458-11.251 33.095-17.54 20.232-11.95 39.029-24.846 57.543-38.467 18.836-13.846 37.186-28.115 55.202-42.634 18.162-14.657 36.842-29.312 53.592-45.016 32.804-30.759 55.357-68.822 75.145-105.824 4.388-8.214 6.785-16.833 10.736-25.191 4.888-10.309 7.591-21.217 12.8-31.426 9.213-18.03 14.594-37.607 20.841-56.397 6.31-18.973 12.767-37.92 21.147-56.387 4.411-9.709 9.532-19.196 15.251-28.457 5.527-8.963 12.589-17.226 18.046-26.194 2.207-3.637 5.77-6.231 8.598-9.487 3.569-4.103 6.985-8.132 11.124-11.899 7.996-7.271 16.613-14.076 25.71-20.456C721.93 14.68 735.088 6.928 748.81 0h-4.203zM1860.7 765.765c17.69-18.934 35.44-38.18 57.74-53.472v-1.313c-22.99 15.593-41.14 35.365-59.3 54.785h1.56zM697.026 501.789c34.525 25.917 77.692 44.953 120.36 60.694 45.144 16.651 95.111 21.954 144.221 24.738 25.838 1.457 51.723 2.182 77.563 3.49 24.94 1.262 49.95 2.631 74.03 8.323 42.15 9.952 78.06 31.579 110.32 54.805 16.08 11.577 31.43 23.772 46.9 35.86 7.78 6.065 15.43 12.247 23.78 17.816 10.04 6.718 20.69 12.982 28.98 21.029 4.52 4.352 11.4 7.719 16.91 11.26 6.94 4.455 13.89 8.92 20.83 13.376 6.79 4.373 13.55 8.792 20.35 13.181h1.99a14352.37 14352.37 0 00-47.49-30.624c-9.2-5.901-16.49-12.757-25.55-18.822-10.08-6.733-20.12-13.38-29.57-20.676-30.33-23.405-59.72-47.765-93.73-67.797-33.79-19.905-71.58-33.041-113.44-36.52-51.48-4.266-103.409-3.852-154.816-8.982-26.522-2.631-52.75-7.081-78.063-14.029-23.95-6.566-46.935-16.232-68.96-26.149-21.973-9.891-42.873-21.264-62.428-34.001-20.324-13.246-34.506-29.398-40.999-49.968-13.587-43.019 29.951-78.369 60.471-108.747 32.216-32.07 62.768-65.187 93.454-98.197a8268.264 8268.264 0 0123.107-24.766c4.458-4.753 8.994-9.248 14.252-13.465 4.056-3.249 8.674-6.274 11.598-10.272 6.071-8.307 16.338-15.092 24.782-21.934 9.922-8.04 20.342-15.186 31.544-22.041 9.838-6.024 19.076-12.286 29.682-17.474 11.476-5.614 23.458-10.553 35.593-15.181 24.663-9.41 50.443-15.859 76.573-22.077 50.09-11.912 100.98-21.424 150.68-34.402 22.55-5.887 44.63-12.79 65.58-21.766 14.65-6.274 36.04-14.718 22.32-29.623-7.14-7.74-19.02-11.895-29.85-15.224A688.249 688.249 0 011266.63 0h-4.69c.42.143.86.299 1.29.443 11.8 3.949 23.93 6.43 34.64 12.261 5.98 3.25 13.01 8.757 13.58 14.875.72 7.645-9.02 11.786-15.92 15.16-11.16 5.44-22.9 10.06-34.85 14.264-47.54 16.702-98.95 25.97-148.84 36.915-25.62 5.62-51.16 11.519-76.44 18.062-23.64 6.104-46.145 14.319-67.895 23.916-21.442 9.462-41.497 21.705-59.645 34.852-8.854 6.41-17.08 13.359-25.384 20.213-8.61 7.091-15.167 14.968-23.867 21.946-17.886 14.338-31.934 32.374-47.025 48.621-15.602 16.784-31.211 33.553-47.063 50.187-16.581 17.4-33.494 34.607-50.837 51.521-14.719 14.357-29.279 28.464-39.098 45.477-18.104 31.359-9.206 69.315 22.44 93.076z" fill="#F5F5F5"/><path d="M775.435 0c-4.031 1.852-7.319 3.83-10.581 6.45-5.099 4.097-13.082 6.797-19.051 10.077-19.446 10.658-36.597 23.806-53.223 37.108-2.994 2.395-4.407 6.2-7.35 8.857-3.038 2.736-7.088 5.724-9.557 8.768-6.429 7.92-13.44 15.087-18.647 23.65-10.517 17.281-16.569 36.272-23.064 54.682-14.313 40.576-27.635 81.376-44.229 121.403-8.597 20.73-18.218 41.187-29.143 61.207-1.287 2.358-2.693 8.063-4.263 10.034-3.108 3.905-5.45 8.351-8.341 12.381-6.839 9.547-14.749 18.591-23.238 27.242-14.626 14.893-32.227 27.902-48.423 41.697-15.696 13.359-31.212 26.856-47.032 40.127-31.838 26.693-65.259 52.328-103.274 73.342-19.216 10.627-39.317 19.297-60.666 26.766-11.893 4.169-23.482 7.286-35.983 10.045a813.143 813.143 0 01-17.68 3.688c-5.458 1.078-13.236 1.176-18.202 3.148-11.784 4.7-24.504 6.125-37.287 8.271a8204.829 8204.829 0 00-40.989 7.02 5555.053 5555.053 0 00-77.848 14.157 4954.806 4954.806 0 00-18.763 3.592c-5.897 1.15-12.456.623-18.601 1.211v.96c5.168-.664 10.361-.838 15.632-.562 5.569.276 13.479-2.595 18.945-3.632 25.887-4.936 51.844-9.641 77.839-14.203 12.58-2.208 25.168-4.353 37.764-6.499 12.181-2.059 26.12-2.958 37.529-7.01 11.323-4.031 24.122-5.354 36.1-7.898 11.699-2.468 23.49-4.777 34.602-8.671 21.45-7.505 41.769-15.562 61.448-25.851 18.233-9.534 35.382-20.345 51.819-31.76 34.367-23.862 65.095-50.865 96.096-77.46 15.884-13.608 32.774-26.605 48.213-40.531a236.444 236.444 0 0040.114-46.969c1.539-2.376 2.733-3.879 3.061-6.517.61-4.883 5.145-10.427 7.512-14.925 4.927-9.355 9.494-18.821 13.884-28.345 9.089-19.695 17.031-39.728 24.535-59.846 14.985-40.159 26.16-81.583 43.693-121.073 4.107-9.249 8.598-18.317 14.701-26.85 6.154-8.605 14.674-16.544 22.632-24.073 2.342-2.213 4.574-3.673 5.834-6.386 2.182-4.715 9.801-9.056 14.24-12.479 9.807-7.559 20.029-14.763 30.802-21.43 9.672-5.987 21.871-10.227 30.437-17.1 2.77-2.22 6.013-4.117 9.519-5.813h-1.516zm-83.396 520.19c37.685 25.52 84.684 43.617 129.565 59.47 23.011 8.118 46.756 14.397 71.481 18.147 24.737 3.756 49.993 5.018 75.101 5.999 51.174 2.023 103.454 2.523 151.914 17.478 23.41 7.219 42.91 18.684 62.9 30.532 20.87 12.364 41.61 24.86 60.21 39.406 17.09 13.37 35.11 25.136 54.15 36.647 20.62 12.471 40.68 25.53 60.81 38.492h1.97c-15.98-10.254-31.95-20.493-48.01-30.66-19.28-12.21-39.61-23.389-57.59-36.856-17.62-13.213-34.8-26.098-54.04-37.823-19.24-11.72-38.41-24.161-59.77-33.301-42.22-18.05-90.99-21.693-137.94-23.64-53.533-2.217-106.769-3.08-157.753-17.922-25.166-7.321-49.149-17.075-72.952-26.843-22.473-9.232-44.485-19.098-64.974-30.971-39.278-22.777-75.161-55.144-74.2-96.22.507-21.677 13.313-39.62 31.084-55.262 17.655-15.535 36.635-30.155 54.758-45.347 35.478-29.742 64.994-62.909 94.542-96.437 29.874-33.916 64.277-64.967 105.084-90.694 41.6-26.225 90.241-40.283 140.291-52.519 47.69-11.65 97.01-20.78 142.7-36.959 15.31-5.419 34.21-13.29 36.55-28.07 1.87-11.819-13.51-20.613-26.44-26.837h-2.96c1.72.88 3.46 1.759 5.18 2.682 12.07 6.524 25.95 14.22 22.23 27.454-2.73 9.723-15.57 15.841-25.66 20.207-10.95 4.746-22.83 8.438-34.46 11.967-24.09 7.304-49.5 12.374-74.17 18.242-25.77 6.124-51.59 12.168-77.12 18.897-45.67 12.025-86.752 29.756-123.241 54.92-38.228 26.357-69.203 57.384-97.989 90.369-30.885 35.387-63.907 68.411-101.483 99.389-16.837 13.882-35.676 27.26-50.127 42.839-12.952 13.976-19.676 29.942-20.082 47.355-.826 35.412 28.482 64.213 60.441 85.869z" fill="#F5F5F5"/><path d="M808.04 0c-59.051 21.623-111.935 55.125-139.679 103.248-9.557 16.577-14.617 34.539-20.509 52.101-6.87 20.481-13.608 40.994-20.542 61.456-13.837 40.795-28.689 81.383-46.792 121.104-4.621 10.147-8.941 20.431-16.179 29.598-7.669 9.724-16.711 19.154-26.105 27.83-7.684 7.089-16.188 13.614-24.715 20.037-9.38 7.072-18.468 14.794-28.455 21.292-40.03 26.057-74.177 57.752-112.113 85.742-19.1 14.081-38.88 27.441-60.565 38.916-21.655 11.449-45.557 17.401-70.195 23.287-25.62 6.126-50.898 12.262-77.214 16.206-26.136 3.913-52.444 7.01-78.267 12.144-21.67 4.333-43.129 9.432-64.658 14.173-7.286 1.599-14.681 3.178-22.052 4.864v.889c13.548-3.132 27.285-5.855 40.7-8.819 25.683-5.691 51.265-11.516 77.456-15.531 26.394-4.052 52.998-7.148 79.174-12.114 24.981-4.726 50.015-11.71 74.419-18.096 45.19-11.828 81.93-39.764 115.758-65.422 18.797-14.271 36.998-29.014 55.349-43.646 18.257-14.544 37.826-27.703 56.459-41.86 17.249-13.122 34.952-25.708 49.523-40.863 7.559-7.864 15.165-15.985 21.154-24.691 6.068-8.813 9.668-19.059 13.932-28.489 17.953-39.733 32.461-80.403 46.251-121.166 6.935-20.493 13.673-41.025 20.556-61.531 6.218-18.536 12.148-36.796 23.01-54.016 18.967-30.073 49.513-54.446 84.025-73.211 16.741-9.1 34.608-16.834 53.089-23.432h-2.815zM186.686 735.892c41.653-.511 83.172-3.97 124.614 1.145 19.655 2.406 37.803 7.694 55.623 14.693 11.557 4.542 22.817 9.355 33.406 15.031h2.069c-8.581-4.639-17.609-8.721-26.939-12.67-15.665-6.627-31.877-12.288-49.072-15.808-38.873-7.919-80.212-5.037-119.795-3.852-20.725.623-41.49 1.047-62.144-.639-21.443-1.757-42.66-5.037-63.572-9.181C53.326 719.15 26.409 711.828 0 703.496v1.037c59.73 18.709 122.051 32.166 186.686 31.359zM1918.95 186.29c-18.39-2.358-36.64-5.62-55.08-7.803-9.65-1.141-18.58-3.979-28.25-5.612-12.54-2.121-24.93-4.759-37.2-7.704-50.5-12.117-98.13-32.025-145.57-50.173-23.76-9.087-47.59-18.074-71.73-26.474-23.22-8.071-47.05-14.906-70.26-22.958a541.92 541.92 0 01-31.45-12.043c-5.3-2.214-10.51-4.571-15.68-6.973-6.2-2.881-15.26-5.999-19.49-10.77-8.83-9.985 6.93-18.336 15.81-22.564 10.81-5.146 22.74-8.682 34.69-11.675 2.15-.537 4.3-1.048 6.47-1.541h-4.32c-2.55.6-5.08 1.216-7.61 1.871-9.49 2.476-18.68 5.606-27.49 9.392-6.23 2.689-16.3 6.293-19.05 12.019-7.17 14.867 12.35 20.512 25.58 26.55 20.32 9.272 41.78 16.831 63.47 23.78 49.6 15.884 97.8 33.658 146.03 52.051 45.41 17.318 91.06 34.738 139.91 44.884 4.83.999 9.7 1.904 14.58 2.782 5.46.986 12.76 1.099 17.61 3.381 7.59 3.555 17.33 3.149 25.93 4.327 14.4 1.972 28.71 4.379 43.1 6.238v-.985z" fill="#F5F5F5"/><path d="M507.365 0c-.828 6.605-1.827 13.147-3.857 19.72-3.327 10.784-6.973 21.499-10.504 32.238a571.583 571.583 0 00-16.391 60.963c-8.01 37.999-15.164 76.188-28.258 113.333-13.371 37.9-33.713 74.728-64.737 105.499-26.511 26.287-60.213 47.137-96.182 64.462-45.346 21.841-94.44 38.093-142.284 55.98a1694.813 1694.813 0 00-17.946 6.836c-6.224 2.408-14.689 7.358-21.645 7.658-6.342.275-12.816 3.456-18.735 5.202-7.684 2.269-15.523 4.19-23.395 5.988C42.66 482.618 21.388 485.761 0 488.218v.96c12.384-1.434 24.73-3.093 37.007-5.114 12.002-1.982 23.863-4.44 35.584-7.297 5.88-1.421 11.69-3.055 17.461-4.751 2.897-.861 5.754-1.785 8.62-2.707 2.977-.96 6.1-.96 8.996-1.709 8.497-2.221 16.586-6.324 24.644-9.417 9.708-3.742 19.493-7.373 29.277-10.964 18.834-6.935 37.749-13.733 56.505-20.806 73.887-27.89 146.291-62.647 189.537-120.199 34.694-46.183 50.039-99.013 61.502-151.57 6.028-27.622 10.738-55.457 18.859-82.748 4.177-14.019 8.996-27.915 13.541-41.86 2.154-6.63 4.911-13.421 6.004-20.225.524-3.262.883-6.537 1.226-9.811h-1.398zM358.278 0c-34.335 14.893-68.061 30.634-100.688 47.867-20.467 10.808-40.925 21.865-59.276 34.937-17.063 12.156-32.346 25.857-46.339 40.295-27.261 28.122-47 59.673-70.755 89.571C60.667 238.533 33.046 260.405 0 275.355v1.129c28.533-12.785 53.279-30.691 72.638-51.926 13.907-15.249 24.723-32.12 36.71-48.341 11.549-15.623 23.738-30.934 37.123-45.589a349.045 349.045 0 0146.556-42.56c19.045-14.494 40.832-26.312 62.62-37.962C289.623 31.944 324.973 15.523 360.911 0h-2.633zm491.76 0c-27.104 7.609-53.274 17.189-77.877 29.387-19.223 9.537-37.192 20.5-52.238 34.09-14.202 12.822-24.872 27.734-33.764 43.252-9.851 17.199-16.971 35.304-22.863 53.602-3.019 9.394-5.648 18.867-8.226 28.341-.761 2.787-3.269 5.045-4.094 7.996a2999.617 2999.617 0 00-5.003 17.992c-5.712 20.75-11.044 41.561-15.604 62.49a741.604 741.604 0 00-5.935 30.455c-1.397 8.008-3.851 15.648-.657 23.555.336.631.68 1.26 1.048 1.884.336.592 1.42.081 1.084-.511-5.145-9.255-1.062-20.232.649-29.811 1.804-10.129 3.896-20.226 6.122-30.305 4.451-20.106 9.724-40.095 15.212-60.034 1.171-4.284 2.374-8.569 3.57-12.847.998-3.561 3.262-6.362 4.471-9.649 3.25-8.811 5.086-18.061 7.856-26.992 5.904-19.053 13.44-37.725 23.464-55.656 8.7-15.567 19.652-30.116 33.559-43.045 15.34-14.27 34.602-25.309 54.464-35.163C799.867 16.84 826.299 7.428 853.608 0h-3.57z" fill="#F5F5F5"/><path d="M1158.32 0h-2.67c5.6 2.713 11.01 5.675 15.81 9.355 6.49 4.977 9.79 11.357 7.9 18.505-2.44 9.329-19.96 15.603-29.66 19.495-43.18 17.344-90.72 24.915-136.39 36.803-44.83 11.668-87.447 31.713-122.643 56.822-38.024 27.111-70.144 59.878-101.464 91.859-23.534 24.036-45.815 49.008-72.791 70.649-5.08 4.073-11.547 6.636-16.85 10.69-6.346 4.834-13.12 9.262-20.298 13.271-7.132 3.985-14.879 7.192-22.991 9.673-4.126 1.267-8.412 2.121-12.711 2.851-8.451 1.434-12.769-2.626-16.424-7.44-.413-.556-1.506-.05-1.084.511 3.372 4.434 5.52 8.064 12.36 8.6 8.795.698 20.207-3.929 27.954-6.916 8.732-3.368 16.677-7.971 24.187-12.835 4.107-2.663 7.983-5.538 11.796-8.457 3.979-3.032 8.873-4.36 12.705-7.434 36.251-29.075 65.473-63.364 97.708-95.278 32.1-31.788 66.228-64.087 108.269-87.687 20.196-11.345 41.997-21.629 64.617-29.511 23.8-8.295 49.04-13.69 74.08-18.96 10.99-2.315 21.41-6.205 32.35-8.626 4.96-1.092 9.91-1.21 14.64-2.95 6.31-2.326 12.81-4.346 19.27-6.404 9.84-3.137 19.62-6.337 29-10.266 4.63-1.94 9.03-4.192 13.28-6.61 2.96-1.684 8.84-4.416 10.26-7.036 8.14-15.049-4.81-24.915-20.21-32.674zm760.3 5.002c-5.57-1.627-11.11-3.3-16.65-5.002h-3.48c6.69 2.07 13.38 4.11 20.13 6.075V5.002zm-.27 169.375c-41.31-4.678-82.01-12.304-121.49-23.268-23.61-6.555-46.93-14.326-69.21-23.432-10.17-4.16-19.72-9.274-29.9-13.459-11.43-4.69-23.43-8.644-35.14-12.854-43.3-15.553-86.32-31.47-124.61-54.214-28.12-16.702 3.64-34.67 23.42-42.154 5.02-1.902 10.12-3.536 15.29-4.996h-4.04c-2.57.786-5.09 1.627-7.6 2.538-14.47 5.264-32.48 11.819-38.27 24.829-7.03 15.81 17.05 24.728 30.66 31.893 20.53 10.828 42.43 19.908 64.6 28.378 22.12 8.445 44.66 16.19 66.91 24.411 22.02 8.132 42.42 18.565 64.66 26.486 45.66 16.259 94.06 27.341 143.24 34.221 7.14.997 14.3 1.877 21.48 2.676v-1.055z" fill="#F5F5F5"/><path d="M1918.61 160.238c-4.41-.592-8.81-1.185-13.2-1.808-6.31-.892-12.6-1.871-18.88-2.919-5.88-.979-13.14-3.593-19.07-3.611-12.9-.05-24.93-4.703-37.14-7.702-12.75-3.125-25.55-6.025-38.1-9.605-23.98-6.836-47.14-16.608-70.21-25.196-21.94-8.17-43.59-16.839-64.31-26.88-10.03-4.858-19.73-10.153-29.13-15.76-10.54-6.292-21.84-13.702-29.88-22.115-9.9-10.365.3-21.236 10.95-27.678 8.72-5.288 19.51-7.908 29.58-11.014A548.814 548.814 0 011659.94 0h-3.79c-1.91.518-3.81 1.036-5.72 1.566-17.25 4.846-36.99 9.299-49.67 20.512-4.43 3.91-8.29 9.685-7.69 15.061.8 7.086 9.59 12.898 15.73 17.145 4.06 2.812 7.65 6.124 11.96 8.894 3.89 2.507 7.9 4.901 11.93 7.258 10.22 5.988 20.95 11.401 31.87 16.528 20.88 9.816 42.79 18.136 64.75 26.25 16.05 5.924 32.1 11.856 48.19 17.737 16.82 6.143 34.85 9.949 52.48 14.22 8.98 2.176 17.72 4.958 26.72 7.028 2.53.586 5.29.624 7.9.699 6.15.182 12.47 1.977 18.45 3.044 11.77 2.107 23.66 3.76 35.56 5.357v-1.061zm.36-139.982c-23.08-6.96-46.09-14.094-69.49-20.256h-3.46c24.6 6.374 48.75 13.971 72.95 21.305v-1.049zm-828.96-9.123c-6.55-4.902-14.12-8.065-22.53-10.428-.89-.255-1.81-.48-2.72-.705h-4.62c.68.15 1.37.299 2.06.455 9.26 2.059 22.99 5.676 27.74 13.04 7.47 11.64-3.83 16.847-14.4 22.428-9.5 5.022-19.67 7.422-30.4 10.353-10.67 2.907-21.28 5.9-31.84 9.025-39.65 11.725-79.004 25.988-112.403 47.055-18.993 11.975-35.395 26.4-52.443 40.083a974.006 974.006 0 00-52.11 44.898c-16.357 15.137-33.066 30.03-50.639 44.274-9.608 7.79-19.818 14.164-30.929 20.481-7.696 4.372-18.756 6.904-26.874 1.391-3.346-2.283-4.286-6.83-6.308-9.954-.281-34.707 2.706-69.688 15.136-103.105 6.179-16.613 15.148-32.512 26.81-47.11 5.93-7.423 12.781-14.339 20.157-20.856 7.964-7.035 17.016-12.237 26.202-18.13 20.349-13.06 45.63-21.473 69.913-28.745 23.042-6.898 46.852-12.092 70.77-16.627C928.059 5.638 945.657 2.77 963.281 0h-6.461c-45.432 7.216-91.145 15.336-133.935 29.843-10.894 3.692-21.551 7.74-31.985 12.211-11.194 4.797-20.253 10.865-30.648 16.59-15.922 8.774-28.831 22.931-39.156 35.853-21.871 27.367-32.305 59.58-37.237 91.536-2.956 19.097-3.685 38.38-3.531 57.608 0 .013.013.019.013.031 0 .02.012.038.012.056a.808.808 0 00.052.151c.012.005.012.012.012.012 2.924 4.397 4.184 10.864 11.042 12.653 10.158 2.646 18.244-.335 26.451-5.001 9.615-5.47 18.091-10.757 26.458-17.425 9.634-7.678 18.936-15.623 28.096-23.661 17.432-15.293 33.13-32.282 51.4-46.894 19.326-15.448 38.594-30.94 57.887-46.413 34.883-27.96 81.082-45.416 126.599-59.286 10.52-3.212 21.16-6.212 31.81-9.155 5.31-1.466 10.63-2.907 15.95-4.348 3.78-1.022 10.43-1.733 13.52-3.698 5.02-3.186 10.42-5.869 15.78-8.656 5.07-2.651 3.96-2.14 6.69-6.312.82-1.235 3.46-4.078 2.83-5.737-.95-2.482-2.75-7.198-4.92-8.825zM80.962 242.519c15.196-14.662 25.425-32.799 37.655-49.077 12.525-16.658 25.519-33.098 39.599-48.945 30.243-34.045 66.11-62.386 110.229-84.738 22.325-11.306 45.455-21.69 68.772-31.613 11.933-5.076 23.848-10.832 36.514-14.638C385.149 10.08 397.3 5.27 409.24 3.425c5.911-.917 11.182-2.657 17.272-3.282.571-.062 1.14-.1 1.711-.143h-4.826c-5.006.699-9.918 1.634-14.493 2.445-11.175 1.99-21.873 6.274-32.697 9.305-11.876 3.324-22.691 8.432-33.82 13.072-44.759 18.667-90.84 38.743-128.229 66.252-43.744 32.181-75.464 73.275-105.575 113.844-7.724 10.402-14.486 21.255-23.1 31.215-9.816 11.331-22.754 20.924-35.889 29.724C34.46 275.997 17.68 284.261 0 291.102v.98c30.79-12 58.8-28.191 80.962-49.563zM460.81 5.982C456.866 2.894 452.383 1.03 447.604 0h-9.574c2.358.17 4.718.45 7.037.83 6.363 1.041 11.986 3.623 16.601 7.234 6.653 5.196 6.957 12.772 7.168 19.695.696 22.596-1.967 44.823-5.973 67.175-7.607 42.504-14.064 84.645-27.691 126.274-12.533 38.318-29.196 74.79-61.308 105.443-30.368 28.989-70.1 50.442-111.878 67.481-10.838 4.415-21.965 7.87-33.139 11.649-11.777 3.992-23.114 8.957-34.664 13.372-24.574 9.393-49.235 18.649-73.794 28.066C81.75 462.025 41.723 471.94 0 477.141v1.062c37.803-4.629 74.472-13.073 109.659-25.859 24.606-8.943 48.853-18.597 73.294-27.814 11.862-4.478 23.693-9.018 35.446-13.671 11.689-4.615 23.989-7.97 35.74-12.486 41.42-15.96 80.361-36.316 111.988-63.239 30.97-26.364 49.227-57.646 62.525-91.91 15.532-40.034 24.246-81.008 31.033-122.489 3.56-21.803 8.105-43.513 9.94-65.478.828-9.904.711-19.783.406-29.692-.234-7.69-2.217-14.114-9.221-19.583z" fill="#F5F5F5"/><path d="M1918.65 139.791c-43.68-5.832-88.04-13.359-128.22-27.841-10.48-3.779-21.51-6.386-31.8-10.572-10.88-4.421-21.24-10.19-31.52-15.466-9.96-5.108-19.64-10.566-28.84-16.533-8.82-5.726-26.38-16.016-27.22-25.858-1.66-19.594 31.11-27.783 49.64-32.006 26.02-5.919 54.79-5.769 81.17-1.497 40.73 6.586 78.34 21.342 116.79 33.678v-1.04c-38.41-12.231-75.84-26.645-116.44-33.618-22.87-3.922-46.98-3.965-69.98-.685-18.36 2.626-40.33 8.357-54.56 18.572-5.52 3.967-7.2 8.907-7.76 14.575-.81 8.108 6.73 12.967 13.3 18.336 15.45 12.611 34.11 22.433 52.71 31.733 41.96 20.961 89.92 33.391 137.95 42.148 14.84 2.699 29.79 4.982 44.78 7.04v-.966z" fill="#F5F5F5"/><path d="M1918.32 111.756c-26.04-2.325-51.99-5.425-77.3-11.045-16.81-3.728-33.11-8.837-48.54-15.38-7.03-2.986-13.76-6.417-20.29-10.071-8.45-4.74-20.29-10.89-23.76-19.04-3.9-9.25 6.47-15.898 15.78-18.654 7.32-2.17 15.31-2.233 23-1.896 18.8.835 37.21 4.665 54.88 9.63 26.43 7.42 51.2 18.004 76.23 28.007v-1.084c-29.17-11.582-57.98-23.83-89.27-31.401-17.31-4.186-36.98-7.56-55.13-6.013-10.34.885-26.39 5.582-27.19 15.642-1.04 13.389 17.09 21.516 29.22 28.115 16.04 8.712 33.89 15.085 52.18 20.037 29.1 7.883 59.66 11.538 90.19 14.195v-1.042zM436.71 98.482c-.141-16.39.978-32.386-11.751-46.225-10.972-11.925-32.204-13.084-48.963-11.014-23.098 2.85-45.361 12.249-65.883 20.75-20.755 8.6-40.458 18.721-58.425 30.715-3.476 2.32-7.981 3.517-11.261 5.83a658.068 658.068 0 00-12.509 9.037c-8.809 6.518-17.258 13.335-25.411 20.377-14.876 12.853-28.252 26.798-39.833 41.678-12.174 15.636-20.935 32.725-32.672 48.572-12.315 16.627-25.417 34.033-41.263 48.64-14.633 13.489-33.445 24.859-52.694 33.79-11.127 5.164-23.45 8.039-35.265 11.918-.266.087-.523.175-.78.262v1.198c8.497-2.695 17.078-5.183 25.472-8.084 20.132-6.947 38.934-18.534 54.802-30.565 16.914-12.822 29.042-29.069 41.536-44.654 13.213-16.478 23.271-33.978 35.008-51.078 11.377-16.591 25.527-31.871 41.082-46.078 7.262-6.635 14.955-12.959 22.833-19.12 3.991-3.119 8.074-6.163 12.19-9.175 4.717-3.462 9.73-5.857 14.985-8.62 9.745-5.12 18.312-12.004 28.026-17.313 10.347-5.649 21.225-10.657 32.259-15.38 22.872-9.778 47.758-19.911 73.809-22.338 12.714-1.192 27.574.692 37.569 7.453 8.401 5.687 12.526 14.892 14.727 23.25 2.623 9.96 1.139 21.298 1.187 31.464.054 11.487-.454 22.962-2.131 34.376-1.43 9.666-1.133 19.296-2.663 28.957a525.476 525.476 0 01-6.536 34.145c-4.57 20.176-10.621 40.401-19.508 59.654-17.827 38.624-51.085 69.384-92.004 93.7-19.764 11.743-41.48 21.885-64.602 28.707-23.31 6.886-47.439 12.199-70.037 20.482-34.212 12.535-65.861 28.85-100.82 40.176-24.927 8.07-50.76 14.457-77.184 18.249v1.047c36.833-5.213 72.684-15.392 106.184-28.464 22.669-8.856 44.355-19.246 67.039-28.089 24.075-9.381 50.087-14.988 75.154-22.428 42.144-12.498 82.133-35.43 111.729-62.46 15.11-13.796 28.674-28.87 38.177-45.615 10.05-17.706 16.689-36.591 22.161-55.493 5.591-19.315 9.255-38.961 12.292-58.632.71-4.584.382-9.268.382-13.883 0-5.026 1.579-10.334 2.226-15.342 1.477-11.406 1.468-22.926 1.366-34.377zm292.593 44.442c-3.64 11.581-3.819 25.34 9.007 33.304 4.727 2.931 16.248-.381 20.195-2.663 10.191-5.887 21.532-10.815 30.335-18.043 33.296-27.367 68.947-53.392 95.124-85.655 2.309-2.856 6.288-6.604 7.407-9.897.512-1.466-2.066-4.453-2.853-5.507-4.542-6.018-11.022-4.995-18.967-5.014-18.34-.031-36.54 3.437-53.447 8.962-33.38 10.915-61.885 31.794-77.174 58.044-4.881 8.37-7.964 17.344-9.627 26.469-.115.636 1.094.911 1.209.268 10.222-56.111 81.312-96.519 150.33-92.383 7.58.455 9.512 8.656 6.525 12.723-2.406 3.286-4.996 6.48-7.638 9.647-6.346 7.647-13.421 14.9-20.733 21.96-13.747 13.271-28.851 25.607-43.999 37.838-7.638 6.155-15.314 12.28-22.927 18.46-8.86 7.185-18.628 12.623-28.972 18.318-5.13 2.825-9.832 4.807-15.928 5.942-9.897 1.84-14.816-4.932-17.311-10.964-2.827-6.835-1.477-14.73.653-21.541.204-.636-1.017-.904-1.209-.268zm-2.132 345.78c10.689 11.451 23.797 21.318 38.03 29.899 30.955 18.648 68.065 30 105.257 37.745 43.877 9.13 89.456 13.494 134.692 14.592 26.92.664 53.85.685 80.71 2.473 27.19 1.793 53.93 6.907 79.39 14.78 48.58 15.041 78.28 51.101 112.63 80.54 33.79 28.989 69.54 56.527 107.49 81.985 8.25 5.538 16.64 10.944 25.1 16.242h2.1c-33.75-21.142-65.8-43.959-96.34-68.068-17.77-14.03-34.95-28.524-51.77-43.295-16.55-14.53-31.78-30.307-49.76-43.744-35.23-26.352-85.19-36.57-132.09-39.677-26.83-1.772-53.81-1.67-80.7-2.319-26.778-.659-53.069-2.943-79.54-6.162-78.057-9.457-163.515-32.018-205.856-89.659-14.208-19.334-16.428-40.849-4.402-61.419 10.632-18.191 25.115-34.731 40.436-50.548 14.624-15.098 31.096-29.255 44.165-45.259 13.958-17.113 26.157-34.832 41.331-51.321 16.05-17.445 32.529-34.639 50.748-50.686 8.054-7.092 16.197-14.107 24.584-20.948 4.241-3.462 8.597-6.83 12.998-10.16 4.133-3.126 9.263-4.609 13.409-7.615 35.97-26.075 80.857-42.123 126.477-54.054 22.27-5.831 44.93-10.67 67.56-15.503 4.95-1.055 9.93-2.028 14.85-3.194 3.99-.947 7.43-2.762 11.75-3.573 12.96-2.427 25.86-5.052 38.65-8.003 11.63-2.68 22.99-5.282 34.83-7.353 4.01-.704 6.93-1.021 10.3-2.812 5.53-2.931 15.22-3.317 21.62-4.54 26.8-5.14 53.66-10.154 81.12-12.38 52.83-4.297 105.09 7.041 154.88 20.07 51.92 13.583 101.3 32.498 151.61 49.262 11.78 3.925 23.58 7.797 35.34 11.745 12.97 4.353 25.25 9.897 38.13 14.437 4.48 1.572 9.53 1.765 14.12 3.43 4.81 1.747 9.67 3.412 14.54 5.058 12.51 4.229 25.23 8.04 38.07 11.576 40.74 11.22 83.08 18.617 125.93 22.016v-1.03c-44.83-3.598-88.91-11.669-131.51-23.605-12.76-3.58-25.35-7.585-37.78-11.844-4.77-1.64-9.55-3.892-14.48-5.177-6.51-1.708-12.83-2.893-19.11-5.338-22.59-8.781-45.56-16.446-68.74-24.186-50.29-16.807-99.72-35.774-151.83-48.876-48.56-12.199-97.88-22.285-149.17-18.555-25.4 1.852-50.37 6.505-75.12 11.208-9.39 1.783-21.63 2.35-29.77 6.655-4.39 2.332-11.94 2.519-17.06 3.423-6.98 1.241-13.63 2.782-20.45 4.465-11.67 2.869-23.47 5.308-35.32 7.628-5.49 1.079-11.11 1.908-16.53 3.187-.87.205-2.36 1.135-3.08 1.522-2.95 1.565-7.3 1.926-10.65 2.644-22.68 4.834-45.32 9.68-67.71 15.304-42.52 10.685-83.803 24.916-119.249 46.894-4.51 2.795-8.841 5.763-13.108 8.781-3.563 2.527-7.67 3.375-11.15 5.932-9.608 7.06-18.698 14.562-27.628 22.171-16.85 14.376-33.393 29.256-47.972 45.16-15.461 16.851-30.43 33.422-43.787 51.396-13.441 18.073-29.433 34.108-45.886 50.429-14.509 14.395-28.525 29.107-40.378 45.016-11.668 15.655-20.471 31.808-19.166 50.394 1.107 15.878 12.692 30.459 24.245 42.844zm1107.349 276.91c26.43-26.159 50.7-54.811 84.71-74.327v-1.262c-34.77 19.746-59.36 49.006-86.33 75.589h1.62z" fill="#F5F5F5"/><path d="M407.881 99.954c-3.819-12.779-20.328-26.281-37.029-26.307-9.435-.012-19.579-1.123-28.722.98-10.902 2.507-21.498 5.8-31.844 9.517-40.092 14.42-77.91 37.689-105.015 65.41-27.042 27.659-44.525 60.365-65.735 90.88-18.522 26.649-40.216 51.148-72.356 68.205-14.83 7.864-31.314 13.515-48.354 17.444-2.092.487-3.02 2.021-5.044 2.7-4.334 1.447-9.183 2.314-13.782 3.319v1.021l1.522-.355c9.824-2.306 18.007-5.619 27.565-8.176 18.367-4.921 35.914-12.51 51.079-22.172 34.742-22.145 55.654-53.503 75.87-84.513 21.068-32.293 42.051-64.842 75.644-90.075 17.236-12.942 36.968-24.223 57.334-33.753 10.253-4.803 20.983-8.924 31.977-12.518 11.886-3.885 24.176-7.777 37.154-6.816 5.171.38 10.239-.087 15.407-.08 8.114.012 15.243 4.683 20.624 9.073 9.807 8.008 13.54 18.698 15.758 29.426 4.507 21.746 2.819 44.055-.063 65.851-2.662 20.177-6.208 40.283-13.048 59.855-3.443 9.841-7.996 19.408-13.408 28.657-2.592 4.434-5.545 8.724-8.622 12.954.095-.126-.788 1.047-.818 1.478-.219 3.111-1.696 5.008-3.725 7.571-24.021 30.266-58.349 54.397-99.072 69.227-24.418 8.893-50.898 12.629-76.426 18.841-11.869 2.888-22.613 7.409-34.217 10.783-11.776 3.43-21.881 7.895-32.587 13.122-24.668 12.024-49.946 23.237-76.637 32.131-16.352 5.45-33.734 9.08-51.311 11.787v.773c12.65-2.033 25.207-4.428 37.654-7.234 22.45-5.077 44.402-15.205 64.65-24.249 10.69-4.777 21.178-9.841 31.625-14.955 11.363-5.563 23.154-8.687 35.242-12.94 25.137-8.844 51.296-13.223 77.48-19.589 40.559-9.874 76.472-29.464 104.154-55.052 6.357-5.876 12.135-12.13 17.587-18.554 5.848-6.892 8.636-13.902 13.43-21.242 10.963-16.796 17.672-35.157 22.279-53.673 9.519-38.274 15.251-80.44 3.78-118.752zm586.276 455.402c43.823 1.323 88.053-.388 131.713 3.219 22.06 1.819 44 5.298 64.4 12.435 21.3 7.434 37.08 19.471 51.43 33.812 16.39 16.431 31.27 33.802 47.13 50.554 14.78 15.604 30.97 29.613 48.3 43.371 8.28 6.576 16.22 13.437 24.59 19.946 9.7 7.531 20.41 14.168 30.83 21.044 13.57 8.967 27.16 17.908 40.98 26.629h2.02c-15.04-9.452-29.78-19.21-44.53-28.938-19.57-12.91-37.08-26.766-55.06-41.036-18.73-14.872-35.65-30.338-51.47-47.289-14.62-15.655-28.6-31.666-43.86-46.938-13.3-13.319-28.2-23.823-47.51-31.221-17.89-6.856-37.62-10.249-57.15-12.42-42.39-4.69-85.78-3.009-128.46-3.858-90.098-1.783-187.934-13.232-250.548-70.921-7.67-7.073-13.933-15.03-17.886-23.873-4.529-10.141-3.397-20.819-.953-31.197 4.689-19.931 17.278-38.193 29.854-55.53 12.852-17.719 28.384-34.551 43.34-51.16 14.912-16.565 31.915-31.838 44.338-49.687 6.116-8.781 14.873-16.409 22.172-24.591 8.54-9.579 17.579-18.056 27.846-26.482 18.501-15.185 37.41-30.097 58.949-42.539 21.161-12.231 43.088-22.415 66.558-31.546 24.1-9.379 49.5-16.434 74.93-23.138 48.82-12.872 98.82-22.694 149.19-30.733 54.18-8.652 110.48-19.042 165.46-8.526 46.11 8.825 91.53 16.764 135.93 30.422 47.08 14.494 92.64 31.957 138.91 48.029 40.74 14.157 82.3 30.753 126.43 36.596 3.99.524 7.99.874 12 1.198 3.39.268 8.31-.062 11.29 1.34.84.393 2.13 1.292 3.1 1.516 10.21 2.419 21.42 3.075 31.98 4.066 12.21 1.154 24.38 2.314 36.42 4.304.86.144 1.72.274 2.58.405v-.98c-4.95-.742-9.89-1.614-14.78-2.25-12.96-1.703-26.08-2.54-39.09-4.01-5.59-.637-13.12-.806-18.05-3.125-3.09-1.447-3.82-1.797-7.47-1.927-13.77-.511-27.39-2.683-40.7-5.513-24.58-5.239-47.94-13.677-71.26-21.666-24.52-8.407-49.01-16.809-73.36-25.528-47.68-17.069-95.58-34.9-145.74-46.825-24.81-5.892-50.18-10.096-75.39-14.706-25.72-4.695-50.59-7.49-77.06-6.592-25.96.886-51.41 5.302-76.88 9.032-25.54 3.735-50.97 7.95-76.24 12.69-49.89 9.355-99.06 21.156-146.91 35.861-46.21 14.196-89.148 35.761-125.483 62.641-18.034 13.342-36.463 27.373-50.671 43.433-7.254 8.201-16.421 15.847-22.761 24.441-7.331 9.948-14.502 19.234-23.413 28.358-30.424 31.159-61.066 64.107-82.835 99.731-9.576 15.654-16.959 33.054-16.639 50.679.269 15.13 11.144 28.639 23.1 39.653 58.641 54.044 151.801 66.796 236.389 69.34z" fill="#F4F4F4"/><path d="M1812.09 766.896c17.27-16.165 33.58-32.994 51.07-49.006 11.14-10.203 22.91-19.936 35.5-28.989 6.14-4.414 13.01-8.006 20.13-11.311v-1.038c-5.61 2.606-11.1 5.35-16.3 8.492-13.31 8.047-24.88 18.464-36.02 28.33-19.49 17.289-37.15 35.835-56.06 53.522h1.68zM807.283 489.776c29.439 22.128 67.955 34.487 106.945 41.026 19.569 3.265 39.534 4.951 59.467 5.809 25.063 1.088 50.265 2.059 75.385 1.983 24.82-.072 49.52-2.202 74.38-2.294 26.73-.087 53.55 1.41 79.83 5.476 22.63 3.495 39.48 16.002 51.93 30.875 6.62 7.919 14.04 15.455 19.65 23.869 5.7 8.558 11.45 17.105 17.3 25.586 11.34 16.416 23.01 32.469 37.44 47.285 13.93 14.31 29.24 27.63 45.54 40.203 17.18 13.258 35.44 25.658 53.3 38.293 9.75 6.897 20.32 12.696 30.99 18.397h1.04c-2.01-1.098-4-2.217-5.96-3.356-11.2-6.448-22-13.406-32.23-20.82-18.15-13.145-36.9-25.693-54.28-39.513-17.5-13.943-33.53-29.04-47.88-45.139-14.7-16.502-26.38-34.925-38.36-52.751-10.72-15.94-22.86-32.591-38.39-45.89-13.99-12.001-31.53-16.987-51.24-19.608-25.91-3.454-52.27-4.139-78.48-3.842-26.88.301-53.54 2.508-80.45 2.135-86.14-1.226-190.725-5.175-245.937-67.22-6.685-7.522-11.368-15.991-13.421-25.084-2.508-11.088 1.682-22.227 5.699-32.742 6.928-18.199 17.701-35.293 29.676-51.659 11.566-15.823 24.533-30.964 37.02-46.325 13.792-16.976 26.727-34.19 42.271-50.212 30.687-31.638 66.92-60.302 108.34-82.804 9.732-5.283 19.782-10.159 30.002-14.793 5.12-2.32 10.32-4.515 15.54-6.679 6.35-2.626 15.26-7.509 22.47-7.822 3.81-.168 6.97-1.608 10.45-2.819 6.82-2.363 13.78-4.54 20.72-6.655 12.94-3.929 26.08-7.39 39.28-10.689 51.54-12.885 103.99-24.815 157.62-30.403 53.71-5.6 106.87-3.43 159.67 6.056 42.7 7.671 84.15 19.245 125.6 30.335 10 2.676 19.21 6.829 28.46 10.802 8.47 3.636 16.67 5.986 25.75 8.407 22.49 6.011 43.62 15.366 64.82 23.823 17.45 6.973 35.48 12.119 53.81 17.588 20.88 6.231 42.5 10.839 64.29 14.531 33.99 5.762 68.64 8.788 103.29 10.859v-1.036c-43.63-2.657-87.13-6.917-129.55-15.828-11.77-2.477-23.38-5.408-34.83-8.67-5.76-1.634-11.44-3.43-17.1-5.282-4.54-1.491-11.37-5.326-16.47-5.544-7.06-.306-13.76-3.867-19.96-6.356-5.7-2.276-11.39-4.539-17.09-6.791-12.61-5.002-25.3-9.917-38.04-14.725-9.72-3.661-20.68-4.858-30.41-8.601-10.46-4.034-20.37-8.905-31.11-12.517-23.82-8.001-49.63-13.552-74.3-19.639-48.91-12.081-99.08-21.23-150.44-21.69-51.72-.462-104.31 6.123-153.99 17.481-25.51 5.831-51.12 11.35-76.43 17.749a800.243 800.243 0 00-36.19 10.072 482.873 482.873 0 00-15.07 4.847c-5.61 1.901-11.93 2.431-17.31 4.426-43.86 16.254-84.88 37.546-119.571 64.619-17.521 13.671-34.128 28.078-49.487 43.332-14.86 14.769-27.437 30.61-40.09 46.6-24.015 30.342-50.786 59.455-67.342 93.114-7.766 15.779-14.95 33.029-10.171 50.031 4.484 15.966 19.134 29.325 33.604 40.189zm980.587 276.085c21.87-17.56 39.33-38.302 58.41-57.886 20.4-20.947 43.89-38.123 72.69-49.731v-1.15c-26.58 10.576-48.92 25.847-68.21 44.766-21.72 21.305-40.41 44.628-64.72 64.001h1.83z" fill="#F5F5F5"/><path d="M884.204 503.42c83.148 32.034 177.906 22.275 265.946 12.41 20.68-2.32 41.98-6.223 62.92-4.915 22.1 1.384 40.11 10.105 53.95 23.639 15.71 15.368 22.11 33.628 31.17 51.75 7.9 15.792 16.9 31.211 26.91 46.201a365.216 365.216 0 0078.04 84.408c16.26 12.798 35.07 22.863 53.01 34 8.48 5.268 17.01 10.479 25.91 15.195h2.28c-12.89-6.683-24.93-14.479-37.1-21.979-10.12-6.233-20.7-11.9-30.43-18.536-9.61-6.55-18.48-13.805-27.1-21.177-33.76-28.867-59.72-63.481-80.15-99.351-17.79-31.247-26.55-72.432-68.67-89.22-17.1-6.813-36.33-6.974-54.84-5.017-23.17 2.468-46.32 5.237-69.51 7.648-45.93 4.762-92.39 7.996-138.62 4.276-47.862-3.842-99.416-16.514-136.8-41.648-17.675-11.899-29.977-28.663-31.966-47.223-2.265-21.105 8.175-42.428 18.724-61.282 10.683-19.083 23.714-36.721 36.834-54.751 3.115-4.286 5.489-9.231 10.478-12.324 3.423-2.127 5.137-4.553 7.466-7.491 6.761-8.518 14.003-16.781 21.551-24.859 14.886-15.922 31.525-30.74 49.245-44.648 9.083-7.135 18.359-13.515 28.933-19.19 10.837-5.806 19.365-13.515 30.265-19.303 10.5-5.569 21.12-10.988 32.04-16.021 12.77-5.888 27.4-9.998 40.99-14.513 24.97-8.301 50.3-15.898 75.82-23.038 50.12-14.026 105.27-21.137 158.09-23.949 50.6-2.688 101.4 2.176 150.61 11.607 79.42 15.21 154.28 42.758 227.15 71.683 37.33 14.819 78.94 22.783 119.77 28.739 33.48 4.883 67.37 7.702 101.33 9.43v-1.036c-45.39-2.345-90.57-6.735-134.92-14.98-25.93-4.815-53.65-10.278-77.55-19.838-22.28-8.913-44.68-17.638-67.29-25.989-88.26-32.599-181.87-59.099-279.92-61.226-104.5-2.263-205.76 23.501-300.33 56.823-11.63 4.098-22.33 9.037-33.09 14.482-10.59 5.37-21.32 10.465-30.19 17.58-8.214 6.581-18.443 11.027-27.571 16.715-9.851 6.137-18.628 14.014-27.271 21.192-15.954 13.24-30.577 27.479-44.011 42.403-3.403 3.779-6.685 7.628-9.915 11.501-3.289 3.947-6.097 8.924-10.44 12.186-3.327 2.494-5.291 3.53-7.549 6.817-3.563 5.195-7.356 10.291-11.15 15.38-12.768 17.144-24.494 34.457-34.179 52.892-9.161 17.426-16.421 35.874-15.187 55.008 2.239 34.676 41.05 55.955 76.317 69.539zm881.246 262.678c26.17-19.245 46.64-42.972 68.92-65.145 14.26-14.199 29.66-27.743 47.75-38.86 11.7-7.168 24.51-11.945 37.88-15.889v-1.083c-11.79 3.428-23.16 7.52-33.85 13.396-17.88 9.83-32.87 22.75-46.77 35.962-25.19 23.957-46.89 50.55-75.83 71.619h1.9zM139.191 332.554c4.06 2.713 7.457 5.956 11.385 8.781 2.977 2.133 7.053 2.358 10.815 2.994 11.651 1.977 23.732 2.189 35.594 2.04 21.217-.262 42.723-1.005 63.088-6.057 31.852-7.914 59.058-24.616 79.314-45.614 20.576-21.33 33.446-47.074 39.958-73.388 3.327-13.42 4.701-27.129 4.507-40.8-.095-6.766-.742-13.521-1.742-20.243-.899-6.106-1.311-13.478-5.068-18.897-4.686-6.773-7.34-14.557-14.814-19.721-6.208-4.284-13.728-7.185-21.77-7.571-9.91-.481-20.17-.81-29.487 1.996-7.903 2.375-15.531 5.289-22.958 8.5-29.307 12.692-53.163 32.02-72.381 53.604-19.638 22.059-34.288 46.781-47.032 71.797-6.466 12.686-12.347 25.564-18.062 38.48-2.89 6.516-5.716 13.047-8.544 19.583-3.529 8.133-3.662 15.536-2.99 24.161.054.649 1.311.655 1.265 0-.764-9.804.328-17.874 4.334-27.118 3.093-7.122 6.192-14.238 9.363-21.335 6.521-14.619 13.401-29.137 21.013-43.413 14.9-27.953 33.109-55.101 57.935-78.233 12.376-11.538 26.628-21.722 42.387-30.192 7.457-4.003 15.343-7.471 23.433-10.571 4.811-1.845 9.769-3.449 14.759-4.952 7.201-2.163 16.132-1.422 23.731-1.378 27.464.162 39.677 23.343 43.098 42.061 2.646 14.499 2.874 29.268 1.343 43.856-4.334 41.342-25.535 82.666-63.761 111.199-19.302 14.406-43.041 24.423-68.569 29.543-16.727 3.355-35.163 3.337-52.35 3.693-9.863.205-19.717-.151-29.493-1.211-6.225-.673-13.065-1.409-17.954-4.92-3.294-2.358-6.044-5.108-9.456-7.384-.618-.419-1.515.292-.891.71z" fill="#F5F5F5"/><path d="M896.943 481.488c7.983 4.241 15.398 5.95 23.886 9.217 10.613 4.067 21.827 7.061 33.195 9.417 45.986 9.53 95.196 4.965 141.336-1.484 25.49-3.567 50.5-9.056 75.37-14.768 12.06-2.781 24.08-5.626 36.16-8.395 13.83-3.167 26.7-7.496 41.33-5.063 21.8 3.629 39.03 16.003 50.76 30.647 12.45 15.517 17.03 33.465 21.38 51.276 8.65 35.487 21.38 68.829 44.22 100.148 35.46 48.659 88.5 89.097 151.4 114.182h2.82c-67.56-26.454-123.14-70.571-159.38-123.537-4.87-7.122-9.29-14.428-13.43-21.852-1.86-3.366-1.73-7.234-3.69-10.463-3.42-5.64-6.29-11.429-8.76-17.376-7.74-18.648-10.77-38.354-16.15-57.477-8.15-28.965-28.61-57.615-66.43-66.06-9.03-2.008-18.07-1.646-27.02.386-12.87 2.932-25.72 6.125-38.59 9.131-24.8 5.789-49.62 11.5-74.89 15.829-49.62 8.506-103.28 13.558-153.289 4.441-12.308-2.233-24.238-5.65-35.702-9.854-2.712-.999-6.896-3.743-9.858-3.879-6.166-.288-11.239-3.855-16.248-6.512-20.221-10.715-39.137-24.548-44.856-44.131-5.988-20.518 1.337-42.44 10.395-61.624 9.385-19.882 22.3-38.58 35.977-56.748 12.238-16.258 27.846-31.687 42.668-46.475 13.978-13.939 29.235-27.005 46.065-38.754 8.495-5.938 18.178-10.789 26.128-17.171 9.55-7.658 21.22-13.357 32.55-19.202 19.6-10.11 40.01-19.196 61.08-27.192 43.78-16.608 90.55-26.805 138.04-33.859 26.82-3.979 52.79-8.613 80.2-9.018 27.35-.404 55.14 1.541 82.12 5.039 45.73 5.932 91.08 17.182 134.64 29.63 46.59 13.31 90.57 31.44 135.4 48.073 19.95 7.397 40.02 14.25 60.85 19.894 10.45 2.832 21.43 4.872 32.22 6.605 4.64.742 9.45.837 14.15.917 6.15.113 10.95 1.186 16.76 2.501 3.79.855 8.51.567 12.42.799 6.57.399 13.13.829 19.7 1.259 12.03.792 24.06 1.635 36.1 2.458 17.01 1.16 34.01 2.27 51.05 3.212v-1.01c-19.22-1.067-38.42-2.345-57.61-3.667-13.14-.898-26.25-1.797-39.39-2.645-6.56-.425-13.14-.817-19.69-1.198-5.86-.337-10.44-2.694-16.44-2.7-25.7-.019-50.55-7.721-74.26-15.005-26.22-8.058-51.49-18.343-76.89-27.947-23.5-8.893-46.96-18.873-71.35-26.051-24.33-7.159-48.84-13.677-73.65-19.676-50.35-12.162-100.9-20.407-153.59-21.461-25.86-.517-50.24 2.308-75.46 6.393-24.29 3.935-48.64 7.41-72.66 12.405-43.94 9.142-85.82 23.518-125 41.842-9.87 4.615-19.52 9.536-29.05 14.599-4.89 2.602-9.72 5.283-14.52 7.983-5.52 3.1-9.37 7.654-14.86 10.815-17.772 10.291-33.88 22.302-48.689 35.243-31.16 27.235-58.795 58.356-80.04 91.118-10.977 16.939-20.605 34.887-25.613 53.611-4.287 16.016-5.489 35.599 4.791 50.403 9.691 13.958 25.556 24.124 41.894 32.781zm836.897 285.296c34.62-20.329 58-50.564 85.21-77.295 27.19-26.71 59.26-50.519 100.26-59.812v-1.022c-38.34 8.609-68.98 29.75-95.22 54.407-30.22 28.401-54.52 61.993-92.4 83.722h2.15z" fill="#F5F5F5"/><path d="M1769.35 720.048c22.51-22.863 40.3-48.745 66.3-69.325 22.52-17.815 52.21-27.941 82.94-33.081v-.96c-14.74 2.493-29.17 6.11-42.98 10.974-19.57 6.897-35.81 17.478-50.1 30.098-31.56 27.88-52.04 62.555-87.43 87.865-12.04 8.609-24.88 15.292-38.25 20.294h2.63c26.77-10.326 48.49-27.165 66.89-45.865zm-754.99-231.044c49.88 2.468 98.52-8.619 142.79-26.432 9.29-3.73 18.85-5.924 28.25-9.53 10.75-4.103 21.96-7.384 33.46-9.841 22.76-4.877 47.09-4.964 68.82 2.857 21.68 7.808 37.2 25.433 46.18 42.559 8.64 16.465 11.63 34.564 13.97 52.19 1.12 8.415 2.02 16.86 3.15 25.28.47 3.556.99 7.112 1.59 10.652 1.07 6.203 3.99 12.037 4.47 18.286.64 8.22 3.49 15.582 7.69 23.062 2.63 4.721 6.06 9.007 8.52 13.81 2.08 4.082 3.91 8.185 6.31 12.139 2.58 4.24 6.56 7.858 9.56 11.909 2.94 3.965 5.45 8.144 8.35 12.139.43.573 2.85 2.305 3.46 2.79 6.73 5.405 1.23 2.1 3.95 5.431 3 3.653 6.78 6.744 9.4 10.647 2.23 3.321 6.9 6.427 10.03 9.248 3.91 3.515 7.96 6.958 12.07 10.335 8.75 7.25 18.02 14.045 27.66 20.498 24.74 16.538 53.08 30.322 83.34 39.764h5.41c-33.01-9.718-64.15-24.621-90.1-41.971-18.66-12.487-37.37-26.859-50.89-43.095-2.44-2.943-4.83-6.003-7.21-8.895-2.7-3.306-6.43-5.753-8.89-9.304-6.44-9.329-14.44-17.912-19.28-27.854-4.12-8.43-9.9-16.115-13.99-24.534-2.52-5.176-3.89-10.581-4.12-16.119-.22-5.012-2.86-9.468-3.79-14.357-3.3-17.422-4.29-35.058-7.29-52.511-5.4-31.421-19.25-66.246-56.57-82.062-35.67-15.105-78.99-4.84-112.63 8.732-4.48 1.808-8.94 1.521-13.34 3.442-5.37 2.345-10.85 4.541-16.38 6.661-12.51 4.815-25.44 8.868-38.59 12.385-25.88 6.923-51.73 10.328-78.98 10.878-48.541.96-106.914-9.593-136.219-43.407-29.145-33.628-2.194-78.133 18.475-109.859 19.914-30.573 46.41-58.182 76.905-82.43 15.789-12.561 32.829-24.08 50.649-34.751 8.36-5.001 16.94-9.747 25.66-14.338 10.18-5.351 19.44-10.988 30.28-15.467 11.12-4.583 22.18-9.274 33.29-13.864 11.3-4.659 24.17-7.683 36.16-11.307 23.21-7.022 47.5-11.55 71.53-16.322 103.52-20.543 214.67.562 310.72 33.098 31.18 10.559 61.66 22.421 92.29 33.947 15.24 5.725 30.54 11.35 45.97 16.733 15.06 5.251 30.34 11.019 46.18 14.544 14.6 3.243 30.17 3.929 45.17 5.144 18.82 1.529 37.7 2.358 56.58 3.02 28.47.991 56.98 1.484 85.43 2.769v-1.023c-47.32-2.152-94.8-2.121-142.01-5.776-13.07-1.01-26.26-1.971-39.14-4.035-12.88-2.07-25.06-6.605-37.14-10.602-25.25-8.364-49.97-17.693-74.67-27.03-46.38-17.537-92.77-35.069-141.7-47.597-24.47-6.262-49.42-11.245-74.6-15.213-24.55-3.859-48.95-5.525-73.92-6.453-50.79-1.885-100.32 6.354-148.79 17.88a402.246 402.246 0 00-33.25 9.424c-4.59 1.514-9.31 2.051-13.92 3.254-5.84 1.523-11.63 4.722-17.1 6.979-11.12 4.609-22.19 9.3-33.33 13.871-10.38 4.26-19.26 10.259-29.03 15.467-69.595 37.026-127.488 88.199-161.405 149.704-16.281 29.518-31.339 65.623-3.41 94.037 28.019 28.502 74.583 38.268 117.965 40.414z" fill="#F5F5F5"/><path d="M1918.59 604.2c-37.51 4.425-73.7 10.913-103.09 32.315-15.75 11.48-26.9 26.573-38 40.975-11.09 14.397-21.85 28.969-35.14 42.165-31.06 30.885-78.57 45.262-127.42 43.203-50.37-2.131-99.35-20.667-137.38-46.748-36.26-24.871-66.53-56.481-83.85-92.429-18.6-38.629-11.6-81.249-18.76-121.562-1.63-9.268-3.93-18.424-7.32-27.393-1.45-3.842-3.31-7.583-5.27-11.288-2.55-4.84-7.53-9.541-7.9-14.868-.31-4.266-9.98-11.314-13.46-14.319-6.59-5.688-14.34-10.44-22.56-14.494-34.19-16.839-76.21-15.567-113.25-6.387-45.54 11.289-84.52 34.963-130.35 45.516-46.82 10.801-105.183 8.045-138.37-24.025-7.363-7.121-12.161-15.691-14.368-24.734-2.591-10.603 1.548-21.573 2.757-32.137 1.113-9.729 7.114-18.854 12.167-27.665 4.676-8.171 9.884-16.135 15.411-23.956 21.666-30.684 49.923-58.169 82.133-82.087 71.62-53.161 165.23-87.151 263.03-91.536 26.22-1.173 52.57.212 78.48 3.412 26.02 3.206 50.82 10.085 75.54 17.075a1212.508 1212.508 0 0177.2 24.635c10.52 3.749 21.14 6.101 31.46 10.31 12.14 4.977 24.23 10.047 36.34 15.105 25.97 10.852 52 21.585 78.65 31.321a792.075 792.075 0 0017.62 6.193c6.82 2.314 14.79 2.838 22.08 3.755 13.85 1.746 27.84 2.743 41.83 3.416 53.91 2.601 107.86-1.252 161.79-.804v-1.016c-46.41-.436-92.81 2.184-139.23 1.503-27.92-.418-55.8-2.363-83.2-6.829-6.6-1.079-14.05-4.852-20.25-7.091-5.75-2.084-11.47-4.236-17.15-6.406-12.26-4.677-24.39-9.573-36.48-14.531-23.35-9.567-46.49-19.458-69.88-28.945-3.43-1.397-6.34-2.868-10.21-3.037-6.86-.299-15.31-4.746-21.6-6.947-11.79-4.129-23.72-8.032-35.7-11.8-24.74-7.771-49.9-15.117-75.41-21.092-23.84-5.582-48.68-7.902-73.38-9.212-94.3-5.008-191.06 22.584-266 67.518-33.47 20.07-63.47 43.776-88.883 70.393-13.056 13.69-24.648 28.271-34.87 43.432-4.932 7.31-9.417 14.806-13.613 22.402-4.05 7.304-8.54 14.488-9.135 22.484-.704 9.387-3.736 18.391-3.371 27.859.287 7.521 3.883 14.894 8.309 21.429 9.423 13.933 26.356 24.136 44.204 30.273 40.739 13.982 89.899 8.807 129.479-5.3 44.46-15.854 86.12-38.507 135.34-43.77 43.75-4.678 87.79 8.008 113.55 37.394 2.02 2.309 1.68 4.729 3.12 7.123 3.11 5.152 6.61 9.929 9.26 15.28 4.69 9.442 7.29 19.508 9.37 29.499 4.43 21.368 5.03 42.872 6.2 64.463 1.06 19.695 3.58 38.793 11.54 57.528 7.18 16.89 18.17 32.591 30.53 47.346 5.8 6.922 12.07 13.585 18.5 20.16 7.43 7.607 16.51 13.544 24.91 20.441 15.4 12.661 33.51 23.027 52.61 31.743 40.84 18.648 87.59 28.468 134.63 23.251 28.06-3.116 56.27-14.279 76.9-29.673 20.19-15.082 34.3-34.675 48.6-53.334 17.62-22.991 36.03-45.455 66.61-58.412 22.99-9.743 48.95-13.411 74.7-16.206v-.884zM201.068 292.432c3.936 5.25 7.505 13.289 14.587 16.482 9.207 4.147 18.866 6.612 29.393 7.421 18.031 1.391 35.646-4.383 50.374-12.254 28.8-15.386 47.018-41.667 55.24-68.08 4.272-13.707 5.45-28.039 3.468-42.066-1.586-11.294-5.38-23.413-17.164-30.697-11.198-6.929-25.066-8.762-38.819-6.873-17.561 2.414-30.002 12.324-41.869 22.209-36.593 30.461-59.271 70.867-55.296 113.601.062.648 1.321.655 1.258 0-3.429-36.889 12.97-71.635 41.269-100.36 12.557-12.748 27.979-27.361 47.557-32.923 16.843-4.784 36.529-2.233 49.173 8.157 13.273 10.908 14.031 29.923 13.492 44.218-.601 15.972-5.637 31.794-13.563 46.408-15.212 28.063-46.894 55.711-87.162 57.756-10.911.549-21.709-1.59-31.572-5.188-10.143-3.699-13.9-11.146-19.28-18.324-.414-.554-1.508-.05-1.086.513z" fill="#F5F5F5"/><path d="M1919.99 592.224c-3.71.209-7.42.439-11.14.71-5.02.373-10.04.899-15.05 1.522-2.93.363-5.87.864-8.77 1.359-4.09.7-9.06-.286-12.98.552-21.09 4.476-42.7 8.282-60.76 18.582-8.63 4.925-15.13 11.991-22.02 18.336-8.34 7.684-15.26 15.941-21.76 24.687-13.11 17.688-23.78 36.832-39.84 53.012-30.9 31.104-77.91 41.496-125.96 37.792-46.58-3.592-89.84-23.298-123.07-49.006-33.01-25.536-57.17-58.004-68.24-93.675-3.22-10.356-4.25-20.968-6-31.533-1.73-10.53-3.04-21.004-2.22-31.631.8-10.141 3.09-20.17 3.72-30.337.58-9.554-1.01-19.122-2.65-28.564-6.05-34.713-23.47-69.19-64.05-86.066-38.5-16.015-86.55-15.985-127.99-9.236-44.28 7.215-80.85 27.472-122.04 41.168-19.78 6.585-40.87 10.976-62.42 9.605-22.9-1.46-47.709-10.89-59.16-27.38-9.819-14.157-7.772-31.906-1.369-46.638 1.651-3.779 3.832-7.397 6.205-10.908 2.246-3.33 1.843-6.642 3.839-10.166 4.772-8.375 10.081-16.545 15.749-24.546 22.026-31.184 51.186-58.812 84.886-82.257 36.64-25.475 78.9-45.777 124.77-58.543 24.69-6.873 50.32-10.908 76.23-13.421 28.51-2.769 55.49-1.303 83.54 3.374 26.1 4.346 51.11 10.166 75.76 18.305 25.23 8.326 49.76 17.949 74.04 27.865 23.63 9.642 47.29 19.316 70.52 29.575 10.32 4.558 20.54 9.268 30.61 14.17 5.81 2.83 11.07 5.943 16.38 9.342 4.64 2.968 10.18 4.69 14.4 8.082 6.4 5.134 19.34 6.049 27.74 8.301 10.07 2.707 19.02 6.012 29.86 6.681 26.49 1.62 53.87-2.296 80.1-4.866 27.93-2.732 55.79-5.769 83.79-7.833a883.053 883.053 0 0141.97-2.09c4.46-.117 8.92-.155 13.38-.174v-1.023c-3.37.02-6.75.057-10.12.113-14.03.236-28.03.984-42.01 1.933-26.91 1.827-53.69 4.734-80.5 7.415-25.64 2.57-51.85 5.925-77.74 5.869-11.29-.025-22.72-1.914-33.11-5.346-12.01-3.959-26.36-4.807-35.83-12.391-3.19-2.576-9.32-4.285-12.99-6.636-3.98-2.55-7.65-4.771-12.06-6.959-10.88-5.415-22.03-10.484-33.25-15.462-23.17-10.296-46.9-19.907-70.5-29.574-46.24-18.941-92.89-36.273-143.84-45.203-25.9-4.54-50.61-7.047-77.18-5.5-24.71 1.44-49.38 4.995-73.21 10.371-44.64 10.059-86.01 28.133-122.76 50.61-33.7 20.612-63.22 45.41-87.27 73.381-12.478 14.505-23.193 29.954-32.437 45.926-1.842 3.187-1.74 7.209-3.844 10.166a59.442 59.442 0 00-4.747 7.89c-3.313 6.61-5.514 13.377-6.55 20.449-1.817 12.374 1.33 26.201 11.188 36.13 12.148 12.224 31.63 19.034 50.51 21.491 39.75 5.189 78.79-12.461 112.79-26.481 20.13-8.307 40.2-16.402 62.19-21.048 25.11-5.314 52.01-8.563 77.99-6.599 22.82 1.721 45.61 5.344 66.1 13.877 23.27 9.679 38.67 26.38 48.68 45.427 9.43 17.937 13.23 37.894 15.06 57.191.93 10.08-.77 20.257-2.24 30.261-1.59 10.887-2 21.356-.62 32.279 2.43 19.609 5.68 38.819 13.27 57.615 6.58 16.313 16.9 31.232 28.84 45.389 47.06 55.842 134.23 97.083 219.94 78.496a134.049 134.049 0 0061.55-31.61c20.25-18.357 32.2-42.022 48.15-62.724 8.79-11.429 20.2-22.827 32.31-32.172 11.65-8.992 27.31-13.743 42.54-17.401 7.06-1.692 14.24-3.117 21.38-4.614 4.3-.899 8.65.215 12.79-.572 3.88-.736 7.77-1.359 11.68-1.906 8.55-1.19 17.18-1.788 25.85-2.273v-.935z" fill="#F5F5F5"/><path d="M1919.8 580.699c-40.95.623-82.15 1.201-120.75 13.483-16.29 5.175-29.04 20.196-37.89 31.697-10.95 14.193-18.72 29.837-27.56 44.903-9.52 16.262-20.75 30.66-38.35 42.099-20.03 13.008-45.31 20.891-70.92 22.316-47.43 2.606-95.52-16.18-129.57-41.536-35.35-26.348-59.03-62.408-64.89-100.848-3.21-21.244-2.56-42.523-.67-63.828 1.88-21.08 4.61-42.21 2.28-63.327-2.06-18.547-6.39-36.709-18.3-52.923-10.24-13.959-26.32-26.221-43.62-34.452-18.85-8.963-41.69-11.651-63.1-13.677-26.08-2.476-52.4-2.084-78.46.293-48.88 4.459-94.19 19.29-140.3 31.881-20.13 5.488-44.24 9.044-62.28-2.313-23.24-14.625-8.71-46.126.81-63.839 18.17-33.728 47.06-64.849 80.42-89.833 16.96-12.697 35.78-23.711 55.67-33.241 23.04-11.033 51.14-17.805 77.05-23.019 100.87-20.288 193.58 19.845 271.91 66.912 38.32 23.038 74.73 49.152 116.56 68.117 18.93 8.582 39.36 12.405 61.07 10.06 12.36-1.335 23.03-5.463 34.5-9.024 12.75-3.961 25.64-7.552 38.65-10.884 50.98-13.058 104.22-20.805 157.74-21.379v-.997c-43.16.487-85.99 5.662-127.83 14.376-25.41 5.294-50.34 12.048-74.76 19.745-12.62 3.972-23.8 7.109-37.48 7.926-13.36.799-28.43-1.721-40.44-6.212-22.64-8.457-43.24-20.78-63.03-32.86-18.62-11.358-36.95-23.014-55.56-34.396-36-22.052-73.38-42.952-114.92-57.788-43.78-15.636-91.23-23.287-139.05-18.686-24.97 2.402-49.4 8.495-72.87 15.579-22.27 6.73-42.3 15.929-61.4 27.254-34.5 20.445-63.09 46.613-85.72 75.726-12.14 15.598-22.96 32.001-29.66 49.638-5.73 15.105-9.59 34.109 5.67 46.276 11.87 9.473 29.66 10.059 45.18 8.051 22.01-2.844 42.75-11.363 63.74-17.069 49.41-13.44 100.66-22.496 153.05-20.693 25.7.879 52.96 3.449 76.67 11.856 21.46 7.602 40.25 22.95 52.04 38.991 13.6 18.536 17.21 41.81 17.72 62.965.53 21.305-2.75 42.572-4.24 63.826-2.76 38.956 2.42 78.235 27.34 112.46 20.57 28.264 50.51 51.827 87 66.633 40.35 16.39 87.31 21.157 129.03 5.513 17.41-6.525 33.62-16.278 45.35-28.565 12.87-13.498 20.8-29.597 29.58-44.955 6.89-12.022 14.23-23.885 23.76-34.726 5.17-5.886 11.21-11.199 17.84-16.002 9.45-6.821 20.69-9.779 32.68-12.512 32.52-7.408 66.59-7.633 100.31-8.031v-.961z" fill="#F5F5F5"/><path d="M1100.9 319.67c3.37 3.437 4.49 6.63 8.41 9.774 4.13 3.31 6.51 5.151 11.87 7.022 4.14 1.448 7.69 2.943 12.2 3.155 7.63.363 15.29.581 22.94.761 27.36.636 54.76.113 82.12-.729 27.47-.848 54.92-2.114 82.39-3.137 13.19-.493 26.4-.905 39.6-1.216 6.61-.156 13.21-.262 19.82-.344 5.78-.069 14.52 1.26 19.99-.112 9.05-2.276 19.84-2.988 27.21-8.158 6.5-4.552 14.57-10.707 15.69-17.898 2.64-17.014-7.54-33.217-16.68-47.954-4.11-6.624-8.1-12.504-13.93-18.242-5.77-5.657-12.26-10.796-19.19-15.53-11.84-8.094-25.41-14.437-39.73-19.27-48.42-16.329-104.88-11.881-152.09 4.857-24.52 8.694-46.84 21.299-65.34 36.828-21.32 17.893-39.63 44.411-35.47 69.832.1.635 1.37.649 1.26 0-3.36-20.538 8.59-38.069 20.76-55.364 4.14-5.887 11.32-11.299 17.18-16.115 6.65-5.463 13.91-10.44 21.49-15.068 27.8-16.97 61.18-27.858 95.59-32.243 34.85-4.44 71.33-1.216 103.41 10.784a153.693 153.693 0 0142.71 24.403c15.7 12.686 25.52 28.782 33.47 45.347 5.16 10.752 9.48 25.14 1.05 35.368-10.53 12.772-29.19 17.376-47.47 17.445-33.02.124-66.04 1.471-99.02 2.799-32.9 1.329-65.79 2.644-98.73 2.932a1188.3 1188.3 0 01-49.2-.593c-9.55-.311-21.91-.997-29.01-7.059-2.97-2.533-6.98-4.84-8.86-8.072-1.07-1.852-1.99-3.323-3.55-4.92-.5-.512-1.4.206-.89.717z" fill="#F5F5F5"/><path d="M1164.57 293.428c14.17 18.703 44.22 19.745 68.79 20.369 29.92.761 61.69-1.279 90.3-8.757 11.16-2.919 19.82-7.328 27.76-14.313 4.75-4.172 10.75-10.378 11.47-16.14.95-7.641-.61-14.637-4.47-21.655-15.45-28.083-59.35-36.302-94.03-34.046-24.91 1.622-48.95 9.4-69.02 21.206-9.59 5.644-19.69 12.498-24.67 21.247-2.7 4.74-7.69 9.512-8.33 14.713-.73 5.982-.74 11.644 2.14 17.251.31.599 1.54.337 1.22-.269-9.75-18.916 9.39-38.46 26.71-49.848 16.18-10.629 35.78-17.695 56.11-21.349 40.63-7.31 96.57 1.415 111.37 36.983 6.9 16.602-6.28 33.261-24.42 41.2-11.6 5.064-25.37 7.265-38.22 9.111-31.42 4.523-65.59 5.825-97.08.961-14.57-2.252-26.49-6.554-34.53-17.176-.42-.554-1.52-.05-1.1.512zM264.568 248.26c3.069 3.886 6.123 8.077 12.05 8.907 4.028.561 7.997-.457 11.494-1.959 8.707-3.755 12.908-12.661 12.572-20.188-.382-8.383-8.886-13.796-19.138-11.444-3.624.835-9.269 6.947-11.488 9.337-4.342 4.682-6.558 9.223-5.575 15.092.101.636 1.366.642 1.257 0-1.398-8.383 4.483-14.289 11.494-19.852 10.699-8.476 21.795-1.728 22.249 8.22.266 5.826-3.28 11.569-8.24 15.648-2.958 2.439-6.926 3.798-11.087 4.216-7.169.724-11.136-4.228-14.502-8.488-.437-.549-1.523-.043-1.086.511zM1919.31 566.758c-18.11-.49-36.22-.526-54.29-1.262-24.77-1.011-49.27-4.991-74.11-5.052-10.54-.026-20.97 1.164-31.07 3.571-10.56 2.503-17.29 6.483-24.91 12.599-5.91 4.736-7.92 12.246-10.03 18.444-3.2 9.456-5.74 19.062-8.44 28.605-5.32 18.797-11.64 37.404-23.97 54.121-13.11 17.81-32.37 29.484-57.38 34.399-47.3 9.319-95.06-8.317-127.91-34.977-17.27-14.019-31.14-30.486-39.64-49.006-8.13-17.739-10.51-36.847-10.32-55.617.22-20.968 4.82-41.45 9.09-62.068 4.45-21.454 8.73-42.946 12.37-64.499a875.635 875.635 0 004.34-28.665c1.56-11.475 1.08-23.699 7.53-34.251 11.45-18.728 45.88-13.715 65.34-7.764 35.99 11.019 67.52 37.163 108.64 26.599 19.96-5.127 36.67-16.946 51.91-28.023 8.15-5.924 16.09-12.024 24.36-17.842 4.9-3.436 10.53-6.106 15.39-9.629 2.83-2.04 5.5-4.229 8.19-6.381 2.32-1.876 6.76-2.862 9.82-4.165 1.25-.531 2.64-1.796 3.62-2.577 3.28-2.63 7.22-4.277 11.22-6.086 7.02-3.175 14.03-5.925 21.56-8.295 14.06-4.422 28.69-7.615 43.44-10.19 21.45-3.743 43.34-5.701 65.25-6.893v-.997c-40.16 2.202-80.6 6.948-117.6 19.907-9.49 3.325-19.14 7.322-26.44 13.184-3 2.408-8.33 3.206-11.77 5.395-5.91 3.767-10.77 8.488-16.86 12.174-15.46 9.33-28.9 20.581-43.73 30.566-15.98 10.77-34.35 20.276-55.66 21.598-22.32 1.384-42.58-9.256-61.27-17.556-16.85-7.484-34.14-14.738-53.51-16.728-17.61-1.808-35.83 1.479-44.07 14.962-4.28 6.992-4.4 14.932-5.3 22.515-1.32 11.301-2.98 22.577-4.79 33.84-3.59 22.378-8.06 44.68-12.67 66.932-7.57 36.745-15.1 73.653-3.32 110.428 19.83 61.901 112.01 119.741 192.5 89.955 26.17-9.676 42.19-31.093 51.77-51.99 5.44-11.822 8.88-24.206 12.33-36.483 3.65-13.008 6.15-27.467 14.13-39.289 9.09-13.463 32.02-17.402 49.3-18.551 17.39-1.16 34.98 1.001 52.2 2.61 28.19 2.642 56.49 2.504 84.76 3.378v-.946z" fill="#F5F5F5"/><path d="M1919.69 555.317c-67.74-3.653-142.94-13.11-183.03-60.956-6.48-7.733-11.48-16.066-13.73-25.246-2.75-11.213-.25-22.951 2.97-33.903 5.52-18.698 14.65-35.585 28.25-51.408 27.93-32.438 69.44-54.695 116.57-64.999 16-3.498 32.44-5.526 48.97-6.492v-.979c-39.13 2.351-78.23 10.602-110.91 28.232-17.36 9.362-32.91 20.769-46.22 33.685-12.18 11.794-25.32 26.625-30.79 41.455-6.14 16.69-13.88 34.763-10.49 52.413 2.98 15.505 13.88 29.051 26.72 40.601 23.58 21.244 57.33 32.882 91.1 39.601 26.35 5.252 53.48 7.561 80.59 9.007v-1.011z" fill="#F5F5F5"/><path d="M1919.47 540.754c-66.36-8.318-143.15-33.29-147.08-94.072-2.15-33.254 20.45-64.182 50.89-85.411 16.3-11.362 35.56-19.975 56.02-25.457 13.01-3.487 26.55-5.545 40.17-7.072v-.943c-13.68 1.59-27.25 3.692-40.51 7.041-19.96 5.046-38.28 13.74-54.46 24.298-31.97 20.868-53.43 51.858-53.45 85.287 0 31.47 26.04 57.552 57.93 73.645 27.09 13.666 58.79 20.303 90.49 23.869v-1.185z" fill="#F5F5F5"/><path d="M1918.94 526.687c-53.64-10.054-111.18-34.925-116.47-82.636-2.93-26.344 14.86-51.74 37.28-69.863 12.07-9.754 26.51-17.313 41.91-23.232 12.14-4.665 24.59-6.934 37.28-8.762v-.924c-12.87 1.915-25.46 4.26-37.92 8.813-16.43 6.006-31.23 14.544-43.91 24.804-22.44 18.149-37.84 43.231-35.91 69.164 1.91 25.445 23.87 46.999 48.94 61.057 20.44 11.453 44.38 18.473 68.8 22.775v-1.196z" fill="#F5F5F5"/><path d="M1918.86 508.126c-39.56-10.826-77.94-33.316-80.89-68.504-3.25-38.816 37.7-67.361 80.89-79.286v-1.104c-44.08 11.968-84.01 40.826-82.15 80.39 1.69 35.575 42.13 58.637 82.15 69.54v-1.036zM58.23 367.427c-4.927-5.077-14.243-4.81-21.365-5.09-12.338-.486-24.622.698-36.865 2.245v1.205c5.154-.636 10.323-1.235 15.508-1.703a189.067 189.067 0 0124.379-.618c4.935.194 9.824.486 14.22 2.444 8.278 3.687 7.934 11.302 4.248 17.071-7.184 11.27-24.645 19.309-38.138 24.921A177.26 177.26 0 010 414.9v.948c7.996-2.233 15.805-4.976 23.434-8.145 14.751-6.138 31.54-15.286 38.192-27.978 2.235-4.279-.116-8.912-3.396-12.298z" fill="#F5F5F5"/><path d="M1919.63 490.127c-25.85-10.653-48.82-28.378-49.82-52.176-1.08-25.545 22.75-44.992 49.82-56.573v-1.191c-26.95 11.382-49.41 30.198-51.05 55.768-1.63 24.984 23.8 44.105 51.05 55.244v-1.072z" fill="#F5F5F5"/><path d="M1918.28 449.788c-2.08-3.704-3.34-7.758-3.53-12.211-.19-4.839 1.16-9.43 3.53-13.696v-1.784c-2.84 4.703-4.56 9.867-4.78 15.48-.21 5.463 1.64 10.465 4.78 14.98v-2.769z" fill="#F5F5F5"/><path d="M69.898 701.605c28.26 9.017 59.448 13.804 89.677 15.593 37.013 2.181 74.161-.338 111.206-.154 33.483.174 65.282 5.043 95.923 16.007 23.13 8.266 44.402 19.609 63.643 32.79h1.866c-27.893-19.174-59.878-34.241-95.283-42.748-47.033-11.311-97.002-6.074-145.308-6.074-47.853 0-99.601-5.436-142.177-24.212-9.931-4.373-18.99-9.902-27.183-16.16-3.56-2.723-8.597-6.499-7.62-10.99.718-3.321 4.637-6.064 7.629-8.123 5.818-3.99 11.752-7.858 17.991-11.424 20.421-11.664 45.987-15.879 69.851-20.896 25.2-5.283 50.774-9.774 76.144-14.541a871.508 871.508 0 0136.186-6.013c5.374-.771 11.972-.761 16.993-2.432.579-.199 1.28-.874 1.538-1.063 2.803-2.053 7.598-2.105 11.167-2.728 43.37-7.607 79.791-26.358 113.041-49.456 33.25-23.113 62.471-49.657 94.698-73.656 8.56-6.362 17.25-12.723 26.73-18.198 4.497-2.607 8.808-5.402 13.33-7.983 4.497-2.558 10.323-3.968 14.181-7.049 6.449-5.187 17.023-8.406 25.02-11.961 9.464-4.216 20.489-8.719 31.531-6.174 10.91 2.52 18.305 15.442 23.66 22.75 5.935 8.109 11.128 16.565 16.72 24.836 4.655 6.873 9.653 13.72 15.642 19.92a120.24 120.24 0 0010.611 9.753c3.704 3.02 5.559 7.161 9.34 10.318 15.493 12.957 34.134 23.062 53.332 32.131 22.172 10.448 44.459 20.804 66.906 30.869 42.847 19.185 86.085 36.663 135.323 41.71 49.641 5.089 99.844 3.556 149.524 8.671 7.31.745 14.52 1.358 21.51 3.341 6.57 1.875 12.91 4.067 19.61 5.666 13.84 3.28 26.52 6.923 39.1 12.747 25.71 11.909 49.45 27.017 73.23 41.21 42.55 25.407 84.24 51.755 126.04 77.959h2.05c-34.69-21.713-69.28-43.534-104.32-64.875-21.5-13.084-43.03-26.23-65.2-38.579-18.83-10.478-37.54-21.131-59.44-27.057-11.1-2.989-22.25-5.625-33.31-8.778-10.35-2.942-22.69-3.208-33.53-4.255-25.07-2.391-50.369-2.816-75.548-3.567-25.85-.786-51.688-1.972-77.161-5.722-26.202-3.857-50.21-11.812-74.052-21.121-22.863-8.93-45.048-18.934-67.079-29.111-21.577-9.968-43.673-19.507-64.297-30.711a213.353 213.353 0 01-27.756-18.009c-4.363-3.347-7.024-6.687-10.299-10.691-2.785-3.405-7.072-6.138-10.375-9.268-15.025-14.182-24.029-31.882-35.484-47.897-7.16-10.017-16.797-25.97-34.226-23.924-8.184.961-15.493 3.854-22.686 6.984-4.114 1.785-8.137 3.706-12.219 5.527-3.812 1.708-8.286 2.757-11.379 5.238-4.38 3.518-10.479 5.488-15.609 8.258-4.593 2.47-8.895 5.313-13.329 7.97-8.763 5.24-16.922 10.99-25.005 16.902-16.399 12.011-31.955 24.747-47.579 37.396-31.089 25.147-62.838 50.156-101.165 68.191-21.888 10.315-44.605 16.18-69.342 20.232-3.163.526-4.599 2.646-8.231 3.065-6.255.736-12.479 1.625-18.686 2.55-13.08 1.941-26.05 4.327-38.99 6.81-25.302 4.838-50.805 9.252-75.91 14.704-22.615 4.915-44.41 9.416-63.73 20.457-7.628 4.352-16.108 9.191-21.746 15.204-5.279 5.651-1.194 9.84 3.866 14.071 14 11.674 31.82 19.833 50.445 25.77z" fill="#F4F4F4"/><path d="M117.887 677.98c6.637 4.976 16.594 7.168 25.018 9.278 11.417 2.856 23.334 4.301 35.203 5.313 25.746 2.207 52.547-1.037 78.346-1.62 27.036-.613 53.725 1.222 79.253 8.757 22.404 6.596 43.714 15.44 63.807 25.72 23.122 11.837 44.259 25.994 63.594 41.572h1.734c-27.472-22.153-58.512-41.2-93.214-55.653-20.577-8.583-42.466-15.818-65.345-19.139-24.645-3.566-50.032-2.457-74.895-1.42-26.815 1.109-52.991 2.197-79.392-2.621-12.128-2.217-25.684-5.262-34.93-12.195-13.736-10.321 6.975-21.944 17.633-26.21 9.222-3.694 19.607-5.461 29.689-6.856 12.869-1.788 25.3-4.742 37.904-7.424 24.512-5.201 50.329-6.289 74.208-13.687 21.834-6.785 42.808-15.016 61.94-25.857 17.929-10.162 34.266-22.041 50-34.287 33.798-26.281 64.822-56.316 104.841-76.797 21.491-11.002 44.316-14.432 67.134-4.192 17.233 7.747 30.344 20.619 44.058 31.732 6.848 5.554 14.89 9.105 21.779 14.633 8.738 7.009 18.641 12.548 28.908 18.05 20.893 11.199 43.109 20.677 64.821 30.793 43.346 20.232 85.886 41.414 133.787 54.11 23.81 6.315 48.528 10.402 73.566 11.587 27.168 1.298 54.189.935 81.336 3.347 25.95 2.294 51.66 4.439 76.35 11.684 25.16 7.398 47.19 20.309 69.55 31.855 21.66 11.194 42.49 23.328 63.53 35.253 21.13 11.975 43.09 23.174 63.83 35.559 4.31 2.57 8.64 5.14 12.93 7.735h2.28c-34.08-20.865-70.34-39.616-105.31-59.449-21.52-12.201-43.51-23.798-65.83-35.074-20.61-10.412-41.82-18.362-65.61-22.853-24.08-4.526-49.88-5.911-74.491-7.434-27.667-1.721-55.616-.408-83.091-3.688-52.238-6.228-99.864-25.025-145.085-46.028-22.242-10.33-44.414-20.758-66.689-31.022-22.082-10.188-45.77-20.605-63.892-35.135-3.288-2.647-6.389-5.763-10.293-7.822-4.24-2.223-7.863-3.919-11.487-6.811-7.097-5.689-13.883-11.601-21.083-17.214-12.401-9.666-26.543-18.211-43.862-20.854-19.883-3.02-38.999 5.375-54.81 14.118-18.672 10.304-35.266 22.927-51.383 35.635-33.266 26.235-64.416 54.35-103.258 75.491-20.716 11.276-45.868 20.421-70.005 25.643-24.192 5.252-48.97 7.745-73.123 13.1-20.1 4.465-41.683 5.262-59.956 13.983-6.864 3.28-12.314 7.996-16.321 13.493-3.334 4.578 2.53 10.045 6.326 12.901zM1487.4 605.227c6.34 46.962 69.25 97.532 131.24 86.542 15.93-2.82 29.53-10.678 40.24-20.293 3.25-2.917 4.77-7.025 6.89-10.514 1.92-3.194 6.5-7.582 7.25-10.99 1.54-7.01 2.57-14.055 3.13-21.167 2.27-28.902-4.44-58.3-18.94-84.78-11.65-21.269-29.36-40.352-52.13-54.76-9.7-6.136-22.03-13.844-34.61-14.631-14.06-.872-23.8 2.083-34.54 9.142-20.15 13.248-31.76 34.178-39.42 53.623-8.52 21.606-12.53 45.256-9.11 67.828.09.638 1.36.654 1.26 0-4.45-29.357 3.29-60.517 18.45-87.299 7.07-12.51 16.65-24.421 29.7-33.428 7.39-5.101 15.5-8.631 25.32-9.018 12.29-.498 21.21 3.243 31.27 8.37 33.36 16.963 56.28 44.493 69.26 73.978 6.52 14.76 10.28 30.276 11.9 45.854.74 7.173.85 14.366.55 21.555-.33 7.955.21 19.455-4.76 26.48-3.52 5.002-6.61 10.203-9.63 15.43-2.62 4.552-7.82 8.108-12.48 11.337-8.1 5.65-17.78 9.63-28.09 11.934-19.99 4.491-41.33.598-59.53-6.56-36.8-14.443-67.5-45.552-71.96-78.633-.09-.644-1.34-.644-1.26 0z" fill="#F5F5F5"/><path d="M369.119 684.085c43.208 24.253 82.915 52.016 119.82 82.139h1.765c-28.151-23.078-57.918-44.878-89.825-64.609-18.796-11.618-39.434-21.505-57.762-33.547-8.519-5.584-15.915-13.094-13.62-22.398 1.195-4.828 5.904-9.492 9.309-13.498 4.537-5.324 9.721-10.3 14.86-15.266 16.041-15.516 34.539-29.224 52.742-43.069 18.287-13.897 34.358-30.149 53.928-42.819 20.974-13.601 44.533-27.22 73.059-23.304 12.425 1.697 24.247 8.135 35.109 13.009 11.682 5.242 23.091 10.851 34.43 16.553 44.931 22.562 89.832 44.904 135.98 65.871 43.781 19.885 88.311 41.011 137.376 51.168 50.965 10.55 104.649 5.385 156.29 12.706 27.38 3.883 51.45 11.618 75.61 22.48 22.75 10.228 44.89 21.33 66.67 32.831 26.71 14.091 52.77 28.922 78.73 43.892h2.13c-35.76-20.595-71.75-40.939-109.12-59.633-21-10.504-42.86-22.22-65.84-29.715-23.29-7.597-48.15-11.612-73.09-13.707-26.232-2.207-52.658-2.371-78.975-3.704-26.721-1.359-52.309-5.278-77.628-12.298-25.435-7.061-49.245-17.652-72.901-27.803-23.227-9.978-46.129-20.421-68.902-31.033-45.521-21.233-89.199-44.868-134.739-66.024-18.281-8.492-37.709-18.847-59.848-15.866-22.77 3.057-40.09 14.047-57.567 25.358-9.675 6.274-17.414 13.861-25.949 21.055-8.94 7.571-18.382 14.755-27.814 21.918-18.249 13.881-36.43 27.727-52.507 43.284-10.574 10.223-28.55 24.283-21.115 38.675 6.426 12.441 26.495 20.12 39.394 27.354z" fill="#F5F5F5"/><path d="M411.648 665.292c7.95 13.882 21.944 25.244 34.829 36.208 6.528 5.564 12.556 11.649 19.358 16.988 9.355 7.337 18.944 14.045 27.745 21.852 10.245 9.068 21.278 17.529 31.476 26.608h1.742c-11.729-10.591-24.628-20.329-36.357-30.936-7.95-7.183-17.227-13.156-25.785-19.859-7.224-5.661-13.65-12.272-20.592-18.183-14.424-12.297-28.916-25.234-35.414-41.624-3.701-9.339-2.756-17.299 1.5-26.306 4.209-8.916 9.925-17.34 16.383-25.321 12.127-15.015 28.025-27.941 45.447-39.028 9.784-6.223 19.991-12.2 31.978-15.291 13.47-3.485 27.19-4.343 40.941-1.538 23.34 4.767 46.533 13.524 68.335 21.606 22.686 8.42 44.409 18.423 65.749 28.825 42.701 20.794 83.961 43.56 128.613 61.682 20.796 8.446 42.514 15.465 65.204 19.844 10.338 2.008 20.9 3.193 31.493 3.791 5.834.337 11.694.311 17.521.163 5.566-.138 9.436 2.396 14.72 2.58 26.804.951 53.684 1.364 80.156 5.176 25.69 3.709 50.15 11.94 73.53 21.019 37.59 14.606 72.32 33.469 105.85 53.4h2.08c-33.25-19.757-67.58-38.344-104.65-53.222-21.44-8.608-44-16.195-67.38-20.661-24.13-4.588-49.15-5.385-73.83-6.197-6.244-.199-13.421.286-19.383-1.211-4.062-1.006-6.787-2.054-11.093-1.895-13.465.536-26.995-.537-40.237-2.478-24.699-3.607-48.272-11.301-70.719-20.135-44.869-17.637-86.174-40.561-128.67-61.483-40.985-20.155-83.781-37.168-129.207-49.854-20.397-5.686-40.965-4.24-60.511 3.132-8.378 3.168-16.188 8.731-23.418 13.335-8.785 5.589-16.938 11.796-24.568 18.382-13.985 12.098-25.37 26.056-33.561 41.189-3.514 6.484-6.545 12.538-6.06 19.645.468 6.897 3.21 13.559 6.785 19.797z" fill="#F5F5F5"/><path d="M458.865 659.629c-6.678-21.305 3.411-39.504 21.082-55.296 15.072-13.473 35.883-22.362 58.607-22.889 12.228-.276 25.067 2.458 36.873 4.767 12.65 2.483 24.988 5.886 37.077 9.764 12.174 3.903 23.972 8.843 36.063 12.997 12.155 4.179 23.516 9.482 34.858 14.908 42.252 20.217 79.483 46.324 124.089 63.414 20.451 7.832 42.041 13.585 64.245 17.187 23.081 3.745 46.961 4.726 70.38 6.376 37.545 2.616 75.201 5.886 110.821 16.324 30.52 8.946 58.59 23.665 84.96 39.268h1.98c-34.11-19.982-70.37-37.792-111.57-46.498-46.254-9.768-94.718-9.707-141.915-14.581-49.008-5.068-93.716-22.955-134.024-45.154-21.098-11.628-41.376-23.962-63.215-34.726-10.306-5.079-20.746-10.132-31.621-14.372-11.911-4.649-24.429-8.18-36.235-13.023-19.499-7.981-41.692-12.696-63.135-15.889-18.414-2.734-35.287-1.845-52.287 4.812-16.22 6.341-29.19 17.289-38.96 29.25-11.017 13.498-14.189 27.992-9.284 43.621.195.634 1.414.363 1.211-.26z" fill="#F5F5F5"/><path d="M467.937 675.874c4.139 5.471 8.605 10.79 13.189 16.027 8.972 10.238 18.834 19.971 28.995 29.459 16.258 15.194 33.569 29.637 50.421 44.408h1.725c-16.444-14.469-33.32-28.611-49.367-43.371-10.824-9.953-21.115-20.268-30.682-31.007-4.638-5.216-8.995-10.581-13.188-16.027-4.021-5.201-4.452-11.465-8.675-16.543-.446-.532-1.539-.036-1.086.51 4.185 5.043 4.732 11.343 8.668 16.544zm1082.593-57.219c7.64 10.505 22.43 26.43 39.5 19.844 12.87-4.976 14.65-17.212 11.48-27.155-3.09-9.676-13.58-22.95-27-24.395-22.71-2.448-26.23 17.81-24.06 31.456.11.634 1.36.634 1.27 0-.97-6.023-1.25-11.899.6-17.851 2.73-8.793 14.68-16.114 26.01-11.822 10.62 4.015 17.87 12.921 21.48 21.575 3.82 9.135 2.53 19.772-7.53 25.908-16.48 10.045-33.24-7.842-40.66-18.07-.4-.562-1.49-.052-1.09.51zM531.915 668.561c-1.523-10.791 3.561-20.411 13.15-27.932 9.018-7.071 22.302-8.966 34.405-9.13 25.535-.337 51.821 8.819 73.892 18.224 43.315 18.434 77.852 47.152 120.258 66.572 43.596 19.966 96.115 23.088 145.033 26.93 28.006 2.191 56.006 4.577 83.457 9.717 16.91 3.152 32.42 7.883 47.26 14.055h2.73c-13.69-5.86-27.92-10.489-43.57-13.82-25.081-5.354-51.034-7.796-76.788-9.932-53.3-4.414-109.549-6.57-157.489-27.824-20.796-9.222-39.271-21.504-58.091-33.03-19.882-12.175-40.167-23.926-62.154-33.541-31.268-13.672-87.321-31.968-115.12-4.266-6.762 6.734-9.433 15.49-8.23 23.977.086.643 1.351.643 1.257 0z" fill="#F5F5F5"/><path d="M569.743 723.736c9.629 9.436 19.297 18.893 29.729 27.778 5.951 5.047 12.073 9.952 18.023 14.99h1.797c-5.499-4.716-11.184-9.294-16.79-13.933-9.957-8.22-19.007-17.09-28.113-25.908-18.257-17.688-35.264-36.223-42.777-58.724-.209-.638-1.42-.373-1.209.261 7.019 21.029 22.34 38.88 39.34 55.536zm-504.329 12.21c34.891 6.524 70.133 9.779 105.818 11.725 36.758 2.008 73.654.215 110.395 2.596 19.006 1.236 37.661 3.97 55.966 8.256 7.739 1.809 15.078 4.516 22.278 7.51h2.524c-5.328-2.243-10.724-4.363-16.315-6.125-16.523-5.212-34.288-7.817-51.843-9.606-36.599-3.739-73.692-2.043-110.472-3.131-37.638-1.094-75.113-4.685-111.923-11.097-18.383-3.209-36.539-7.189-54.522-11.613-5.803-1.436-11.565-2.958-17.32-4.501v.659c4.7 1.395 9.377 2.892 13.977 4.067 16.954 4.286 34.125 8.016 51.437 11.26zm1819.696 30.229c10.77-10.887 22.01-21.468 34.19-31.308v-1.436c-12.81 10.254-24.54 21.341-35.8 32.744h1.61zm28.07.135c2.18-2.447 4.38-4.864 6.63-7.27v-1.661c-2.79 2.933-5.49 5.927-8.2 8.931h1.57zM53.295 750.199c30.229 6.811 60.199 11.71 91.537 13.585 31.649 1.896 63.423 2.054 95.134 2.764 3.124.077 6.255.138 9.386.215h25.747c-7.278-.409-14.611-.659-21.983-.884-32.788-.986-65.618-1.053-98.383-2.585-33.578-1.559-65.61-6.198-97.993-13.371-15.557-3.453-30.986-7.347-46.707-10.289A338.618 338.618 0 000 737.922v1.099c2.232.352 4.474.684 6.707 1.062 15.727 2.621 31.134 6.637 46.588 10.116zm13.845 14.514c1.273.337 2.538.654 3.803.976h4.873a403.124 403.124 0 01-13.884-3.444c-15.743-4.225-31.922-6.687-48.056-9.778-4.623-.884-9.245-1.748-13.876-2.57v1.037c5.528.986 11.04 2.033 16.561 3.081 17.095 3.28 33.9 6.197 50.579 10.698z" fill="#F5F5F5"/></svg>