<svg width="390" height="80" fill="none" xmlns="http://www.w3.org/2000/svg"><g filter="url(#filter0_d)"><rect x="15" y="10" width="360" height="50" rx="25" fill="#7252DC"/></g><g filter="url(#filter1_d)"><circle cx="40" cy="35" r="15" fill="#fff"/></g><path d="M46.5 35.495L36 41.99V29l10.5 6.495z" fill="#7252DC"/><path d="M66 30.953v.364h1.4v-.364m-1.4.737v.764h1.4v-.764H66zm0 1.147v.764h1.4v-.764H66zm0 1.146v.765h1.4v-.765H66zm0 1.147v.765h1.4v-.765H66zm0 1.147v.765h1.4v-.765H66zm0 1.147v.765h1.4v-.765H66zm0 1.138v.363h1.4v-.363m3.783-2.092v-.363h-1.4v.364m1.4-.771v-.623h-1.4v.623h1.4zm0-.934v-.622h-1.4v.622h1.4zm0-.872v-.364h-1.4v.364m5.183 2.208v-.363h-1.4v.363m1.4-1.467h-1.4v.726h1.4v-.726zm0-.373v-.364h-1.4v.364m35.096 1.84v-.363h-1.399v.363m1.399-1.467h-1.399v.726h1.399v-.726zm0-.373v-.364h-1.399v.364M78.75 35.734v-.363h-1.4v.363m1.4-1.104v-.363h-1.4v.363m5.183 4.54v-.362h-1.4v.363m1.4-.737v-.687h-1.4v.687h1.4zm0-1.03v-.687h-1.4v.687h1.4zm0-1.03v-.687h-1.4v.687h1.4zm0-1.03v-.687h-1.4v.687h1.4zm0-1.03v-.687h-1.4v.687h1.4zm0-1.03v-.688h-1.4v.687h1.4zm0-1.03v-.688h-1.4v.687h1.4zm0-1.06v-.363h-1.4v.363m5.065 12.149v-.364h-1.4v.364m1.4-.711v-.744h-1.4v.744h1.4zm0-1.115v-.744h-1.4v.744h1.4zm0-1.115v-.743h-1.4v.743h1.4zm0-1.115v-.743h-1.4v.743h1.4zm0-1.115v-.743h-1.4v.743h1.4zm0-1.115v-.743h-1.4v.743h1.4zm0-1.115V35.2h-1.4v.743h1.4zm0-1.115v-.743h-1.4v.743h1.4zm0-1.115v-.743h-1.4v.743h1.4zm0-1.114v-.744h-1.4v.744h1.4zm0-1.115v-.744h-1.4v.744h1.4zm0-1.115v-.743h-1.4v.743h1.4zm0-1.115v-.744h-1.4v.744h1.4zm0-1.115v-.744h-1.4v.744h1.4zm0-1.117v-.363h-1.4v.363m5.184 26.139v-.363h-1.4v.363m1.4-.725v-.733h-1.4v.733h1.4zm0-1.1V50.6h-1.4v.734h1.4zm0-1.101V49.5h-1.4v.734h1.4zm0-1.1v-.735h-1.4v.734h1.4zm0-1.101v-.734h-1.4v.734h1.4zm0-1.101v-.734h-1.4v.734h1.4zm0-1.101v-.734h-1.4v.734h1.4zm0-1.1v-.735h-1.4v.734h1.4zm0-1.102v-.733h-1.4v.733h1.4zm0-1.1v-.735h-1.4v.735h1.4zm0-1.101v-.734h-1.4v.734h1.4zm0-1.101v-.734h-1.4v.734h1.4zm0-1.101v-.734h-1.4v.734h1.4zm0-1.1v-.734h-1.4v.733h1.4zm0-1.102v-.733h-1.4v.733h1.4zm0-1.1v-.734h-1.4v.734h1.4zm0-1.101v-.734h-1.4v.734h1.4zm0-1.1v-.735h-1.4v.734h1.4zm0-1.102v-.734h-1.4v.734h1.4zm0-1.1v-.734h-1.4v.734h1.4zm0-1.101v-.734h-1.4v.734h1.4zm0-1.101v-.734h-1.4v.734h1.4zm0-1.1v-.735h-1.4v.734h1.4zm0-1.102v-.734h-1.4v.734h1.4zm0-1.1v-.735h-1.4v.735h1.4zm0-1.101v-.734h-1.4v.734h1.4zm0-1.101v-.734h-1.4v.734h1.4zm0-1.1v-.735h-1.4v.734h1.4zm0-1.102v-.733h-1.4v.733h1.4zm0-1.1v-.734h-1.4v.733h1.4zm0-1.101v-.734h-1.4v.734h1.4zm0-1.1v-.735h-1.4v.734h1.4zm0-1.108v-.363h-1.4v.363m5.183 24.666v-.363h-1.4v.363m1.4-.758v-.707h-1.4v.707h1.4zm0-1.06v-.707h-1.4v.707h1.4zm0-1.06v-.707h-1.4v.707h1.4zm0-1.06v-.707h-1.4v.707h1.4zm0-1.06v-.707h-1.4v.707h1.4zm0-1.06v-.707h-1.4v.707h1.4zm0-1.06v-.707h-1.4v.707h1.4zm0-1.06v-.707h-1.4v.706h1.4zm0-1.06v-.707h-1.4v.706h1.4zm0-1.06v-.708h-1.4v.707h1.4zm0-1.06v-.708h-1.4v.707h1.4zm0-1.061v-.707h-1.4v.707h1.4zm0-.957v-.363h-1.4v.363m5.184 10.062v-.363h-1.4v.364m1.4-.65v-.688h-1.4v.688h1.4zm0-1.032v-.688h-1.4v.688h1.4zm0-1.032v-.689h-1.4v.689h1.4zm0-1.033v-.688h-1.4v.688h1.4zm0-1.032v-.688h-1.4v.688h1.4zm0-1.032v-.688h-1.4v.688h1.4zm0-1.062v-.363h-1.4v.363m5.183 10.186v-.363h-1.4v.363m1.4-.758v-.707h-1.4v.707h1.4zm0-1.06v-.707h-1.4v.707h1.4zm0-1.06v-.707h-1.4v.707h1.4zm0-1.06v-.707h-1.4v.707h1.4zm0-1.06v-.707h-1.4v.707h1.4zm0-1.06v-.707h-1.4v.707h1.4zm0-1.06v-.707h-1.4v.707h1.4zm0-1.06v-.707h-1.4v.706h1.4zm0-1.06v-.707h-1.4v.706h1.4zm0-1.06v-.708h-1.4v.707h1.4zm0-1.06v-.708h-1.4v.707h1.4zm0-1.061v-.707h-1.4v.707h1.4zm0-.957v-.363h-1.4v.363m5.183 8.713v-.363h-1.4v.363m1.4-.771v-.727h-1.4v.727h1.4zm0-1.09v-.726h-1.4v.726h1.4zm0-1.09v-.726h-1.4v.727h1.4zm0-1.099v-.363h-1.4v.363m8.967 4.05v-.363h-1.399v.363m1.399-.771v-.727h-1.399v.727h1.399zm0-1.09v-.726h-1.399v.726h1.399zm0-1.09v-.726h-1.399v.727h1.399zm0-1.099v-.363h-1.399v.363m5.183 8.345v-.363h-1.4v.363m1.4-.768v-.726h-1.4v.726h1.4zm0-1.09v-.726h-1.4v.727h1.4zm0-1.089v-.726h-1.4v.726h1.4zm0-1.09v-.726h-1.4v.727h1.4zm0-1.089v-.726h-1.4v.726h1.4zm0-1.09v-.726h-1.4v.726h1.4zm0-1.09v-.725h-1.4v.726h1.4zm0-1.089v-.726h-1.4v.726h1.4zm0-1.09v-.726h-1.4v.727h1.4zm0-1.089v-.726h-1.4v.726h1.4zm0-1.09v-.726h-1.4v.727h1.4zm0-.976V28.5h-1.4v.363m27.884 7.239v-.363h-1.4v.363m1.4-1.467h-1.4v.726h1.4v-.726zm0-.373v-.364h-1.4v.364m5.419 2.945v-.363h-1.4v.363m1.4-.771v-.727h-1.4v.727h1.4zm0-1.09v-.726h-1.4v.726h1.4zm0-1.09v-.726h-1.4v.727h1.4zm0-1.099v-.363h-1.4v.363m3.784 1.478v.363h1.399v-.363m-1.399.368v.363h1.399v-.363m-30.621 11.898v-.363h-1.4v.363m1.4-.671v-.726h-1.4v.727h1.4zm0-1.089v-.726h-1.4v.726h1.4zm0-1.09v-.726h-1.4v.726h1.4zm0-1.09v-.725h-1.4v.726h1.4zm0-1.089v-.726h-1.4v.726h1.4zm0-1.09v-.726h-1.4v.727h1.4zm0-1.089v-.726h-1.4v.726h1.4zm0-1.09v-.726h-1.4v.727h1.4zm0-1.089v-.726h-1.4v.726h1.4zm0-1.09v-.726h-1.4v.727h1.4zm0-1.09v-.726h-1.4v.727h1.4zm0-1.089v-.726h-1.4v.726h1.4zm0-1.09v-.726h-1.4v.727h1.4zm0-1.089v-.726h-1.4v.726h1.4zm0-1.09v-.726h-1.4v.727h1.4zm0-1.089v-.726h-1.4v.726h1.4zm0-1.09v-.726h-1.4v.726h1.4zm0-1.089v-.726h-1.4v.726h1.4zm0-1.09v-.726h-1.4v.726h1.4zm0-1.09v-.726h-1.4v.727h1.4zm0-1.089v-.726h-1.4v.726h1.4zm0-1.099v-.363h-1.4v.363m5.183 16.321v-.363h-1.399v.363m1.399-.689v-.697h-1.399v.697h1.399zm0-1.046v-.697h-1.399v.697h1.399zm0-1.046v-.697h-1.399v.697h1.399zm0-1.046v-.697h-1.399v.697h1.399zm0-1.046v-.697h-1.399v.697h1.399zm0-1.046v-.697h-1.399v.697h1.399zm0-1.046V32h-1.399v.697h1.399zm0-1.046v-.697h-1.399v.697h1.399zm0-1.07v-.363h-1.399v.363m5.182 6.627v-.363h-1.399v.363m1.399-.771v-.727h-1.399v.727h1.399zm0-1.09v-.726h-1.399v.726h1.399zm0-1.09v-.726h-1.399v.727h1.399zm0-1.099v-.363h-1.399v.363m5.183 2.945v-.363h-1.4v.363m1.4-1.467h-1.4v.726h1.4v-.726zm0-.373v-.364h-1.4v.364m24.573 2.945v-.363h-1.4v.363m1.4-.771v-.727h-1.4v.727h1.4zm0-1.09v-.726h-1.4v.726h1.4zm0-1.09v-.726h-1.4v.727h1.4zm0-1.099v-.363h-1.4v.363m5.184 8.345v-.363h-1.4v.363m1.4-.768v-.726h-1.4v.726h1.4zm0-1.09v-.726h-1.4v.727h1.4zm0-1.089v-.726h-1.4v.726h1.4zm0-1.09v-.726h-1.4v.727h1.4zm0-1.089v-.726h-1.4v.726h1.4zm0-1.09v-.726h-1.4v.726h1.4zm0-1.09v-.725h-1.4v.726h1.4zm0-1.089v-.726h-1.4v.726h1.4zm0-1.09v-.726h-1.4v.727h1.4zm0-1.089v-.726h-1.4v.726h1.4zm0-1.09v-.726h-1.4v.727h1.4zm0-.976V28.5h-1.4v.363m5.183 8.712v-.363h-1.399v.363m1.399-.725v-.67h-1.399v.67h1.399zm0-1.006v-.67h-1.399v.67h1.399zm0-1.005v-.67h-1.399v.67h1.399zm0-1.006v-.67h-1.399v.67h1.399zm0-1.044v-.363h-1.399v.363m5.064 6.872v-.363h-1.4v.363m1.4-.689v-.697h-1.4v.697h1.4zm0-1.046v-.697h-1.4v.697h1.4zm0-1.046v-.697h-1.4v.697h1.4zm0-1.046v-.697h-1.4v.697h1.4zm0-1.046v-.697h-1.4v.697h1.4zm0-1.046v-.697h-1.4v.697h1.4zm0-1.046V32h-1.4v.697h1.4zm0-1.046v-.697h-1.4v.697h1.4zm0-1.07v-.363h-1.4v.363m5.183 6.627v-.363h-1.4v.363m1.4-.771v-.727h-1.4v.727h1.4zm0-1.09v-.726h-1.4v.726h1.4zm0-1.09v-.726h-1.4v.727h1.4zm0-1.099v-.363h-1.4v.363m5.185 2.945v-.363h-1.4v.363m1.4-1.467h-1.4v.726h1.4v-.726zm0-.373v-.364h-1.4v.364m-36.789 7.24v-.363h-1.4v.363m1.4-.768v-.726h-1.4v.726h1.4zm0-1.09v-.726h-1.4v.727h1.4zm0-1.089v-.726h-1.4v.726h1.4zm0-1.09v-.726h-1.4v.727h1.4zm0-1.089v-.726h-1.4v.726h1.4zm0-1.09v-.726h-1.4v.726h1.4zm0-1.09v-.725h-1.4v.726h1.4zm0-1.089v-.726h-1.4v.726h1.4zm0-1.09v-.726h-1.4v.727h1.4zm0-1.089v-.726h-1.4v.726h1.4zm0-1.09v-.726h-1.4v.727h1.4zm0-.976V28.5h-1.4v.363m5.183 8.957v-.363h-1.4v.363m1.4-.724v-.782h-1.4v.782h1.4zm0-1.173v-.782h-1.4v.782h1.4zm0-1.174v-.782h-1.4v.782h1.4zm0-1.173v-.782h-1.4v.782h1.4zm0-1.156v-.362h-1.4v.363m38.898-1.468v.363h1.4v-.363m-1.4.737v.764h1.4v-.765h-1.4zm0 1.146v.765h1.4v-.765h-1.4zm0 1.147v.765h1.4v-.765h-1.4zm0 1.147v.765h1.4v-.765h-1.4zm0 1.147v.765h1.4v-.765h-1.4zm0 1.147v.764h1.4v-.764h-1.4zm0 1.138v.363h1.4v-.363m3.783-2.092v-.363h-1.399v.364m1.399-.771v-.623h-1.399v.623h1.399zm0-.934v-.622h-1.399v.622h1.399zm0-.872v-.364h-1.399v.364m5.182 2.208v-.363h-1.4v.363m1.4-1.467h-1.4v.726h1.4v-.726zm0-.373v-.364h-1.4v.364m35.096 4.294v-.363h-1.399v.364m1.399-.65v-.688h-1.399v.688h1.399zm0-1.032v-.688h-1.399v.688h1.399zm0-1.032v-.689h-1.399v.689h1.399zm0-1.033v-.688h-1.399v.688h1.399zm0-1.032v-.688h-1.399v.688h1.399zm0-1.032v-.688h-1.399v.688h1.399zm0-1.062v-.363h-1.399v.363m-28.513 4.05v-.363h-1.4v.363m1.4-1.104v-.363h-1.4v.363m114.447-.732v.364h1.4v-.364m0 .737h-1.4v.726h1.4v-.726zm-1.4 1.105v.362h1.4v-.363m-5.891-5.522v.363h1.399v-.363m-1.399.736v.697h1.399v-.697h-1.399zm0 1.046v.697h1.399V32h-1.399zm0 1.046v.697h1.399v-.697h-1.399zm0 1.046v.697h1.399v-.697h-1.399zm0 1.046v.697h1.399v-.697h-1.399zm0 1.046v.697h1.399v-.697h-1.399zm0 1.046v.697h1.399v-.697h-1.399zm0 1.046v.697h1.399v-.697h-1.399zm0 1.023v.363h1.399v-.363m-8.849-5.4v.364h1.4v-.364m0 .737h-1.4v.726h1.4v-.726zm-1.4 1.105v.362h1.4v-.363M193.08 39.17v-.362h-1.4v.363m1.4-.737v-.687h-1.4v.687h1.4zm0-1.03v-.687h-1.4v.687h1.4zm0-1.03v-.687h-1.4v.687h1.4zm0-1.03v-.687h-1.4v.687h1.4zm0-1.03v-.687h-1.4v.687h1.4zm0-1.03v-.688h-1.4v.687h1.4zm0-1.03v-.688h-1.4v.687h1.4zm0-1.06v-.363h-1.4v.363m5.184 12.149v-.364h-1.4v.364m1.4-.711v-.744h-1.4v.744h1.4zm0-1.115v-.744h-1.4v.744h1.4zm0-1.115v-.743h-1.4v.743h1.4zm0-1.115v-.743h-1.4v.743h1.4zm0-1.115v-.743h-1.4v.743h1.4zm0-1.115v-.743h-1.4v.743h1.4zm0-1.115V35.2h-1.4v.743h1.4zm0-1.115v-.743h-1.4v.743h1.4zm0-1.115v-.743h-1.4v.743h1.4zm0-1.114v-.744h-1.4v.744h1.4zm0-1.115v-.744h-1.4v.744h1.4zm0-1.115v-.743h-1.4v.743h1.4zm0-1.115v-.744h-1.4v.744h1.4zm0-1.115v-.744h-1.4v.744h1.4zm0-1.117v-.363h-1.4v.363m5.182 12.64v-.363h-1.4v.363m1.4-.689v-.697h-1.4v.697h1.4zm0-1.046v-.697h-1.4v.697h1.4zm0-1.046v-.697h-1.4v.697h1.4zm0-1.046v-.697h-1.4v.697h1.4zm0-1.046v-.697h-1.4v.697h1.4zm0-1.046v-.697h-1.4v.697h1.4zm0-1.046V32h-1.4v.697h1.4zm0-1.046v-.697h-1.4v.697h1.4zm0-1.07v-.363h-1.4v.363m5.066 11.29v-.363h-1.4v.363m1.4-.758v-.707h-1.4v.707h1.4zm0-1.06v-.707h-1.4v.707h1.4zm0-1.06v-.707h-1.4v.707h1.4zm0-1.06v-.707h-1.4v.707h1.4zm0-1.06v-.707h-1.4v.707h1.4zm0-1.06v-.707h-1.4v.707h1.4zm0-1.06v-.707h-1.4v.707h1.4zm0-1.06v-.707h-1.4v.706h1.4zm0-1.06v-.707h-1.4v.706h1.4zm0-1.06v-.708h-1.4v.707h1.4zm0-1.06v-.708h-1.4v.707h1.4zm0-1.061v-.707h-1.4v.707h1.4zm0-.957v-.363h-1.4v.363m5.182 18.407v-.363h-1.399v.363m1.399-.671v-.726h-1.399v.727h1.399zm0-1.089v-.726h-1.399v.726h1.399zm0-1.09v-.726h-1.399v.726h1.399zm0-1.09v-.725h-1.399v.726h1.399zm0-1.089v-.726h-1.399v.726h1.399zm0-1.09v-.726h-1.399v.727h1.399zm0-1.089v-.726h-1.399v.726h1.399zm0-1.09v-.726h-1.399v.727h1.399zm0-1.089v-.726h-1.399v.726h1.399zm0-1.09v-.726h-1.399v.727h1.399zm0-1.09v-.726h-1.399v.727h1.399zm0-1.089v-.726h-1.399v.726h1.399zm0-1.09v-.726h-1.399v.727h1.399zm0-1.089v-.726h-1.399v.726h1.399zm0-1.09v-.726h-1.399v.727h1.399zm0-1.089v-.726h-1.399v.726h1.399zm0-1.09v-.726h-1.399v.726h1.399zm0-1.089v-.726h-1.399v.726h1.399zm0-1.09v-.726h-1.399v.726h1.399zm0-1.09v-.726h-1.399v.727h1.399zm0-1.089v-.726h-1.399v.726h1.399zm0-1.099v-.363h-1.399v.363m5.183 22.212v-.364h-1.4v.364m1.4-.768v-.74h-1.4v.74h1.4zm0-1.109v-.74h-1.4v.74h1.4zm0-1.11v-.739h-1.4v.74h1.4zm0-1.109v-.74h-1.4v.74h1.4zm0-1.11v-.739h-1.4v.74h1.4zm0-1.108v-.74h-1.4v.74h1.4zm0-1.11v-.74h-1.4v.74h1.4zm0-1.11v-.739h-1.4v.74h1.4zm0-1.109v-.74h-1.4v.74h1.4zm0-1.109v-.74h-1.4v.74h1.4zm0-1.11v-.739h-1.4v.74h1.4zm0-1.108v-.74h-1.4v.74h1.4zm0-1.11v-.74h-1.4v.74h1.4zm0-1.11v-.739h-1.4v.74h1.4zm0-1.109v-.74h-1.4v.74h1.4zm0-1.11v-.739h-1.4v.74h1.4zm0-1.108v-.74h-1.4v.74h1.4zm0-1.11v-.74h-1.4v.74h1.4zm0-1.113v-.363h-1.4v.363m5.183 18.531v-.364h-1.399v.364m1.399-.711v-.744h-1.399v.744h1.399zm0-1.115v-.744h-1.399v.744h1.399zm0-1.115v-.743h-1.399v.743h1.399zm0-1.115v-.743h-1.399v.743h1.399zm0-1.115v-.743h-1.399v.743h1.399zm0-1.115v-.743h-1.399v.743h1.399zm0-1.115V35.2h-1.399v.743h1.399zm0-1.115v-.743h-1.399v.743h1.399zm0-1.115v-.743h-1.399v.743h1.399zm0-1.114v-.744h-1.399v.744h1.399zm0-1.115v-.744h-1.399v.744h1.399zm0-1.115v-.743h-1.399v.743h1.399zm0-1.115v-.744h-1.399v.744h1.399zm0-1.115v-.744h-1.399v.744h1.399zm0-1.117v-.363h-1.399v.363m8.967 18.531v-.364h-1.4v.364m1.4-.768v-.74h-1.4v.74h1.4zm0-1.109v-.74h-1.4v.74h1.4zm0-1.11v-.739h-1.4v.74h1.4zm0-1.109v-.74h-1.4v.74h1.4zm0-1.11v-.739h-1.4v.74h1.4zm0-1.108v-.74h-1.4v.74h1.4zm0-1.11v-.74h-1.4v.74h1.4zm0-1.11v-.739h-1.4v.74h1.4zm0-1.109v-.74h-1.4v.74h1.4zm0-1.109v-.74h-1.4v.74h1.4zm0-1.11v-.739h-1.4v.74h1.4zm0-1.108v-.74h-1.4v.74h1.4zm0-1.11v-.74h-1.4v.74h1.4zm0-1.11v-.739h-1.4v.74h1.4zm0-1.109v-.74h-1.4v.74h1.4zm0-1.11v-.739h-1.4v.74h1.4zm0-1.108v-.74h-1.4v.74h1.4zm0-1.11v-.74h-1.4v.74h1.4zm0-1.113v-.363h-1.4v.363m5.182 24.666v-.363h-1.399v.363m1.399-.731v-.717h-1.399v.717h1.399zm0-1.076v-.717h-1.399v.717h1.399zm0-1.075v-.718h-1.399v.718h1.399zm0-1.076v-.718h-1.399v.718h1.399zm0-1.076v-.717h-1.399v.717h1.399zm0-1.076v-.717h-1.399v.717h1.399zm0-1.076v-.717h-1.399v.717h1.399zm0-1.075v-.718h-1.399v.718h1.399zm0-1.076v-.717h-1.399v.717h1.399zm0-1.076v-.717h-1.399v.717h1.399zm0-1.076v-.717h-1.399v.717h1.399zm0-1.076v-.717h-1.399v.717h1.399zm0-1.075v-.717h-1.399v.717h1.399zm0-1.076v-.717h-1.399v.717h1.399zm0-1.076v-.717h-1.399v.717h1.399zm0-1.076v-.717h-1.399v.717h1.399zm0-1.075v-.717h-1.399v.716h1.399zm0-1.076v-.717h-1.399v.717h1.399zm0-1.076v-.717h-1.399v.717h1.399zm0-1.076v-.717h-1.399v.717h1.399zm0-1.075v-.717h-1.399v.716h1.399zm0-1.076v-.717h-1.399v.717h1.399zm0-1.076v-.717h-1.399v.717h1.399zm0-1.076v-.717h-1.399v.717h1.399zm0-1.076v-.716h-1.399v.716h1.399zm0-1.075v-.717h-1.399v.717h1.399zm0-1.09v-.364h-1.399v.364m27.883 15.339v-.363h-1.4v.363m1.4-1.467h-1.4v.726h1.4v-.726zm0-.373v-.364h-1.4v.364m5.42 2.945v-.363h-1.399v.363m1.399-.771v-.727h-1.399v.727h1.399zm0-1.09v-.726h-1.399v.726h1.399zm0-1.09v-.726h-1.399v.727h1.399zm0-1.099v-.363h-1.399v.363m3.783 1.478v.363h1.4v-.363m-1.4.368v.363h1.4v-.363m45.302-.368v.363H308v-.363m-1.399.368v.363H308v-.363m-12.651 2.204v-.363h-1.4v.363m1.4-.771v-.727h-1.4v.727h1.4zm0-1.09v-.726h-1.4v.726h1.4zm0-1.09v-.726h-1.4v.727h1.4zm0-1.099v-.363h-1.4v.363m-7.685 1.478v.363h1.4v-.363m-1.4.368v.363h1.4v-.363M230.796 55v-.362h-1.4V55m1.4-.76v-.72h-1.4v.72h1.4zm0-1.079v-.72h-1.4v.72h1.4zm0-1.08v-.72h-1.4v.72h1.4zm0-1.08v-.719h-1.4v.72h1.4zm0-1.078v-.72h-1.4v.72h1.4zm0-1.08v-.72h-1.4v.72h1.4zm0-1.08v-.72h-1.4v.72h1.4zm0-1.08v-.719h-1.4v.72h1.4zm0-1.079v-.72h-1.4v.72h1.4zm0-1.08v-.72h-1.4v.72h1.4zm0-1.079v-.72h-1.4v.72h1.4zm0-1.079v-.72h-1.4v.72h1.4zm0-1.08v-.72h-1.4v.72h1.4zm0-1.08v-.72h-1.4v.72h1.4zm0-1.08v-.72h-1.4v.72h1.4zm0-1.079v-.72h-1.4v.72h1.4zm0-1.08v-.719h-1.4v.72h1.4zm0-1.079v-.72h-1.4v.72h1.4zm0-1.08v-.72h-1.4v.72h1.4zm0-1.079v-.72h-1.4v.72h1.4zm0-1.08v-.72h-1.4v.72h1.4zm0-1.08v-.719h-1.4v.72h1.4zm0-1.079v-.72h-1.4v.72h1.4zm0-1.08v-.72h-1.4v.72h1.4zm0-1.08v-.718h-1.4v.719h1.4zm0-1.078v-.72h-1.4v.72h1.4zm0-1.08v-.72h-1.4v.72h1.4zm0-1.08v-.72h-1.4v.72h1.4zm0-1.079v-.72h-1.4v.72h1.4zm0-1.08v-.72h-1.4v.72h1.4zm0-1.08v-.719h-1.4v.72h1.4zm0-1.079v-.72h-1.4v.72h1.4zm0-1.08v-.72h-1.4v.72h1.4zm0-1.079v-.72h-1.4v.72h1.4zm0-1.08v-.72h-1.4v.72h1.4zm0-1.08v-.719h-1.4v.72h1.4zm0-1.092V15h-1.4v.363m5.182 30.189v-.364h-1.4v.364m1.4-.768v-.74h-1.4v.74h1.4zm0-1.109v-.74h-1.4v.74h1.4zm0-1.11v-.739h-1.4v.74h1.4zm0-1.109v-.74h-1.4v.74h1.4zm0-1.11v-.739h-1.4v.74h1.4zm0-1.108v-.74h-1.4v.74h1.4zm0-1.11v-.74h-1.4v.74h1.4zm0-1.11v-.739h-1.4v.74h1.4zm0-1.109v-.74h-1.4v.74h1.4zm0-1.109v-.74h-1.4v.74h1.4zm0-1.11v-.739h-1.4v.74h1.4zm0-1.108v-.74h-1.4v.74h1.4zm0-1.11v-.74h-1.4v.74h1.4zm0-1.11v-.739h-1.4v.74h1.4zm0-1.109v-.74h-1.4v.74h1.4zm0-1.11v-.739h-1.4v.74h1.4zm0-1.108v-.74h-1.4v.74h1.4zm0-1.11v-.74h-1.4v.74h1.4zm0-1.113v-.363h-1.4v.363m5.066 16.69v-.363h-1.4v.363m1.4-.768v-.726h-1.4v.726h1.4zm0-1.09v-.726h-1.4v.727h1.4zm0-1.089v-.726h-1.4v.726h1.4zm0-1.09v-.726h-1.4v.727h1.4zm0-1.089v-.726h-1.4v.726h1.4zm0-1.09v-.726h-1.4v.726h1.4zm0-1.09v-.725h-1.4v.726h1.4zm0-1.089v-.726h-1.4v.726h1.4zm0-1.09v-.726h-1.4v.727h1.4zm0-1.089v-.726h-1.4v.726h1.4zm0-1.09v-.726h-1.4v.727h1.4zm0-.976V28.5h-1.4v.363m5.183 8.957v-.363h-1.4v.363m1.4-.724v-.782h-1.4v.782h1.4zm0-1.173v-.782h-1.4v.782h1.4zm0-1.174v-.782h-1.4v.782h1.4zm0-1.173v-.782h-1.4v.782h1.4zm0-1.156v-.362h-1.4v.363m24.573 4.786v-.363h-1.399v.363m1.399-.771v-.727h-1.399v.727h1.399zm0-1.09v-.726h-1.399v.726h1.399zm0-1.09v-.726h-1.399v.727h1.399zm0-1.099v-.363h-1.399v.363m5.182 8.345v-.363h-1.4v.363m1.4-.768v-.726h-1.4v.726h1.4zm0-1.09v-.726h-1.4v.727h1.4zm0-1.089v-.726h-1.4v.726h1.4zm0-1.09v-.726h-1.4v.727h1.4zm0-1.089v-.726h-1.4v.726h1.4zm0-1.09v-.726h-1.4v.726h1.4zm0-1.09v-.725h-1.4v.726h1.4zm0-1.089v-.726h-1.4v.726h1.4zm0-1.09v-.726h-1.4v.727h1.4zm0-1.089v-.726h-1.4v.726h1.4zm0-1.09v-.726h-1.4v.727h1.4zm0-.976V28.5h-1.4v.363m5.184 8.712v-.363h-1.4v.363m1.4-.725v-.67h-1.4v.67h1.4zm0-1.006v-.67h-1.4v.67h1.4zm0-1.005v-.67h-1.4v.67h1.4zm0-1.006v-.67h-1.4v.67h1.4zm0-1.044v-.363h-1.4v.363m5.184 6.872v-.363h-1.4v.363m1.4-.689v-.697h-1.4v.697h1.4zm0-1.046v-.697h-1.4v.697h1.4zm0-1.046v-.697h-1.4v.697h1.4zm0-1.046v-.697h-1.4v.697h1.4zm0-1.046v-.697h-1.4v.697h1.4zm0-1.046v-.697h-1.4v.697h1.4zm0-1.046V32h-1.4v.697h1.4zm0-1.046v-.697h-1.4v.697h1.4zm0-1.07v-.363h-1.4v.363m5.183 6.627v-.363h-1.399v.363m1.399-.771v-.727h-1.399v.727h1.399zm0-1.09v-.726h-1.399v.726h1.399zm0-1.09v-.726h-1.399v.727h1.399zm0-1.099v-.363h-1.399v.363m5.064 2.945v-.363h-1.4v.363m1.4-1.467h-1.4v.726h1.4v-.726zm0-.373v-.364h-1.4v.364m-36.789 7.24v-.363h-1.4v.363m1.4-.768v-.726h-1.4v.726h1.4zm0-1.09v-.726h-1.4v.727h1.4zm0-1.089v-.726h-1.4v.726h1.4zm0-1.09v-.726h-1.4v.727h1.4zm0-1.089v-.726h-1.4v.726h1.4zm0-1.09v-.726h-1.4v.726h1.4zm0-1.09v-.725h-1.4v.726h1.4zm0-1.089v-.726h-1.4v.726h1.4zm0-1.09v-.726h-1.4v.727h1.4zm0-1.089v-.726h-1.4v.726h1.4zm0-1.09v-.726h-1.4v.727h1.4zm0-.976V28.5h-1.4v.363m5.184 8.957v-.363h-1.4v.363m1.4-.724v-.782h-1.4v.782h1.4zm0-1.173v-.782h-1.4v.782h1.4zm0-1.174v-.782h-1.4v.782h1.4zm0-1.173v-.782h-1.4v.782h1.4zm0-1.156v-.362h-1.4v.363" fill="#fff"/><defs><filter id="filter0_d" x="0" y="0" width="390" height="80" filterUnits="userSpaceOnUse" color-interpolation-filters="sRGB"><feFlood flood-opacity="0" result="BackgroundImageFix"/><feColorMatrix in="SourceAlpha" values="0 0 0 0 0 0 0 0 0 0 0 0 0 0 0 0 0 0 127 0"/><feOffset dy="5"/><feGaussianBlur stdDeviation="7.5"/><feColorMatrix values="0 0 0 0 0 0 0 0 0 0 0 0 0 0 0 0 0 0 0.16 0"/><feBlend in2="BackgroundImageFix" result="effect1_dropShadow"/><feBlend in="SourceGraphic" in2="effect1_dropShadow" result="shape"/></filter><filter id="filter1_d" x="10" y="10" width="60" height="60" filterUnits="userSpaceOnUse" color-interpolation-filters="sRGB"><feFlood flood-opacity="0" result="BackgroundImageFix"/><feColorMatrix in="SourceAlpha" values="0 0 0 0 0 0 0 0 0 0 0 0 0 0 0 0 0 0 127 0"/><feOffset dy="5"/><feGaussianBlur stdDeviation="7.5"/><feColorMatrix values="0 0 0 0 0 0 0 0 0 0 0 0 0 0 0 0 0 0 0.16 0"/><feBlend in2="BackgroundImageFix" result="effect1_dropShadow"/><feBlend in="SourceGraphic" in2="effect1_dropShadow" result="shape"/></filter></defs></svg>