<svg width="26" height="26" fill="none" xmlns="http://www.w3.org/2000/svg"><path d="M23.35 4.334a1.445 1.445 0 00-.297 0H2.831c-.13.002-.258.021-.383.058l10.436 10.392L23.35 4.334z" fill="#0BC08B"/><path d="M24.418 5.337L13.903 15.809a1.444 1.444 0 01-2.037 0L1.444 5.416c-.032.118-.049.24-.05.361v14.445a1.444 1.444 0 001.444 1.444h20.223a1.444 1.444 0 001.444-1.444V5.777a1.44 1.44 0 00-.087-.44zM3.828 20.222H2.824v-1.033l5.25-5.207L9.093 15l-5.265 5.222zm19.218 0h-1.011L16.77 15l1.018-1.018 5.25 5.207.008 1.033z" fill="#0BC08B"/></svg>