<svg width="26" height="26" fill="none" xmlns="http://www.w3.org/2000/svg"><path d="M25.023 20.282l-5.758-5.236a1.417 1.417 0 00-1.971.06l-3.39 3.487c-.816-.156-2.457-.667-4.145-2.352-1.689-1.69-2.2-3.335-2.352-4.145l3.484-3.391a1.417 1.417 0 00.06-1.97L5.717.976a1.417 1.417 0 00-1.97-.124L.671 3.49a1.417 1.417 0 00-.41.92c-.021.352-.427 8.742 6.079 15.25 5.675 5.674 12.784 6.089 14.742 6.089.286 0 .462-.009.509-.011a1.41 1.41 0 00.918-.413l2.635-3.075a1.412 1.412 0 00-.12-1.97z" fill="#686868"/></svg>