<svg width="484" height="292" fill="none" xmlns="http://www.w3.org/2000/svg"><path d="M360.674 233.83h-296.7c-12.5 0-22.635-10.135-22.635-22.634v-11.918h341.97v11.918c0 12.499-10.136 22.634-22.635 22.634z" fill="#678EC4"/><path d="M248.095 233.836h-70.182v30.232h70.182v-30.232zm135.214-33.998H41.339V20.921C41.34 9.367 50.704 0 62.26 0h300.127c11.554 0 20.922 9.367 20.922 20.92v178.918z" fill="#75A1DE"/><path d="M371.518 14.377H55.198v173.121h316.32V14.377zM220.011 215.012a7.72 7.72 0 01-7.723 7.722 7.72 7.72 0 01-7.724-7.722 7.722 7.722 0 017.724-7.723 7.722 7.722 0 017.723 7.723z" fill="#fff"/><path d="M278.143 274.174H146.642c0-5.588 4.529-10.118 10.118-10.118h111.265c5.588 0 10.118 4.53 10.118 10.118z" fill="#678EC3"/><path d="M328.496 74.39H217.618a2.867 2.867 0 01-2.867-2.87v-.275a2.867 2.867 0 012.867-2.87h110.878a2.872 2.872 0 012.872 2.87v.276a2.872 2.872 0 01-2.872 2.87zm-31.644 31.36h-79.234a2.868 2.868 0 01-2.867-2.87v-.273a2.87 2.87 0 012.867-2.872h79.234a2.87 2.87 0 012.87 2.872v.273a2.868 2.868 0 01-2.87 2.87zm31.508 15.68H217.618a2.868 2.868 0 01-2.867-2.87v-.273a2.868 2.868 0 012.867-2.872H328.36a3.008 3.008 0 110 6.015zm-81.724 15.677h-29.018a2.866 2.866 0 01-2.867-2.867v-.275a2.868 2.868 0 012.867-2.87h29.018a2.87 2.87 0 012.869 2.87v.275a2.868 2.868 0 01-2.869 2.867zm28.786-47.037h-57.804a2.867 2.867 0 01-2.867-2.87v-.275a2.867 2.867 0 012.867-2.87h57.804a2.87 2.87 0 012.872 2.87v.276a2.87 2.87 0 01-2.872 2.87z" fill="#E7F3FE"/><path d="M73.237 136.174h-62.57C4.776 136.174 0 140.948 0 146.838v134.486c0 5.89 4.776 10.666 10.666 10.666h62.57c5.891 0 10.665-4.776 10.665-10.666V146.838c0-5.89-4.774-10.664-10.664-10.664z" fill="#75A1DE"/><path d="M39.99 286.016c-3.567 0-6.468-2.903-6.468-6.473a6.477 6.477 0 016.468-6.47c3.569 0 6.473 2.903 6.473 6.47a6.48 6.48 0 01-6.473 6.473zm36.783-136.162H6.16v117.327h70.613V149.854z" fill="#fff"/><path d="M40.461 224.464H20.874a2.87 2.87 0 01-2.87-2.867v-.275a2.87 2.87 0 012.87-2.87h19.587a2.872 2.872 0 012.872 2.87v.275a2.871 2.871 0 01-2.872 2.867zm0 27.572H20.874a2.87 2.87 0 01-2.87-2.869v-.276a2.872 2.872 0 012.87-2.87h19.587a2.874 2.874 0 012.872 2.87v.276a2.872 2.872 0 01-2.872 2.869zm23.379-13.772H20.874a2.867 2.867 0 01-2.87-2.867v-.275a2.87 2.87 0 012.87-2.87H63.84a2.87 2.87 0 012.87 2.87v.275a2.867 2.867 0 01-2.87 2.867z" fill="#E7F3FE"/><path d="M469.599 94.627H357.49c-7.461 0-13.51 6.049-13.51 13.512v170.349c0 7.461 6.049 13.512 13.51 13.512h112.109c7.46 0 13.509-6.051 13.509-13.512V108.139c0-7.463-6.049-13.512-13.509-13.512z" fill="#75A1DE"/><path d="M411.518 284.413c-4.518 0-8.194-3.677-8.194-8.195 0-4.52 3.676-8.194 8.194-8.194 4.52 0 8.197 3.674 8.197 8.194 0 4.518-3.677 8.195-8.197 8.195zm62.575-172.477H351.798v148.621h122.295V111.936z" fill="#fff"/><path d="M392.494 229.916h-19.587a2.87 2.87 0 01-2.867-2.87v-.276a2.867 2.867 0 012.867-2.869h19.587a2.869 2.869 0 012.87 2.869v.276a2.87 2.87 0 01-2.87 2.87zm60.756 13.814h-80.343a2.869 2.869 0 01-2.867-2.87v-.275a2.868 2.868 0 012.867-2.87h80.343a2.87 2.87 0 012.87 2.87v.275a2.871 2.871 0 01-2.87 2.87z" fill="#E7F3FE"/><g clip-path="url(#clip0)" fill="#9CD499"><path d="M154.668 73.51h-34.114c-3.527 0-6.538 2.87-6.538 6.397V92.84c0 3.527 3.011 6.397 6.538 6.397h2.132v6.396a2.131 2.131 0 003.64 1.507l7.904-7.903h1.249v-2.132c0-5.878 4.782-10.661 10.66-10.661h14.925v-6.538a6.403 6.403 0 00-6.396-6.397zm-25.585 10.66a2.133 2.133 0 110-4.264 2.133 2.133 0 010 4.265zm8.528 0a2.132 2.132 0 110-4.263 2.132 2.132 0 010 4.264zm8.528 0a2.132 2.132 0 110-4.264 2.132 2.132 0 010 4.265z"/><path d="M180.253 90.71h-34.114a6.403 6.403 0 00-6.396 6.396v10.66h14.925c5.148 0 9.454 3.669 10.445 8.529h2.77l6.467 7.762a2.135 2.135 0 002.366.639 2.134 2.134 0 001.405-2.005v-6.396h2.132c3.527 0 6.539-2.869 6.539-6.397V97.106c0-3.527-3.012-6.396-6.539-6.396zm-25.585 14.924a2.131 2.131 0 11-.001-4.263 2.131 2.131 0 01.001 4.263zm8.528 0a2.132 2.132 0 110-4.264 2.132 2.132 0 010 4.264zm8.529 0a2.131 2.131 0 11-.001-4.263 2.131 2.131 0 01.001 4.263z"/><path d="M154.668 112.03h-34.114c-3.527 0-6.538 2.87-6.538 6.397v12.792c0 3.527 3.011 6.397 6.538 6.397h2.132v6.538a2.131 2.131 0 003.64 1.507l7.904-8.045h20.438a6.404 6.404 0 006.396-6.397v-12.792a6.404 6.404 0 00-6.396-6.397zm-25.585 14.925a2.133 2.133 0 110-4.266 2.133 2.133 0 010 4.266zm8.528 0a2.132 2.132 0 110-4.264 2.132 2.132 0 010 4.264zm8.528 0a2.133 2.133 0 11.001-4.265 2.133 2.133 0 01-.001 4.265z"/></g><g clip-path="url(#clip1)" fill="#E38540"><path d="M47.688 180.249H30.063c-1.822 0-3.378 1.482-3.378 3.304v6.683c0 1.823 1.556 3.305 3.378 3.305h1.101v3.305a1.099 1.099 0 001.102 1.101 1.1 1.1 0 00.779-.322l4.083-4.084h.646v-1.102a5.514 5.514 0 015.508-5.507h7.711v-3.379a3.308 3.308 0 00-3.305-3.304zm-13.219 5.507a1.101 1.101 0 110-2.203 1.101 1.101 0 010 2.203zm4.407 0a1.101 1.101 0 11-.001-2.203 1.101 1.101 0 010 2.203zm4.406 0a1.101 1.101 0 110-2.203 1.101 1.101 0 010 2.203z"/><path d="M60.907 189.135H43.282a3.308 3.308 0 00-3.305 3.305v5.507h7.711a5.517 5.517 0 015.397 4.407h1.431l3.342 4.01a1.103 1.103 0 001.948-.705v-3.305h1.101c1.823 0 3.379-1.483 3.379-3.305v-6.609c0-1.823-1.556-3.305-3.379-3.305zm-13.219 7.711a1.102 1.102 0 110-2.203 1.102 1.102 0 010 2.203zm4.406 0a1.102 1.102 0 110-2.203 1.102 1.102 0 010 2.203zm4.407 0a1.102 1.102 0 110-2.203 1.102 1.102 0 010 2.203z"/><path d="M47.688 200.15H30.063c-1.822 0-3.378 1.483-3.378 3.305v6.61c0 1.822 1.556 3.304 3.378 3.304h1.101v3.379a1.1 1.1 0 001.88.778l4.084-4.157h10.56a3.308 3.308 0 003.305-3.304v-6.61a3.309 3.309 0 00-3.305-3.305zm-13.219 7.712a1.102 1.102 0 11.001-2.205 1.102 1.102 0 010 2.205zm4.407 0a1.102 1.102 0 110-2.204 1.102 1.102 0 010 2.204zm4.406 0a1.102 1.102 0 11.001-2.204 1.102 1.102 0 01-.001 2.204z"/></g><g clip-path="url(#clip2)" fill="#F39892"><path d="M421.797 141.435h-36.388c-3.762 0-6.974 3.06-6.974 6.822v13.797c0 3.763 3.212 6.823 6.974 6.823h2.275v6.823a2.273 2.273 0 003.882 1.608l8.431-8.431h1.332v-2.274c0-6.27 5.102-11.371 11.371-11.371h15.92v-6.975a6.83 6.83 0 00-6.823-6.822zm-27.291 11.371a2.274 2.274 0 110-4.548 2.274 2.274 0 010 4.548zm9.097 0a2.274 2.274 0 110-4.548 2.274 2.274 0 010 4.548zm9.097 0a2.274 2.274 0 110-4.548 2.274 2.274 0 010 4.548z"/><path d="M449.088 159.78H412.7a6.831 6.831 0 00-6.823 6.823v11.371h15.92c5.491 0 10.085 3.913 11.141 9.097h2.956l6.898 8.28a2.275 2.275 0 004.022-1.457v-6.823h2.274c3.762 0 6.975-3.06 6.975-6.822v-13.646c0-3.762-3.213-6.823-6.975-6.823zm-27.291 15.92a2.274 2.274 0 110-4.548 2.274 2.274 0 010 4.548zm9.097 0a2.274 2.274 0 110-4.548 2.274 2.274 0 010 4.548zm9.097 0a2.274 2.274 0 110-4.548 2.274 2.274 0 010 4.548z"/><path d="M421.797 182.522h-36.388c-3.762 0-6.974 3.061-6.974 6.823v13.646c0 3.762 3.212 6.822 6.974 6.822h2.275v6.975a2.273 2.273 0 003.882 1.608l8.431-8.583h21.8a6.83 6.83 0 006.823-6.822v-13.646a6.83 6.83 0 00-6.823-6.823zm-27.291 15.92a2.274 2.274 0 110-4.548 2.274 2.274 0 010 4.548zm9.097 0a2.274 2.274 0 110-4.548 2.274 2.274 0 010 4.548zm9.097 0a2.274 2.274 0 110-4.548 2.274 2.274 0 010 4.548z"/></g><defs><clipPath id="clip0"><path fill="#fff" transform="translate(114.016 73.51)" d="M0 0h72.776v72.776H0z"/></clipPath><clipPath id="clip1"><path fill="#fff" transform="translate(26.685 180.249)" d="M0 0h37.601v37.601H0z"/></clipPath><clipPath id="clip2"><path fill="#fff" transform="translate(378.435 141.435)" d="M0 0h77.628v77.628H0z"/></clipPath></defs></svg>