<svg width="22" height="18" fill="none" xmlns="http://www.w3.org/2000/svg"><path d="M22 2.138a8.991 8.991 0 01-2.596.703A4.524 4.524 0 0021.387.338c-.884.53-1.852.9-2.861 1.097A4.47 4.47 0 0015.232 0c-2.499 0-4.508 2.04-4.508 4.543 0 .351.042.703.11 1.04A12.783 12.783 0 011.54.832a4.533 4.533 0 00-.614 2.292 4.55 4.55 0 002.01 3.784 4.523 4.523 0 01-2.04-.578v.056a4.533 4.533 0 003.615 4.458 4.743 4.743 0 01-1.188.154c-.293 0-.57-.03-.85-.07a4.52 4.52 0 004.213 3.15A8.995 8.995 0 011.09 16.02c-.378 0-.727-.013-1.089-.056A12.701 12.701 0 006.924 18c8.292 0 12.829-6.918 12.829-12.922 0-.197 0-.394-.014-.591A9.75 9.75 0 0022 2.138z" fill="#CA1B3D"/></svg>