<svg width="32" height="32" viewBox="0 0 32 32" fill="none" xmlns="http://www.w3.org/2000/svg">
<g clip-path="url(#clip0)">
<path d="M21.3345 0.914368L19.4673 6.09129C21.1908 11.779 21.1908 20.2209 19.4673 25.9089L21.3345 31.0853C27.5479 28.8882 32.0003 22.9655 32.0003 15.9995C32.0003 9.03455 27.5479 3.11155 21.3345 0.914368Z" fill="#E61E25"/>
<path d="M21.3343 6.09127V0.914352C19.6657 0.324254 17.871 0.00012207 16 0.00012207C18.4672 0.00012207 15.0463 8.36168 21.3343 6.09127Z" fill="#E4E4E4"/>
<path d="M16.0001 31.9999C17.8711 31.9999 19.6658 31.6757 21.3344 31.0856V25.9092C15.1096 25.2879 16.0001 31.9999 16.0001 31.9999Z" fill="#E4E4E4"/>
<path d="M0 15.9997C0 22.989 4.48265 28.9273 10.7282 31.1067V0.893707C4.48265 3.07312 0 9.01146 0 15.9997Z" fill="#3757A6"/>
<path d="M21.334 6.09128V25.9089C23.0577 20.2209 23.0577 11.7789 21.334 6.09128Z" fill="#EF4F4E"/>
<path d="M21.334 25.9091V6.09127C20.2447 2.49536 18.4669 0.00012207 15.9997 0.00012207C14.1519 0.00012207 12.3792 0.317431 10.728 0.89368V31.1068C12.3792 31.6831 14.1519 31.9999 15.9997 31.9999C18.4669 31.9999 20.2447 29.5046 21.334 25.9091Z" fill="#F3F4F5"/>
</g>
<defs>
<clipPath id="clip0">
<rect width="32" height="32" fill="white"/>
</clipPath>
</defs>
</svg>
