<svg width="21" height="24" viewBox="0 0 21 24" fill="none" xmlns="http://www.w3.org/2000/svg">
<path d="M10.4994 18.1855C14.9671 18.1855 18.8747 20.095 21 22.944L18.7527 24C17.0228 21.9632 13.9728 20.6102 10.4994 20.6102C7.02603 20.6102 3.97601 21.9632 2.24603 24L0 22.9428C2.12525 20.0938 6.03172 18.1855 10.4994 18.1855ZM10.4994 0C12.1172 0 13.6688 0.638655 14.8128 1.77547C15.9567 2.91228 16.5994 4.45413 16.5994 6.06183V9.69893C16.5993 11.261 15.9924 12.7628 14.9053 13.891C13.8181 15.0193 12.3346 15.6869 10.7641 15.7547L10.4994 15.7608C8.88156 15.7608 7.32999 15.1221 6.18601 13.9853C5.04203 12.8485 4.39935 11.3066 4.39935 9.69893V6.06183C4.39944 4.49974 5.00635 2.99799 6.09352 1.86974C7.1807 0.741491 8.66419 0.0738566 10.2346 0.00606197L10.4994 0ZM10.4994 2.42473C9.56583 2.42468 8.66753 2.77914 7.98829 3.41558C7.30906 4.05202 6.90023 4.92234 6.84547 5.84845L6.83937 6.06183V9.69893C6.83845 10.6457 7.20905 11.5555 7.87243 12.235C8.53581 12.9145 9.43968 13.3102 10.392 13.338C11.3443 13.3657 12.27 13.0234 12.9723 12.3838C13.6747 11.7441 14.0983 10.8575 14.1533 9.9123L14.1594 9.69893V6.06183C14.1594 5.09721 13.7738 4.1721 13.0874 3.49001C12.401 2.80793 11.4701 2.42473 10.4994 2.42473Z" fill="#333333"/>
</svg>
