<svg width="41" height="25" fill="none" xmlns="http://www.w3.org/2000/svg"><path d="M39.869 5.874L21.999.351a5.088 5.088 0 00-2.997 0L1.131 5.874a1.52 1.52 0 000 2.939l3.115.963A5.097 5.097 0 003.1 12.798c-.617.356-1.051.998-1.051 1.764 0 .695.364 1.28.888 1.654L1.302 23.62a1.03 1.03 0 001 1.255h3.595a1.03 1.03 0 001-1.255l-1.635-7.404c.524-.374.888-.959.888-1.654 0-.745-.415-1.37-1.003-1.731a3.045 3.045 0 011.325-2.367l12.529 3.873c.58.18 1.694.403 2.997 0l17.87-5.524a1.52 1.52 0 000-2.939zM22.6 16.308a7.129 7.129 0 01-4.202 0l-9.29-2.87-.91 7.312c0 2.278 5.508 4.125 12.3 4.125 6.794 0 12.3-1.847 12.3-4.125l-.907-7.313-9.291 2.871z" fill="#000"/></svg>