<svg width="29" height="17" fill="none" xmlns="http://www.w3.org/2000/svg"><path d="M28.332 1.207c.199-.66 0-1.145-.958-1.145h-3.17c-.808 0-1.179.417-1.378.881 0 0-1.615 3.855-3.897 6.355-.737.722-1.076.954-1.48.954-.199 0-.506-.232-.506-.891V1.207c0-.791-.226-1.145-.893-1.145h-4.984c-.506 0-.807.37-.807.712 0 .75 1.141.923 1.26 3.033v4.577c0 1.002-.184 1.187-.587 1.187-1.077 0-3.692-3.871-5.242-8.3C5.378.41 5.07.062 4.258.062h-3.17C.184.063.001.478.001.943c0 .823 1.076 4.91 5.01 10.31 2.622 3.686 6.314 5.684 9.672 5.684 2.018 0 2.266-.443 2.266-1.207 0-3.523-.183-3.855.829-3.855.468 0 1.275.232 3.159 2.01 2.153 2.109 2.508 3.053 3.713 3.053h3.17c.904 0 1.362-.444 1.098-1.319-.602-1.84-4.677-5.627-4.86-5.88-.468-.59-.333-.854 0-1.381.006-.006 3.875-5.342 4.274-7.151z" fill="#000"/></svg>